  0
SECTION
  2
HEADER
  9
$ACADVER
  1
AC1009
  9
$INSBASE
 10
0.0
 20
0.0
 30
0.0
  9
$EXTMIN
 10
0.0
 20
0.0
 30
0.0
  9
$EXTMAX
 10
16.51793840353297
 20
4.5246260359777004
 30
0.0
  9
$LIMMIN
 10
0.0
 20
0.0
  9
$LIMMAX
 10
16.51793840353297
 20
4.5246260359777004
  9
$ORTHOMODE
 70
     0
  9
$REGENMODE
 70
     1
  9
$FILLMODE
 70
     1
  9
$QTEXTMODE
 70
     0
  9
$MIRRTEXT
 70
     0
  9
$DRAGMODE
 70
     2
  9
$LTSCALE
 40
1.0
  9
$OSMODE
 70
     0
  9
$ATTMODE
 70
     1
  9
$TEXTSIZE
 40
0.2
  9
$TRACEWID
 40
0.05
  9
$TEXTSTYLE
  7
STANDARD
  9
$CLAYER
  8
0
  9
$CELTYPE
  6
BYLAYER
  9
$CECOLOR
 62
   256
  9
$DIMSCALE
 40
1.0
  9
$DIMASZ
 40
0.0708661417322835
  9
$DIMEXO
 40
0.0625
  9
$DIMDLI
 40
0.38
  9
$DIMRND
 40
0.0
  9
$DIMDLE
 40
0.0
  9
$DIMEXE
 40
0.18
  9
$DIMTP
 40
0.0
  9
$DIMTM
 40
0.0
  9
$DIMTXT
 40
0.0708661417322835
  9
$DIMCEN
 40
0.09
  9
$DIMTSZ
 40
0.0
  9
$DIMTOL
 70
     0
  9
$DIMLIM
 70
     0
  9
$DIMTIH
 70
     1
  9
$DIMTOH
 70
     1
  9
$DIMSE1
 70
     0
  9
$DIMSE2
 70
     0
  9
$DIMTAD
 70
     0
  9
$DIMZIN
 70
     0
  9
$DIMBLK
  1

  9
$DIMASO
 70
     1
  9
$DIMSHO
 70
     1
  9
$DIMPOST
  1

  9
$DIMAPOST
  1

  9
$DIMALT
 70
     0
  9
$DIMALTD
 70
     2
  9
$DIMALTF
 40
25.399999999999999
  9
$DIMLFAC
 40
1.0
  9
$DIMTOFL
 70
     0
  9
$DIMTVP
 40
0.0
  9
$DIMTIX
 70
     0
  9
$DIMSOXD
 70
     0
  9
$DIMSAH
 70
     0
  9
$DIMBLK1
  1

  9
$DIMBLK2
  1

  9
$DIMSTYLE
  2
STANDARD
  9
$DIMCLRD
 70
     0
  9
$DIMCLRE
 70
     0
  9
$DIMCLRT
 70
     0
  9
$DIMTFAC
 40
1.0
  9
$DIMGAP
 40
0.09
  9
$LUNITS
 70
     2
  9
$LUPREC
 70
     4
  9
$SKETCHINC
 40
0.1
  9
$FILLETRAD
 40
0.0
  9
$AUNITS
 70
     0
  9
$AUPREC
 70
     0
  9
$MENU
  1
.
  9
$ELEVATION
 40
0.0
  9
$PELEVATION
 40
0.0
  9
$THICKNESS
 40
0.0
  9
$LIMCHECK
 70
     0
  9
$BLIPMODE
 70
     0
  9
$CHAMFERA
 40
0.0
  9
$CHAMFERB
 40
0.0
  9
$SKPOLY
 70
     0
  9
$TDCREATE
 40
2456337.7678992478
  9
$TDUPDATE
 40
2456337.7678992478
  9
$TDINDWG
 40
0.0000026042
  9
$TDUSRTIMER
 40
0.0000026042
  9
$USRTIMER
 70
     1
  9
$ANGBASE
 50
0.0
  9
$ANGDIR
 70
     0
  9
$PDMODE
 70
     0
  9
$PDSIZE
 40
0.0
  9
$PLINEWID
 40
0.0
  9
$COORDS
 70
     0
  9
$SPLFRAME
 70
     0
  9
$SPLINETYPE
 70
     6
  9
$SPLINESEGS
 70
     8
  9
$ATTDIA
 70
     0
  9
$ATTREQ
 70
     1
  9
$HANDLING
 70
     1
  9
$HANDSEED
  5
497
  9
$SURFTAB1
 70
     6
  9
$SURFTAB2
 70
     6
  9
$SURFTYPE
 70
     6
  9
$SURFU
 70
     6
  9
$SURFV
 70
     6
  9
$UCSNAME
  2

  9
$UCSORG
 10
0.0
 20
0.0
 30
0.0
  9
$UCSXDIR
 10
1.0
 20
0.0
 30
0.0
  9
$UCSYDIR
 10
0.0
 20
1.0
 30
0.0
  9
$PUCSNAME
  2

  9
$PUCSORG
 10
0.0
 20
0.0
 30
0.0
  9
$PUCSXDIR
 10
1.0
 20
0.0
 30
0.0
  9
$PUCSYDIR
 10
0.0
 20
1.0
 30
0.0
  9
$USERI1
 70
     0
  9
$USERI2
 70
     0
  9
$USERI3
 70
     0
  9
$USERI4
 70
     0
  9
$USERI5
 70
     0
  9
$USERR1
 40
0.0
  9
$USERR2
 40
0.0
  9
$USERR3
 40
0.0
  9
$USERR4
 40
0.0
  9
$USERR5
 40
0.0
  9
$WORLDVIEW
 70
     1
  9
$SHADEDGE
 70
     3
  9
$SHADEDIF
 70
    70
  9
$TILEMODE
 70
     1
  9
$MAXACTVP
 70
    64
  9
$PLIMCHECK
 70
     0
  9
$PEXTMIN
 10
0.0
 20
0.0
 30
0.0
  9
$PEXTMAX
 10
16.51793840353297
 20
4.5246260359777004
 30
0.0
  9
$PLIMMIN
 10
0.0
 20
0.0
  9
$PLIMMAX
 10
16.51793840353297
 20
4.5246260359777004
  9
$UNITMODE
 70
     0
  9
$VISRETAIN
 70
     1
  9
$PLINEGEN
 70
     0
  9
$PSLTSCALE
 70
     1
  0
ENDSEC
  0
SECTION
  2
TABLES
  0
TABLE
  2
VPORT
 70
     1
  0
VPORT
  2
*ACTIVE
 70
     0
 10
0.0
 20
0.0
 11
1.0
 21
1.0
 12
7.4999999999999982
 22
-1.9275712835254359
 13
0.0
 23
0.0
 14
1.0
 24
1.0
 15
0.0
 25
0.0
 16
0.0
 26
0.0
 36
1.0
 17
0.0
 27
0.0
 37
0.0
 40
4.5246260359777004
 41
3.6506748341608981
 42
50.0
 43
0.0
 44
0.0
 50
0.0
 51
0.0
 71
     0
 72
   100
 73
     1
 74
     1
 75
     0
 76
     0
 77
     0
 78
     0
  0
ENDTAB
  0
TABLE
  2
LTYPE
 70
    59
  0
LTYPE
  2
CONTINUOUS
 70
     0
  3
Solid line
 72
    65
 73
     0
 40
0.0
  0
LTYPE
  2
PHANTOM2
 70
     0
  3
Phantom (.5x) ___ _ _ ___ _ _ ___ _ _ ___ _ _
 72
    65
 73
     6
 40
1.25
 49
0.625
 49
-0.125
 49
0.125
 49
-0.125
 49
0.125
 49
-0.125
  0
LTYPE
  2
BY_STANDARD
 70
     0
  3
By Standard ____________    ____    ____   _
 72
    65
 73
     6
 40
1.2402999999999991
 49
0.6614
 49
-0.0827
 49
0.1654
 49
-0.0827
 49
0.1654
 49
-0.0827
  0
LTYPE
  2
CHAIN
 70
     0
  3
Chain ____ _ ____ _ ____ _ ____ _ ____ _ ____
 72
    65
 73
     4
 40
0.7087
 49
0.4724000000000001
 49
-0.0591
 49
0.1181
 49
-0.0591
  0
LTYPE
  2
DASH_DOT
 70
     0
  3
Dash dot __ . __ . __ . __ . __ . __ . __ . __
 72
    65
 73
     4
 40
0.37
 49
0.24
 49
-0.06
 49
0.01
 49
-0.06
  0
LTYPE
  2
DOUBLE_DASH_DOT
 70
     0
  3
Double-Dash Dot __ __ . __ __ . __ __ . __ _
 72
    65
 73
     6
 40
0.4398
 49
0.24
 49
-0.06
 49
0.0098
 49
-0.06
 49
0.01
 49
-0.06
  0
LTYPE
  2
DASH_TRIPLE_DOT
 70
     0
  3
Dash Triple-Dot _ . . . _ . . . _ . . . _
 72
    65
 73
     8
 40
0.51
 49
0.24
 49
-0.06
 49
0.01
 49
-0.06
 49
0.01
 49
-0.06
 49
0.01
 49
-0.06
  0
LTYPE
  2
DASHED
 70
     0
  3
Dashed __ __ __ __ __ __ __ __ __ __ __ __ __ _
 72
    65
 73
     2
 40
0.2067
 49
0.1654
 49
-0.0413
  0
LTYPE
  2
DASH_DOUBLE_DOT
 70
     0
  3
Dash Double-Dot __ . . __ . . __ . . __ . .
 72
    65
 73
     6
 40
0.4398
 49
0.24
 49
-0.06
 49
0.0098
 49
-0.06
 49
0.01
 49
-0.06
  0
LTYPE
  2
DASHED_SPACE
 70
     0
  3
Dashed Space __ __ __ __ __ __ __ __ __ __ __ _
 72
    65
 73
     2
 40
0.2067
 49
0.1654
 49
-0.0413
  0
LTYPE
  2
DOTTED
 70
     0
  3
Dotted . . . . . . . . . . . . . . . . . . . . 
 72
    65
 73
     2
 40
0.0482
 49
0.0069
 49
-0.0413
  0
LTYPE
  2
DOUBLE_DASH_CHAIN
 70
     0
  3
Double-Dash Chain ______  __  __  ______  __  _
 72
    65
 73
     6
 40
1.2402999999999991
 49
0.6614
 49
-0.0827
 49
0.1654
 49
-0.0827
 49
0.1654
 49
-0.0827
  0
LTYPE
  2
DOUBLE_DASH_DOUBLE_DOT
 70
     0
  3
Double-Dash Double-dot _ _ . . _ _ . . _
 72
    65
 73
     8
 40
0.7400000000000001
 49
0.24
 49
-0.06
 49
0.24
 49
-0.06
 49
0.01
 49
-0.06
 49
0.01
 49
-0.06
  0
LTYPE
  2
DOUBLE_DASH_TRIPLE_DOT
 70
     0
  3
Double Dash Triple Dot __ __ . . . __ __ . .
 72
    65
 73
    10
 40
0.8100000000000001
 49
0.24
 49
-0.06
 49
0.24
 49
-0.06
 49
0.01
 49
-0.06
 49
0.01
 49
-0.06
 49
0.01
 49
-0.06
  0
LTYPE
  2
LONG_DASH_DOTTED
 70
     0
  3
Long Dash Dotted ____ . ____ . ____ . ____ . _
 72
    65
 73
     4
 40
0.3543
 49
0.2362
 49
-0.0295
 49
0.0591
 49
-0.0295
  0
LTYPE
  2
LONG_DASH_DOUBLE_DOT
 70
     0
  3
Long Dash Double Dot ________  .  .  ________  
 72
    65
 73
     6
 40
0.6799999999999999
 49
0.48
 49
-0.06
 49
0.01
 49
-0.06
 49
0.01
 49
-0.06
  0
LTYPE
  2
LONG_DASH_TRIPLE_DOT
 70
     0
  3
Long Dash Triple Dot ____ ... ____ ... ____
 72
    65
 73
     8
 40
0.3689
 49
0.2362
 49
-0.0295
 49
0.0049
 49
-0.0295
 49
0.0049
 49
-0.0295
 49
0.0049
 49
-0.0295
  0
LTYPE
  2
BORDER
 70
     0
  3
Border __ __ . __ __ . __ __ . __ __ . __ __ .
 72
    65
 73
     6
 40
1.75
 49
0.5
 49
-0.25
 49
0.5
 49
-0.25
 49
0.0
 49
-0.25
  0
LTYPE
  2
BORDER2
 70
     0
  3
Border (.5x) __.__.__.__.__.__.__.__.__.__.__.
 72
    65
 73
     6
 40
0.875
 49
0.25
 49
-0.125
 49
0.25
 49
-0.125
 49
0.0
 49
-0.125
  0
LTYPE
  2
BORDERX2
 70
     0
  3
Border (2x) ____  ____  .  ____  ____  .  ___
 72
    65
 73
     6
 40
3.5
 49
1.0
 49
-0.5
 49
1.0
 49
-0.5
 49
0.0
 49
-0.5
  0
LTYPE
  2
CENTER
 70
     0
  3
Center ____ _ ____ _ ____ _ ____ _ ____ _ ____
 72
    65
 73
     4
 40
2.0
 49
1.25
 49
-0.25
 49
0.25
 49
-0.25
  0
LTYPE
  2
CENTER2
 70
     0
  3
Center (.5x) ___ _ ___ _ ___ _ ___ _ ___ _ ___
 72
    65
 73
     4
 40
1.125
 49
0.75
 49
-0.125
 49
0.125
 49
-0.125
  0
LTYPE
  2
CENTERX2
 70
     0
  3
Center (2x) ________  __  ________  __  _____
 72
    65
 73
     4
 40
4.0
 49
2.5
 49
-0.5
 49
0.5
 49
-0.5
  0
LTYPE
  2
DASHDOT2
 70
     0
  3
Dash dot (.5x) _._._._._._._._._._._._._._._.
 72
    65
 73
     4
 40
0.5
 49
0.25
 49
-0.125
 49
0.0
 49
-0.125
  0
LTYPE
  2
DASHDOTX2
 70
     0
  3
Dash dot (2x) ____  .  ____  .  ____  .  ___
 72
    65
 73
     4
 40
2.0
 49
1.0
 49
-0.5
 49
0.0
 49
-0.5
  0
LTYPE
  2
DASHED2
 70
     0
  3
Dashed (.5x) _ _ _ _ _ _ _ _ _ _ _ _ _ _ _ _ _
 72
    65
 73
     2
 40
0.375
 49
0.25
 49
-0.125
  0
LTYPE
  2
DASHEDX2
 70
     0
  3
Dashed (2x) ____  ____  ____  ____  ____  ___
 72
    65
 73
     2
 40
1.5
 49
1.0
 49
-0.5
  0
LTYPE
  2
DIVIDE
 70
     0
  3
Divide ____ . . ____ . . ____ . . ____ . . ____
 72
    65
 73
     6
 40
1.25
 49
0.5
 49
-0.25
 49
0.0
 49
-0.25
 49
0.0
 49
-0.25
  0
LTYPE
  2
DIVIDE2
 70
     0
  3
Divide (.5x) __..__..__..__..__..__..__..__.._
 72
    65
 73
     6
 40
0.625
 49
0.25
 49
-0.125
 49
0.0
 49
-0.125
 49
0.0
 49
-0.125
  0
LTYPE
  2
DIVIDEX2
 70
     0
  3
Divide (2x) ________  .  .  ________  .  .  _
 72
    65
 73
     6
 40
2.5
 49
1.0
 49
-0.5
 49
0.0
 49
-0.5
 49
0.0
 49
-0.5
  0
LTYPE
  2
DOT
 70
     0
  3
Dot . . . . . . . . . . . . . . . . . . . . . .
 72
    65
 73
     2
 40
0.25
 49
0.0
 49
-0.25
  0
LTYPE
  2
DOT2
 70
     0
  3
Dot (.5x) .....................................
 72
    65
 73
     2
 40
0.125
 49
0.0
 49
-0.125
  0
LTYPE
  2
DOTX2
 70
     0
  3
Dot (2x) .  .  .  .  .  .  .  .  .  .  .  .  . 
 72
    65
 73
     2
 40
0.5
 49
0.0
 49
-0.5
  0
LTYPE
  2
HIDDEN
 70
     0
  3
Hidden __ __ __ __ __ __ __ __ __ __ __ __ __ _
 72
    65
 73
     2
 40
0.375
 49
0.25
 49
-0.125
  0
LTYPE
  2
HIDDEN2
 70
     0
  3
Hidden (.5x) _ _ _ _ _ _ _ _ _ _ _ _ _ _ _ _ _
 72
    65
 73
     2
 40
0.1875
 49
0.125
 49
-0.0625
  0
LTYPE
  2
HIDDENX2
 70
     0
  3
Hidden (2x) ____ ____ ____ ____ ____ ____ ____
 72
    65
 73
     2
 40
0.75
 49
0.5
 49
-0.25
  0
LTYPE
  2
PHANTOM
 70
     0
  3
Phantom ______  __  __  ______  __  __  ______
 72
    65
 73
     6
 40
2.5
 49
1.25
 49
-0.25
 49
0.25
 49
-0.25
 49
0.25
 49
-0.25
  0
LTYPE
  2
PHANTOMX2
 70
     0
  3
Phantom (2x) ____________    ____    ____   _
 72
    65
 73
     6
 40
5.0
 49
2.5
 49
-0.5
 49
0.5
 49
-0.5
 49
0.5
 49
-0.5
  0
LTYPE
  2
ACAD_ISO02W100
 70
     0
  3
ISO dash __ __ __ __ __ __ __ __ __ __ __ __ __
 72
    65
 73
     2
 40
0.59
 49
0.47
 49
-0.12
  0
LTYPE
  2
ACAD_ISO03W100
 70
     0
  3
ISO dash space __    __    __    __    __    __
 72
    65
 73
     2
 40
1.179999999999999
 49
0.47
 49
-0.71
  0
LTYPE
  2
ACAD_ISO04W100
 70
     0
  3
ISO long-dash dot ____ . ____ . ____ . ____ . _
 72
    65
 73
     4
 40
1.179999999999999
 49
0.9399999999999998
 49
-0.12
 49
0.0
 49
-0.12
  0
LTYPE
  2
ACAD_ISO05W100
 70
     0
  3
ISO long-dash double-dot ____ .. ____ .. ____ .
 72
    65
 73
     6
 40
1.2999999999999989
 49
0.9399999999999998
 49
-0.12
 49
0.0
 49
-0.12
 49
0.0
 49
-0.12
  0
LTYPE
  2
ACAD_ISO06W100
 70
     0
  3
ISO long-dash triple-dot ____ ... ____ ... ____
 72
    65
 73
     8
 40
1.419999999999999
 49
0.9399999999999998
 49
-0.12
 49
0.0
 49
-0.12
 49
0.0
 49
-0.12
 49
0.0
 49
-0.12
  0
LTYPE
  2
ACAD_ISO07W100
 70
     0
  3
ISO dot . . . . . . . . . . . . . . . . . . . .
 72
    65
 73
     2
 40
0.12
 49
0.0
 49
-0.12
  0
LTYPE
  2
ACAD_ISO08W100
 70
     0
  3
ISO long-dash short-dash ____ __ ____ __ ____ _
 72
    65
 73
     4
 40
0.95
 49
0.47
 49
-0.12
 49
0.24
 49
-0.12
  0
LTYPE
  2
ACAD_ISO09W100
 70
     0
  3
ISO long-dash double-short-dash ____ __ __ ____
 72
    65
 73
     6
 40
1.3100000000000001
 49
0.47
 49
-0.12
 49
0.24
 49
-0.12
 49
0.24
 49
-0.12
  0
LTYPE
  2
ACAD_ISO10W100
 70
     0
  3
ISO dash dot __ . __ . __ . __ . __ . __ . __ .
 72
    65
 73
     4
 40
0.71
 49
0.47
 49
-0.12
 49
0.0
 49
-0.12
  0
LTYPE
  2
ACAD_ISO11W100
 70
     0
  3
ISO double-dash dot __ __ . __ __ . __ __ . __ 
 72
    65
 73
     6
 40
1.2999999999999989
 49
0.47
 49
-0.12
 49
0.47
 49
-0.12
 49
0.0
 49
-0.12
  0
LTYPE
  2
ACAD_ISO12W100
 70
     0
  3
ISO dash double-dot __ . . __ . . __ . . __ . .
 72
    65
 73
     6
 40
0.8299999999999999
 49
0.47
 49
-0.12
 49
0.0
 49
-0.12
 49
0.0
 49
-0.12
  0
LTYPE
  2
ACAD_ISO13W100
 70
     0
  3
ISO double-dash double-dot __ __ . . __ __ . . 
 72
    65
 73
     8
 40
1.419999999999999
 49
0.47
 49
-0.12
 49
0.47
 49
-0.12
 49
0.0
 49
-0.12
 49
0.0
 49
-0.12
  0
LTYPE
  2
ACAD_ISO14W100
 70
     0
  3
ISO dash triple-dot __ . . . __ . . . __ . . . 
 72
    65
 73
     8
 40
0.95
 49
0.47
 49
-0.12
 49
0.0
 49
-0.12
 49
0.0
 49
-0.12
 49
0.0
 49
-0.12
  0
LTYPE
  2
ACAD_ISO15W100
 70
     0
  3
ISO double-dash triple-dot __ __ . . . __ __ . 
 72
    65
 73
    10
 40
1.5399999999999989
 49
0.47
 49
-0.12
 49
0.47
 49
-0.12
 49
0.0
 49
-0.12
 49
0.0
 49
-0.12
 49
0.0
 49
-0.12
  0
LTYPE
  2
FENCELINE1
 70
     0
  3
Fenceline circle ----0-----0----0-----0----0---
 72
    65
 73
     4
 40
1.45
 49
0.25
 49
-0.1
 49
-0.1
 49
1.0
  0
LTYPE
  2
FENCELINE2
 70
     0
  3
Fenceline square ----[]-----[]----[]-----[]----
 72
    65
 73
     4
 40
1.45
 49
0.25
 49
-0.1
 49
-0.1
 49
1.0
  0
LTYPE
  2
TRACKS
 70
     0
  3
Tracks -|-|-|-|-|-|-|-|-|-|-|-|-|-|-|-|-|-|-|-|
 72
    65
 73
     2
 40
0.3
 49
0.15
 49
0.15
  0
LTYPE
  2
BATTING
 70
     0
  3
Batting SSSSSSSSSSSSSSSSSSSSSSSSSSSSSSSSSSSSSSS
 72
    65
 73
     4
 40
0.4001000000000001
 49
0.0001
 49
-0.1
 49
-0.2
 49
-0.1
  0
LTYPE
  2
HOT_WATER_SUPPLY
 70
     0
  3
Hot water supply ---- HW ---- HW ---- HW ----
 72
    65
 73
     3
 40
0.9
 49
0.5
 49
-0.2
 49
-0.2
  0
LTYPE
  2
GAS_LINE
 70
     0
  3
Gas line ----GAS----GAS----GAS----GAS----GAS---
 72
    65
 73
     3
 40
0.95
 49
0.5
 49
-0.2
 49
-0.25
  0
LTYPE
  2
ZIGZAG
 70
     0
  3
Zig zag /\/\/\/\/\/\/\/\/\/\/\/\/\/\/\/\/\/\/\/
 72
    65
 73
     4
 40
0.8001000000000001
 49
0.0001
 49
-0.2
 49
-0.4
 49
-0.2
  0
ENDTAB
  0
TABLE
  2
LAYER
 70
     1
  0
LAYER
  2
0
 70
     0
 62
     7
  6
CONTINUOUS
  0
ENDTAB
  0
TABLE
  2
STYLE
 70
     3
  0
STYLE
  2
STANDARD
 70
     0
 40
0.0
 41
1.0
 50
0.0
 71
     0
 42
0.2
  3
txt
  4

  0
STYLE
  2
ANNOTATIVE
 70
     0
 40
0.0
 41
1.0
 50
0.0
 71
     0
 42
0.2
  3
txt
  4

  0
STYLE
  2

 70
     1
 40
0.0
 41
1.0
 50
0.0
 71
     0
 42
0.2
  3
ltypeshp.shx
  4

  0
ENDTAB
  0
TABLE
  2
VIEW
 70
     0
  0
ENDTAB
  0
TABLE
  2
UCS
 70
     0
  0
ENDTAB
  0
TABLE
  2
APPID
 70
     3
  0
APPID
  2
ACAD
 70
     0
  0
APPID
  2
ACADANNOTATIVE
 70
     0
  0
APPID
  2
ACAD_MLEADERVER
 70
     0
  0
ENDTAB
  0
TABLE
  2
DIMSTYLE
 70
     2
  0
DIMSTYLE
  2
STANDARD
 70
     0
  3

  4

  5

  6

  7

 40
1.0
 41
0.18
 42
0.0625
 43
0.38
 44
0.18
 45
0.0
 46
0.0
 47
0.0
 48
0.0
140
0.18
141
0.09
142
0.0
143
25.399999999999999
144
1.0
145
0.0
146
1.0
147
0.09
 71
     0
 72
     0
 73
     1
 74
     1
 75
     0
 76
     0
 77
     0
 78
     0
170
     0
171
     2
172
     0
173
     0
174
     0
175
     0
176
     0
177
     0
178
     0
  0
DIMSTYLE
  2
ANNOTATIVE
 70
     0
  3

  4

  5

  6

  7

 40
1.0
 41
0.18
 42
0.0625
 43
0.38
 44
0.18
 45
0.0
 46
0.0
 47
0.0
 48
0.0
140
0.18
141
0.09
142
0.0
143
25.399999999999999
144
1.0
145
0.0
146
1.0
147
0.09
 71
     0
 72
     0
 73
     1
 74
     1
 75
     0
 76
     0
 77
     0
 78
     0
170
     0
171
     2
172
     0
173
     0
174
     0
175
     0
176
     0
177
     0
178
     0
  0
ENDTAB
  0
ENDSEC
  0
SECTION
  2
BLOCKS
  0
BLOCK
  8
0
  2
$MODEL_SPACE
 70
     0
 10
0.0
 20
0.0
 30
0.0
  3
$MODEL_SPACE
  1

  0
ENDBLK
  5
73
  8
0
  0
BLOCK
 67
     1
  8
0
  2
$PAPER_SPACE
 70
     0
 10
0.0
 20
0.0
 30
0.0
  3
$PAPER_SPACE
  1

  0
ENDBLK
  5
6F
 67
     1
  8
0
  0
ENDSEC
  0
SECTION
  2
ENTITIES
  0
POLYLINE
  5
B7
  8
0
 66
     1
 10
0.0
 20
0.0
 30
0.0
 70
     1
  0
VERTEX
  5
B8
  8
0
 10
5.2107372497327233
 20
-1.1833772359370309
 30
0.0
  0
VERTEX
  5
B9
  8
0
 10
5.0532238613401788
 20
-1.267128590158304
 30
0.0
 42
-0.6519267099296562
  0
VERTEX
  5
BB
  8
0
 10
5.0249161773180671
 20
-1.2448503933595749
 30
0.0
  0
VERTEX
  5
BC
  8
0
 10
5.0559988769483262
 20
-1.1238405034524559
 30
0.0
 42
-0.424548894629422
  0
VERTEX
  5
BD
  8
0
 10
5.0806294889349504
 20
-1.1098556499914309
 30
0.0
  0
VERTEX
  5
BE
  8
0
 10
5.2070601776972358
 20
-1.1471141856772771
 30
0.0
 42
-0.6718454490347764
  0
SEQEND
  5
BA
  8
0
  0
POLYLINE
  5
C0
  8
0
 66
     1
 10
0.0
 20
0.0
 30
0.0
 70
     1
  0
VERTEX
  5
C1
  8
0
 10
10.69258578667054
 20
-2.8138876256463501
 30
0.0
  0
VERTEX
  5
C2
  8
0
 10
10.484618265865469
 20
-2.8796823299431988
 30
0.0
 42
-0.2509776855698226
  0
VERTEX
  5
C4
  8
0
 10
10.46634585411728
 20
-2.8762554479470501
 30
0.0
  0
VERTEX
  5
C5
  8
0
 10
10.38451374582174
 20
-2.8104607436502009
 30
0.0
 42
-0.708039467128017
  0
VERTEX
  5
C6
  8
0
 10
10.39684846651789
 20
-2.7754344057578502
 30
0.0
  0
VERTEX
  5
C7
  8
0
 10
10.686648095618491
 20
-2.7754344057578502
 30
0.0
 42
-0.8574381500215
  0
SEQEND
  5
C3
  8
0
  0
POLYLINE
  5
C8
  8
0
 66
     1
 10
0.0
 20
0.0
 30
0.0
 70
     1
  0
VERTEX
  5
C9
  8
0
 10
8.9863035451167814
 20
-3.437612442020904
 30
0.0
  0
VERTEX
  5
CA
  8
0
 10
10.447781013861681
 20
-2.9752446765143352
 30
0.0
 42
-0.2509776855698031
  0
VERTEX
  5
CC
  8
0
 10
10.46605342560987
 20
-2.9786715585104839
 30
0.0
  0
VERTEX
  5
CD
  8
0
 10
10.656837836696919
 20
-3.1320661633101921
 30
0.0
 42
-0.4726978344483172
  0
VERTEX
  5
CE
  8
0
 10
10.657156415404049
 20
-3.1624870768544922
 30
0.0
  0
VERTEX
  5
CF
  8
0
 10
10.28893654111646
 20
-3.4714602375613519
 30
0.0
 42
-0.1763269807084682
  0
VERTEX
  5
D0
  8
0
 10
10.276283241713189
 20
-3.4760656619094039
 30
0.0
  0
VERTEX
  5
D1
  8
0
 10
8.9922412361688231
 20
-3.4760656619094048
 30
0.0
 42
-0.8574381500215274
  0
SEQEND
  5
CB
  8
0
  0
POLYLINE
  5
D2
  8
0
 66
     1
 10
0.0
 20
0.0
 30
0.0
 70
     1
  0
VERTEX
  5
D3
  8
0
 10
11.66698818897634
 20
-0.604095155634831
 30
0.0
  0
VERTEX
  5
D4
  8
0
 10
11.66698818897634
 20
-1.09653610051672
 30
0.0
 42
-0.4142135623730951
  0
VERTEX
  5
D6
  8
0
 10
11.647303149606261
 20
-1.1162211398867989
 30
0.0
  0
VERTEX
  5
D7
  8
0
 10
11.115492125984209
 20
-1.1162211398867989
 30
0.0
 42
-0.4142135623730951
  0
VERTEX
  5
D8
  8
0
 10
11.095807086614141
 20
-1.09653610051672
 30
0.0
  0
VERTEX
  5
D9
  8
0
 10
11.095807086614141
 20
-0.604095155634831
 30
0.0
 42
-0.4142135623730951
  0
VERTEX
  5
DA
  8
0
 10
11.115492125984209
 20
-0.5844101162647523
 30
0.0
  0
VERTEX
  5
DB
  8
0
 10
11.647303149606261
 20
-0.5844101162647523
 30
0.0
 42
-0.4142135623730951
  0
SEQEND
  5
D5
  8
0
  0
POLYLINE
  5
DC
  8
0
 66
     1
 10
0.0
 20
0.0
 30
0.0
 70
     1
  0
VERTEX
  5
DD
  8
0
 10
10.79084645669287
 20
-0.6685680943429206
 30
0.0
  0
VERTEX
  5
DE
  8
0
 10
10.51949037977171
 20
-0.8252355983995967
 30
0.0
 42
-0.4221594671801909
  0
VERTEX
  5
E0
  8
0
 10
10.49234012037109
 20
-0.8175656429326094
 30
0.0
  0
VERTEX
  5
E1
  8
0
 10
10.336021705479631
 20
-0.5290628280720752
 30
0.0
 42
-0.5683676721743998
  0
VERTEX
  5
E2
  8
0
 10
10.353329445195209
 20
-0.5000000000000002
 30
0.0
  0
VERTEX
  5
E3
  8
0
 10
10.750487538968541
 20
-0.5
 30
0.0
 42
-0.1654592696411743
  0
VERTEX
  5
E4
  8
0
 10
10.762492825690529
 20
-0.5040845949621589
 30
0.0
  0
VERTEX
  5
E5
  8
0
 10
10.783166704044779
 20
-0.5199941313066577
 30
0.0
 42
-0.2327992835986902
  0
VERTEX
  5
E6
  8
0
 10
10.79084645669287
 20
-0.535594575714577
 30
0.0
  0
SEQEND
  5
DF
  8
0
  0
POLYLINE
  5
E7
  8
0
 66
     1
 10
0.0
 20
0.0
 30
0.0
 70
     1
  0
VERTEX
  5
E8
  8
0
 10
10.711618147273141
 20
-1.20063125615155
 30
0.0
 42
-0.2752111864351023
  0
VERTEX
  5
E9
  8
0
 10
10.694310407557561
 20
-1.1903240054834689
 30
0.0
  0
VERTEX
  5
EB
  8
0
 10
10.549227846242459
 20
-0.9225581932748189
 30
0.0
 42
-0.4063120530115375
  0
VERTEX
  5
EC
  8
0
 10
10.556693066273009
 20
-0.8961326604038372
 30
0.0
  0
VERTEX
  5
ED
  8
0
 10
10.761318897637761
 20
-0.7779918815822473
 30
0.0
 42
-0.5773502691896156
  0
VERTEX
  5
EE
  8
0
 10
10.79084645669287
 20
-0.7950396257512323
 30
0.0
  0
VERTEX
  5
EF
  8
0
 10
10.79084645669287
 20
-1.1809462167814719
 30
0.0
 42
-0.4142135623730951
  0
VERTEX
  5
F0
  8
0
 10
10.7711614173228
 20
-1.20063125615155
 30
0.0
  0
SEQEND
  5
EA
  8
0
  0
POLYLINE
  5
F1
  8
0
 66
     1
 10
0.0
 20
0.0
 30
0.0
 70
     1
  0
VERTEX
  5
F2
  8
0
 10
11.9719488188976
 20
-1.0863326246805289
 30
0.0
 42
-0.2586175843558774
  0
VERTEX
  5
F3
  8
0
 10
11.98120237668828
 20
-1.0696387645199701
 30
0.0
  0
VERTEX
  5
F5
  8
0
 10
12.88802807325834
 20
-0.5029911792095195
 30
0.0
 42
-0.1405408347023836
  0
VERTEX
  5
F6
  8
0
 10
12.89845955483773
 20
-0.4999999999999997
 30
0.0
  0
VERTEX
  5
F7
  8
0
 10
12.93790089642229
 20
-0.4999999999999995
 30
0.0
 42
-0.2679491924311402
  0
VERTEX
  5
F8
  8
0
 10
12.954948640591271
 20
-0.5098425196850398
 30
0.0
  0
VERTEX
  5
F9
  8
0
 10
13.22849669136612
 20
-0.9836416419385005
 30
0.0
 42
-0.3639702342661693
  0
VERTEX
  5
FA
  8
0
 10
13.22410224660041
 20
-1.0085637766455671
 30
0.0
  0
VERTEX
  5
FB
  8
0
 10
13.00069366889085
 20
-1.196025831803498
 30
0.0
 42
-0.1763269807084498
  0
VERTEX
  5
FC
  8
0
 10
12.98804036948758
 20
-1.20063125615155
 30
0.0
  0
VERTEX
  5
FD
  8
0
 10
11.991633858267679
 20
-1.2006312561515511
 30
0.0
 42
-0.4142135623730951
  0
VERTEX
  5
FE
  8
0
 10
11.9719488188976
 20
-1.1809462167814719
 30
0.0
  0
SEQEND
  5
F4
  8
0
  0
POLYLINE
  5
FF
  8
0
 66
     1
 10
0.0
 20
0.0
 30
0.0
 70
     1
  0
VERTEX
  5
100
  8
0
 10
0.9374999999999959
 20
-1.1528636107996071
 30
0.0
  0
VERTEX
  5
101
  8
0
 10
0.9374999999999959
 20
-1.0146474247065069
 30
0.0
 42
-0.5910457142229859
  0
VERTEX
  5
103
  8
0
 10
0.967715433213587
 20
-0.9980157807558311
 30
0.0
  0
VERTEX
  5
104
  8
0
 10
1.639932038740546
 20
-1.4236324922090491
 30
0.0
 42
-0.5242321093711287
  0
VERTEX
  5
105
  8
0
 10
1.6412483973212859
 20
-1.4559853076173499
 30
0.0
  0
VERTEX
  5
106
  8
0
 10
1.2514071010864809
 20
-1.74975179529241
 30
0.0
 42
-0.4720893026589142
  0
VERTEX
  5
107
  8
0
 10
1.2218546230224709
 20
-1.7426334172515321
 30
0.0
  0
VERTEX
  5
108
  8
0
 10
0.9394793137303178
 20
-1.1614664042163521
 30
0.0
 42
-0.1135555995670824
  0
SEQEND
  5
102
  8
0
  0
POLYLINE
  5
109
  8
0
 66
     1
 10
0.0
 20
0.0
 30
0.0
 70
     1
  0
VERTEX
  5
10A
  8
0
 10
1.9020194644169801
 20
-3.3752475955809511
 30
0.0
  0
VERTEX
  5
10B
  8
0
 10
1.8323600973795611
 20
-3.4006015317203961
 30
0.0
 42
-0.7570773056482137
  0
VERTEX
  5
10D
  8
0
 10
1.8102247714892341
 20
-3.3698456165168831
 30
0.0
  0
VERTEX
  5
10E
  8
0
 10
1.86112647111243
 20
-3.3058858349515141
 30
0.0
 42
-0.5518693018061917
  0
VERTEX
  5
10F
  8
0
 10
1.8942348426557909
 20
-3.3095410705023371
 30
0.0
  0
VERTEX
  5
110
  8
0
 10
1.9129925100700129
 20
-3.3481469159282602
 30
0.0
 42
-0.4447792389720398
  0
SEQEND
  5
10C
  8
0
  0
POLYLINE
  5
111
  8
0
 66
     1
 10
0.0
 20
0.0
 30
0.0
 70
     1
  0
VERTEX
  5
112
  8
0
 10
1.737409981596048
 20
-3.030178103652299
 30
0.0
  0
VERTEX
  5
113
  8
0
 10
0.9664266055666479
 20
-3.4401172363413401
 30
0.0
 42
-0.5657727781877799
  0
VERTEX
  5
115
  8
0
 10
0.9374999999999962
 20
-3.422736378214196
 30
0.0
  0
VERTEX
  5
116
  8
0
 10
0.9374999999999959
 20
-2.0962832139083858
 30
0.0
 42
-0.2354687434833274
  0
VERTEX
  5
117
  8
0
 10
0.9453382869458222
 20
-2.080562042450762
 30
0.0
  0
VERTEX
  5
118
  8
0
 10
1.183726949827828
 20
-1.900923300037437
 30
0.0
 42
-0.4720893026589163
  0
VERTEX
  5
119
  8
0
 10
1.2132794278918371
 20
-1.908041678078316
 30
0.0
  0
VERTEX
  5
11A
  8
0
 10
1.7458741410392331
 20
-3.0041944521084099
 30
0.0
 42
-0.403589897757271
  0
SEQEND
  5
114
  8
0
  0
POLYLINE
  5
11B
  8
0
 66
     1
 10
0.0
 20
0.0
 30
0.0
 70
     1
  0
VERTEX
  5
11C
  8
0
 10
1.8765961947653911
 20
-3.046777085408038
 30
0.0
  0
VERTEX
  5
11D
  8
0
 10
1.946397969721182
 20
-3.0096628233173321
 30
0.0
 42
-0.8135053022293179
  0
VERTEX
  5
11F
  8
0
 10
1.971042181821357
 20
-3.0393017104120452
 30
0.0
  0
VERTEX
  5
120
  8
0
 10
1.91650409806869
 20
-3.107830736940361
 30
0.0
 42
-0.5518693018061911
  0
VERTEX
  5
121
  8
0
 10
1.88339572652533
 20
-3.104175501389538
 30
0.0
  0
VERTEX
  5
122
  8
0
 10
1.868132035322206
 20
-3.0727607369519272
 30
0.0
 42
-0.4035898977572686
  0
SEQEND
  5
11E
  8
0
  0
POLYLINE
  5
123
  8
0
 66
     1
 10
0.0
 20
0.0
 30
0.0
 70
     1
  0
VERTEX
  5
124
  8
0
 10
11.02878822553336
 20
-3.4760656619094039
 30
0.0
  0
VERTEX
  5
125
  8
0
 10
10.46199011742344
 20
-3.4760656619094039
 30
0.0
 42
-0.700207538209734
  0
VERTEX
  5
127
  8
0
 10
10.44933681802017
 20
-3.4413010075172981
 30
0.0
  0
VERTEX
  5
128
  8
0
 10
10.72668558328037
 20
-3.208577760879987
 30
0.0
 42
-0.3580518373948594
  0
VERTEX
  5
129
  8
0
 10
10.7516736033798
 20
-3.2083160773797421
 30
0.0
  0
VERTEX
  5
12A
  8
0
 10
11.04112294622951
 20
-3.441039324017054
 30
0.0
 42
-0.708039467128017
  0
SEQEND
  5
126
  8
0
  0
POLYLINE
  5
12B
  8
0
 66
     1
 10
0.0
 20
0.0
 30
0.0
 70
     1
  0
VERTEX
  5
12C
  8
0
 10
8.1040309082876334
 20
-1.11790003743368
 30
0.0
  0
VERTEX
  5
12D
  8
0
 10
7.1075274219176077
 20
-1.4805976448148661
 30
0.0
 42
-0.2995388340525214
  0
VERTEX
  5
12F
  8
0
 10
7.0864685065439286
 20
-1.4756001198570201
 30
0.0
  0
VERTEX
  5
130
  8
0
 10
7.0432179970574778
 20
-1.429703794066556
 30
0.0
 42
-0.3623843169388939
  0
VERTEX
  5
131
  8
0
 10
7.0416955632025262
 20
-1.404527797548254
 30
0.0
  0
VERTEX
  5
132
  8
0
 10
7.5750380954816343
 20
-0.680561245593559
 30
0.0
 42
-0.4266450260029126
  0
VERTEX
  5
133
  8
0
 10
7.603221485419688
 20
-0.6768955823114889
 30
0.0
  0
VERTEX
  5
134
  8
0
 10
8.1096329489970582
 20
-1.084060852675464
 30
0.0
 42
-0.584352818891013
  0
SEQEND
  5
12E
  8
0
  0
POLYLINE
  5
135
  8
0
 66
     1
 10
0.0
 20
0.0
 30
0.0
 70
     1
  0
VERTEX
  5
136
  8
0
 10
8.3304642978075432
 20
-1.120619245402501
 30
0.0
  0
VERTEX
  5
137
  8
0
 10
8.4295688210354864
 20
-1.0845481488663871
 30
0.0
 42
-0.6982658718235567
  0
VERTEX
  5
139
  8
0
 10
8.4534003542355318
 20
-1.112799495708231
 30
0.0
  0
VERTEX
  5
13A
  8
0
 10
8.4081334661673228
 20
-1.1921571622613729
 30
0.0
 42
-0.4615295050274912
  0
VERTEX
  5
13B
  8
0
 10
8.3786998922578508
 20
-1.197745000177747
 30
0.0
  0
VERTEX
  5
13C
  8
0
 10
8.3248622570981201
 20
-1.1544584301607159
 30
0.0
 42
-0.5843528188910101
  0
SEQEND
  5
138
  8
0
  0
POLYLINE
  5
13D
  8
0
 66
     1
 10
0.0
 20
0.0
 30
0.0
 70
     1
  0
VERTEX
  5
13E
  8
0
 10
7.5136226809992612
 20
-0.6290479406001194
 30
0.0
  0
VERTEX
  5
13F
  8
0
 10
6.9901802544215483
 20
-1.3395759517394079
 30
0.0
 42
-0.4680145500307759
  0
VERTEX
  5
141
  8
0
 10
6.9600053497926897
 20
-1.3414006777773011
 30
0.0
  0
VERTEX
  5
142
  8
0
 10
6.3514596286221217
 20
-0.695627645069181
 30
0.0
 42
-0.4947738131882284
  0
VERTEX
  5
143
  8
0
 10
6.3565442978125031
 20
-0.6647464256639389
 30
0.0
  0
VERTEX
  5
144
  8
0
 10
6.6620537259853396
 20
-0.5023041812429357
 30
0.0
 42
-0.1227845609028909
  0
VERTEX
  5
145
  8
0
 10
6.6712952921819122
 20
-0.5000000000000011
 30
0.0
  0
VERTEX
  5
146
  8
0
 10
7.376275556600409
 20
-0.5000000000000009
 30
0.0
 42
-0.1709331303467443
  0
VERTEX
  5
147
  8
0
 10
7.3886102772965589
 20
-0.5043437408478068
 30
0.0
  0
VERTEX
  5
148
  8
0
 10
7.5101087324535101
 20
-0.6020310068376431
 30
0.0
 42
-0.4018904237191301
  0
SEQEND
  5
140
  8
0
  0
POLYLINE
  5
149
  8
0
 66
     1
 10
0.0
 20
0.0
 30
0.0
 70
     1
  0
VERTEX
  5
14A
  8
0
 10
7.9571449830496537
 20
-1.9827879122398411
 30
0.0
  0
VERTEX
  5
14B
  8
0
 10
7.822241144050242
 20
-2.2192886819840001
 30
0.0
 42
-0.5040353114631455
  0
VERTEX
  5
14D
  8
0
 10
7.7908160554499677
 20
-2.2230355826562
 30
0.0
  0
VERTEX
  5
14E
  8
0
 10
7.4303934631682607
 20
-1.8405644184081431
 30
0.0
 42
-0.7653877309763728
  0
VERTEX
  5
14F
  8
0
 10
7.4502841927162997
 20
-1.8081818649974359
 30
0.0
  0
VERTEX
  5
150
  8
0
 10
7.9456106239974194
 20
-1.954152259501331
 30
0.0
 42
-0.4838556856876341
  0
SEQEND
  5
14C
  8
0
  0
POLYLINE
  5
151
  8
0
 66
     1
 10
0.0
 20
0.0
 30
0.0
 70
     1
  0
VERTEX
  5
152
  8
0
 10
8.4376857892886807
 20
-1.347822108132513
 30
0.0
  0
VERTEX
  5
153
  8
0
 10
8.9070700478419571
 20
-1.725216741319447
 30
0.0
 42
-0.5272401887531875
  0
VERTEX
  5
155
  8
0
 10
8.9045778468308452
 20
-1.7576057840107051
 30
0.0
  0
VERTEX
  5
156
  8
0
 10
8.4580721556949268
 20
-2.0153959649827291
 30
0.0
 42
-0.2053614654378889
  0
VERTEX
  5
157
  8
0
 10
8.442665141848801
 20
-2.0172304129463541
 30
0.0
  0
VERTEX
  5
158
  8
0
 10
8.1129001099024904
 20
-1.920050192455609
 30
0.0
 42
-0.4838556856876184
  0
VERTEX
  5
159
  8
0
 10
8.1013657508502543
 20
-1.8914145397171001
 30
0.0
  0
VERTEX
  5
15A
  8
0
 10
8.4082522153792052
 20
-1.3534099460488851
 30
0.0
 42
-0.4615295050274895
  0
SEQEND
  5
154
  8
0
  0
POLYLINE
  5
15B
  8
0
 66
     1
 10
0.0
 20
0.0
 30
0.0
 70
     1
  0
VERTEX
  5
15C
  8
0
 10
5.0358069747730001
 20
-2.319776443094244
 30
0.0
  0
VERTEX
  5
15D
  8
0
 10
5.5834940802973172
 20
-2.120434638991981
 30
0.0
 42
-0.4091108014276993
  0
VERTEX
  5
15F
  8
0
 10
5.608604327734775
 20
-2.1318780380321489
 30
0.0
  0
VERTEX
  5
160
  8
0
 10
5.8819336499707751
 20
-2.8439252664493209
 30
0.0
 42
-0.0977194389395691
  0
VERTEX
  5
161
  8
0
 10
5.87472022148705
 20
-2.8414643291032302
 30
0.0
  0
VERTEX
  5
162
  8
0
 10
5.0326971350746854
 20
-2.3553220734991731
 30
0.0
 42
-0.6370702608074997
  0
SEQEND
  5
15E
  8
0
  0
POLYLINE
  5
163
  8
0
 66
     1
 10
0.0
 20
0.0
 30
0.0
 70
     1
  0
VERTEX
  5
164
  8
0
 10
4.6812107519409167
 20
-2.261387194621999
 30
0.0
  0
VERTEX
  5
165
  8
0
 10
4.6548007292793141
 20
-2.364205610420536
 30
0.0
 42
-0.247448981027679
  0
VERTEX
  5
167
  8
0
 10
4.6424672914405001
 20
-2.3778061579848941
 30
0.0
  0
VERTEX
  5
168
  8
0
 10
3.787802846398828
 20
-2.6888785762657061
 30
0.0
  0
VERTEX
  5
169
  8
0
 10
3.2512757366586831
 20
-2.3491742277334491
 30
0.0
 42
-0.5753732574251885
  0
VERTEX
  5
16A
  8
0
 10
3.2525645643056231
 20
-2.3151617256556292
 30
0.0
  0
VERTEX
  5
16B
  8
0
 10
4.0501217554750628
 20
-1.8910930448214009
 30
0.0
 42
-0.2586175843558793
  0
VERTEX
  5
16C
  8
0
 10
4.0692058413566743
 20
-1.8914261587795591
 30
0.0
  0
VERTEX
  5
16D
  8
0
 10
4.6719871538004174
 20
-2.2394421117814289
 30
0.0
 42
-0.3365644556519334
  0
SEQEND
  5
166
  8
0
  0
POLYLINE
  5
16E
  8
0
 66
     1
 10
0.0
 20
0.0
 30
0.0
 70
     1
  0
VERTEX
  5
16F
  8
0
 10
3.9467043481355462
 20
-1.855475451646676
 30
0.0
  0
VERTEX
  5
170
  8
0
 10
3.1549869132196391
 20
-2.276439079002297
 30
0.0
 42
-0.2695404029320713
  0
VERTEX
  5
172
  8
0
 10
3.1352149531795539
 20
-2.275689864825829
 30
0.0
  0
VERTEX
  5
173
  8
0
 10
2.8517136898918012
 20
-2.0961898727380448
 30
0.0
 42
-0.4461388888463462
  0
VERTEX
  5
174
  8
0
 10
2.8468414378317091
 20
-2.0673001998198002
 30
0.0
  0
VERTEX
  5
175
  8
0
 10
3.3170133298894329
 20
-1.4765126281512839
 30
0.0
 42
-0.3713298189482926
  0
VERTEX
  5
176
  8
0
 10
3.3422584954780761
 20
-1.4717229129498679
 30
0.0
  0
VERTEX
  5
177
  8
0
 10
3.9473053016240129
 20
-1.8210468493505469
 30
0.0
 42
-0.5890450164205517
  0
SEQEND
  5
171
  8
0
  0
POLYLINE
  5
178
  8
0
 66
     1
 10
0.0
 20
0.0
 30
0.0
 70
     1
  0
VERTEX
  5
179
  8
0
 10
3.2432891162672211
 20
-1.440678547988488
 30
0.0
  0
VERTEX
  5
17A
  8
0
 10
2.7762040535231161
 20
-2.0275874097103781
 30
0.0
 42
-0.3829930274508398
  0
VERTEX
  5
17C
  8
0
 10
2.750271013776
 20
-2.0319610246934858
 30
0.0
  0
VERTEX
  5
17D
  8
0
 10
1.8285424078012471
 20
-1.4483647628608829
 30
0.0
 42
-0.5242321093711301
  0
VERTEX
  5
17E
  8
0
 10
1.8272260492205059
 20
-1.416011947452583
 30
0.0
  0
VERTEX
  5
17F
  8
0
 10
2.4321865514197989
 20
-0.9601415108680861
 30
0.0
 42
-0.3009658391327242
  0
VERTEX
  5
180
  8
0
 10
2.4538758235290921
 20
-0.958814938156725
 30
0.0
  0
VERTEX
  5
181
  8
0
 10
3.2377289900486561
 20
-1.411372774851934
 30
0.0
 42
-0.4584383511282998
  0
SEQEND
  5
17B
  8
0
  0
POLYLINE
  5
182
  8
0
 66
     1
 10
0.0
 20
0.0
 30
0.0
 70
     1
  0
VERTEX
  5
183
  8
0
 10
2.3435748139298238
 20
-0.9267443918878047
 30
0.0
  0
VERTEX
  5
184
  8
0
 10
1.743133694268385
 20
-1.379209229456938
 30
0.0
 42
-0.312136116083507
  0
VERTEX
  5
186
  8
0
 10
1.7207565480006199
 20
-1.3801197019499909
 30
0.0
  0
VERTEX
  5
187
  8
0
 10
0.9466546455265628
 20
-0.889993895250509
 30
0.0
 42
-0.2570349061131365
  0
VERTEX
  5
188
  8
0
 10
0.9374999999999962
 20
-0.8733622512998326
 30
0.0
  0
VERTEX
  5
189
  8
0
 10
0.9374999999999959
 20
-0.5196850393700815
 30
0.0
 42
-0.4142135623730977
  0
VERTEX
  5
18A
  8
0
 10
0.9571850393700749
 20
-0.5000000000000026
 30
0.0
  0
VERTEX
  5
18B
  8
0
 10
1.6539104489678871
 20
-0.5000000000000023
 30
0.0
 42
-0.131652497587398
  0
VERTEX
  5
18C
  8
0
 10
1.6637529686529271
 20
-0.5026372952010961
 30
0.0
  0
VERTEX
  5
18D
  8
0
 10
2.3415705811906098
 20
-0.8939754762611958
 30
0.0
 42
-0.5373193821394047
  0
SEQEND
  5
185
  8
0
  0
POLYLINE
  5
18E
  8
0
 66
     1
 10
0.0
 20
0.0
 30
0.0
 70
     1
  0
VERTEX
  5
18F
  8
0
 10
6.7404164053801461
 20
-3.4760656619094039
 30
0.0
  0
VERTEX
  5
190
  8
0
 10
6.2238103651003067
 20
-3.4760656619094048
 30
0.0
 42
-0.3105082534628287
  0
VERTEX
  5
192
  8
0
 10
6.2054327976495749
 20
-3.4634351097351002
 30
0.0
  0
VERTEX
  5
193
  8
0
 10
6.1941437709255771
 20
-3.434026189665377
 30
0.0
 42
-0.3689194771098272
  0
VERTEX
  5
194
  8
0
 10
6.20267881869127
 20
-3.4099239583006189
 30
0.0
  0
VERTEX
  5
195
  8
0
 10
6.441157480314943
 20
-3.2722382388162101
 30
0.0
 42
-0.2679491924311108
  0
VERTEX
  5
196
  8
0
 10
6.4608425196850199
 20
-3.2722382388162088
 30
0.0
  0
VERTEX
  5
197
  8
0
 10
6.7502589250651841
 20
-3.4393328783703412
 30
0.0
 42
-0.7673269879789693
  0
SEQEND
  5
191
  8
0
  0
POLYLINE
  5
198
  8
0
 66
     1
 10
0.0
 20
0.0
 30
0.0
 70
     1
  0
VERTEX
  5
199
  8
0
 10
6.3414724409448633
 20
-3.2374153800603618
 30
0.0
  0
VERTEX
  5
19A
  8
0
 10
6.1790522094400888
 20
-3.3311887444414849
 30
0.0
 42
-0.4610063144273182
  0
VERTEX
  5
19C
  8
0
 10
6.1508321223043181
 20
-3.321195487468275
 30
0.0
  0
VERTEX
  5
19D
  8
0
 10
6.0583415465072452
 20
-3.0802492998720861
 30
0.0
 42
-0.7067301270542905
  0
VERTEX
  5
19E
  8
0
 10
6.0865616336430159
 20
-3.0561470685073271
 30
0.0
  0
VERTEX
  5
19F
  8
0
 10
6.3414724409448633
 20
-3.2033198917223928
 30
0.0
 42
-0.577350269189626
  0
SEQEND
  5
19B
  8
0
  0
POLYLINE
  5
1A0
  8
0
 66
     1
 10
0.0
 20
0.0
 30
0.0
 70
     1
  0
VERTEX
  5
1A1
  8
0
 10
6.0743860750009251
 20
-3.3916177653349751
 30
0.0
  0
VERTEX
  5
1A2
  8
0
 10
5.9326859568245434
 20
-3.473428366708311
 30
0.0
 42
-0.131652497587398
  0
VERTEX
  5
1A4
  8
0
 10
5.9228434371395027
 20
-3.4760656619094048
 30
0.0
  0
VERTEX
  5
1A5
  8
0
 10
5.5545559165589538
 20
-3.4760656619094048
 30
0.0
 42
-0.6150771314502681
  0
VERTEX
  5
1A6
  8
0
 10
5.5387072473170491
 20
-3.4447049872991231
 30
0.0
  0
VERTEX
  5
1A7
  8
0
 10
5.8925782219710197
 20
-2.9643556173317318
 30
0.0
 42
-0.3819684200358947
  0
VERTEX
  5
1A8
  8
0
 10
5.9182694108979623
 20
-2.9589835084029499
 30
0.0
  0
VERTEX
  5
1A9
  8
0
 10
5.9222931273130843
 20
-2.9613066021583641
 30
0.0
 42
-0.1718314268301352
  0
VERTEX
  5
1AA
  8
0
 10
5.9308281750787781
 20
-2.9712998591315758
 30
0.0
  0
VERTEX
  5
1AB
  8
0
 10
6.082921122766618
 20
-3.3675155339702161
 30
0.0
 42
-0.368919477109841
  0
SEQEND
  5
1A3
  8
0
  0
POLYLINE
  5
1AC
  8
0
 66
     1
 10
0.0
 20
0.0
 30
0.0
 70
     1
  0
VERTEX
  5
1AD
  8
0
 10
6.969314043175423
 20
-3.473428366708311
 30
0.0
  0
VERTEX
  5
1AE
  8
0
 10
6.5605275590551013
 20
-3.2374153800603631
 30
0.0
 42
-0.5773502691895996
  0
VERTEX
  5
1B0
  8
0
 10
6.5605275590551013
 20
-3.203319891722392
 30
0.0
  0
VERTEX
  5
1B1
  8
0
 10
7.5418999686186128
 20
-2.636724266885627
 30
0.0
 42
-0.7652571689985035
  0
VERTEX
  5
1B2
  8
0
 10
7.5688413415169737
 20
-2.663525471660511
 30
0.0
  0
VERTEX
  5
1B3
  8
0
 10
7.1110204937438191
 20
-3.4661340831452261
 30
0.0
 42
-0.2693473761970464
  0
VERTEX
  5
1B4
  8
0
 10
7.093921640530497
 20
-3.4760656619094039
 30
0.0
  0
VERTEX
  5
1B5
  8
0
 10
6.9791565628604619
 20
-3.4760656619094039
 30
0.0
 42
-0.1316524975873856
  0
SEQEND
  5
1AF
  8
0
  0
POLYLINE
  5
1B6
  8
0
 66
     1
 10
0.0
 20
0.0
 30
0.0
 70
     1
  0
VERTEX
  5
1B7
  8
0
 10
4.0519027459487758
 20
-1.7890601689176551
 30
0.0
  0
VERTEX
  5
1B8
  8
0
 10
3.3977344681937249
 20
-1.411375937660464
 30
0.0
 42
-0.4584383511282769
  0
VERTEX
  5
1BA
  8
0
 10
3.39217434197516
 20
-1.3820701645239111
 30
0.0
  0
VERTEX
  5
1BB
  8
0
 10
3.8801683856777922
 20
-0.7688884304861354
 30
0.0
 42
-0.3052815400979781
  0
VERTEX
  5
1BC
  8
0
 10
3.9011355257424811
 20
-0.7622642673210934
 30
0.0
  0
VERTEX
  5
1BD
  8
0
 10
4.9660570739118883
 20
-1.0760916923990109
 30
0.0
 42
-0.403953214621162
  0
VERTEX
  5
1BE
  8
0
 10
4.9795586975763406
 20
-1.099871223203206
 30
0.0
  0
VERTEX
  5
1BF
  8
0
 10
4.9203086281647579
 20
-1.3305411605565689
 30
0.0
 42
-0.2107074653966711
  0
VERTEX
  5
1C0
  8
0
 10
4.9104840765357913
 20
-1.343024680012127
 30
0.0
  0
VERTEX
  5
1C1
  8
0
 10
4.070986831830389
 20
-1.7893932828758139
 30
0.0
 42
-0.2586175843558982
  0
SEQEND
  5
1B9
  8
0
  0
POLYLINE
  5
1C2
  8
0
 66
     1
 10
0.0
 20
0.0
 30
0.0
 70
     1
  0
VERTEX
  5
1C3
  8
0
 10
5.0857147020415514
 20
-1.008152073367385
 30
0.0
  0
VERTEX
  5
1C4
  8
0
 10
5.1070661182412662
 20
-0.9250276165337432
 30
0.0
 42
-0.7305125245817004
  0
VERTEX
  5
1C6
  8
0
 10
5.1445098035175372
 20
-0.9228704680095539
 30
0.0
  0
VERTEX
  5
1C7
  8
0
 10
5.1832117005794247
 20
-1.023692356828382
 30
0.0
 42
-0.6213560207375907
  0
VERTEX
  5
1C8
  8
0
 10
5.159269638967606
 20
-1.0496290361567651
 30
0.0
  0
VERTEX
  5
1C9
  8
0
 10
5.0992163257060028
 20
-1.03193160417158
 30
0.0
 42
-0.403953214621135
  0
SEQEND
  5
1C5
  8
0
  0
POLYLINE
  5
1CA
  8
0
 66
     1
 10
0.0
 20
0.0
 30
0.0
 70
     1
  0
VERTEX
  5
1CB
  8
0
 10
3.2932049627643059
 20
-1.3510257995625301
 30
0.0
  0
VERTEX
  5
1CC
  8
0
 10
2.5377569776032689
 20
-0.9148677019710468
 30
0.0
 42
-0.5373193821394172
  0
VERTEX
  5
1CE
  8
0
 10
2.5357527448640549
 20
-0.8820987863444376
 30
0.0
  0
VERTEX
  5
1CF
  8
0
 10
3.0260124471283971
 20
-0.5126616021009531
 30
0.0
 42
-0.2374037856107324
  0
VERTEX
  5
1D0
  8
0
 10
3.043423693713736
 20
-0.5095005814259674
 30
0.0
  0
VERTEX
  5
1D1
  8
0
 10
3.7775593494612849
 20
-0.7258469431811442
 30
0.0
 42
-0.5322364858158457
  0
VERTEX
  5
1D2
  8
0
 10
3.7873975012038019
 20
-0.7569871642813231
 30
0.0
  0
VERTEX
  5
1D3
  8
0
 10
3.3184501283529482
 20
-1.3462360843611141
 30
0.0
 42
-0.3713298189482805
  0
SEQEND
  5
1CD
  8
0
  0
POLYLINE
  5
1D4
  8
0
 66
     1
 10
0.0
 20
0.0
 30
0.0
 70
     1
  0
VERTEX
  5
1D5
  8
0
 10
12.6399622903468
 20
-3.3720521833948318
 30
0.0
  0
VERTEX
  5
1D6
  8
0
 10
12.46916577958193
 20
-3.4733133879143212
 30
0.0
 42
-0.134595306066779
  0
VERTEX
  5
1D8
  8
0
 10
12.45912674418221
 20
-3.4760656619094039
 30
0.0
  0
VERTEX
  5
1D9
  8
0
 10
11.94450836939974
 20
-3.4760656619094039
 30
0.0
 42
-0.2752111864351086
  0
VERTEX
  5
1DA
  8
0
 10
11.927200629684171
 20
-3.465758411241322
 30
0.0
  0
VERTEX
  5
1DB
  8
0
 10
11.73167097886337
 20
-3.104886950961578
 30
0.0
 42
-0.6673584687497896
  0
VERTEX
  5
1DC
  8
0
 10
11.754543212740041
 20
-3.0766269701269722
 30
0.0
  0
VERTEX
  5
1DD
  8
0
 10
12.63548774910816
 20
-3.336237225887229
 30
0.0
 42
-0.6551129116257491
  0
SEQEND
  5
1D7
  8
0
  0
POLYLINE
  5
1DE
  8
0
 66
     1
 10
0.0
 20
0.0
 30
0.0
 70
     1
  0
VERTEX
  5
1DF
  8
0
 10
12.91644415697426
 20
-3.301135940816887
 30
0.0
  0
VERTEX
  5
1E0
  8
0
 10
13.302748308510781
 20
-3.0721053621458791
 30
0.0
 42
-0.2646966748746428
  0
VERTEX
  5
1E2
  8
0
 10
13.322222852672279
 20
-3.0717617867796201
 30
0.0
  0
VERTEX
  5
1E3
  8
0
 10
13.994824009950809
 20
-3.4391042817980688
 30
0.0
 42
-0.7767895504564092
  0
VERTEX
  5
1E4
  8
0
 10
13.98538850118903
 20
-3.4760656619094039
 30
0.0
  0
VERTEX
  5
1E5
  8
0
 10
13.3958218425905
 20
-3.4760656619094039
 30
0.0
 42
-0.0717686066929168
  0
VERTEX
  5
1E6
  8
0
 10
13.390257348429421
 20
-3.4752628146719351
 30
0.0
  0
VERTEX
  5
1E7
  8
0
 10
12.920918698212899
 20
-3.3369508983244929
 30
0.0
 42
-0.6551129116257491
  0
SEQEND
  5
1E1
  8
0
  0
POLYLINE
  5
1E8
  8
0
 66
     1
 10
0.0
 20
0.0
 30
0.0
 70
     1
  0
VERTEX
  5
1E9
  8
0
 10
6.7073073076811243
 20
-1.6262658535515651
 30
0.0
  0
VERTEX
  5
1EA
  8
0
 10
5.6663627825155407
 20
-2.0051386762342029
 30
0.0
 42
-0.4091108014276993
  0
VERTEX
  5
1EC
  8
0
 10
5.6412525350780838
 20
-1.9936952771940331
 30
0.0
  0
VERTEX
  5
1ED
  8
0
 10
5.3450767275834332
 20
-1.2221309198628629
 30
0.0
 42
-0.378866108695326
  0
VERTEX
  5
1EE
  8
0
 10
5.3542127288375934
 20
-1.1976955745399449
 30
0.0
  0
VERTEX
  5
1EF
  8
0
 10
5.3558482538133916
 20
-1.1968259504845951
 30
0.0
 42
-0.1962828269531194
  0
VERTEX
  5
1F0
  8
0
 10
5.370654314171051
 20
-1.1953246164791289
 30
0.0
  0
VERTEX
  5
1F1
  8
0
 10
6.7061391218554851
 20
-1.588885775183011
 30
0.0
 42
-0.7237462908480682
  0
SEQEND
  5
1EB
  8
0
  0
POLYLINE
  5
1F2
  8
0
 66
     1
 10
0.0
 20
0.0
 30
0.0
 70
     1
  0
VERTEX
  5
1F3
  8
0
 10
10.725386505220181
 20
-3.0845294787055519
 30
0.0
  0
VERTEX
  5
1F4
  8
0
 10
10.578093938304621
 20
-2.966103214404344
 30
0.0
 42
-0.5987495405155858
  0
VERTEX
  5
1F6
  8
0
 10
10.58449096794873
 20
-2.9319937353636498
 30
0.0
  0
VERTEX
  5
1F7
  8
0
 10
10.906342036405089
 20
-2.8301696822868241
 30
0.0
 42
-0.1493431137466126
  0
VERTEX
  5
1F8
  8
0
 10
10.917844221618219
 20
-2.8300556706726359
 30
0.0
  0
VERTEX
  5
1F9
  8
0
 10
10.98291625363608
 20
-2.8492320957227801
 30
0.0
 42
-0.5983691355677628
  0
VERTEX
  5
1FA
  8
0
 10
10.990005058878269
 20
-2.8831939028774158
 30
0.0
  0
VERTEX
  5
1FB
  8
0
 10
10.750374525319611
 20
-3.084267795205307
 30
0.0
 42
-0.3580518373948594
  0
SEQEND
  5
1F5
  8
0
  0
POLYLINE
  5
1FC
  8
0
 66
     1
 10
0.0
 20
0.0
 30
0.0
 70
     1
  0
VERTEX
  5
1FD
  8
0
 10
4.8977473660771844
 20
-2.2774087880413871
 30
0.0
  0
VERTEX
  5
1FE
  8
0
 10
4.7904629468392024
 20
-2.215468099714486
 30
0.0
 42
-0.3365644556519334
  0
VERTEX
  5
200
  8
0
 10
4.781239348698703
 20
-2.1935230168739159
 30
0.0
  0
VERTEX
  5
201
  8
0
 10
4.9846969279011191
 20
-1.401430323738406
 30
0.0
 42
-0.2107074653966781
  0
VERTEX
  5
202
  8
0
 10
4.9945214795300856
 20
-1.388946804282847
 30
0.0
  0
VERTEX
  5
203
  8
0
 10
5.248023688147935
 20
-1.2541572890137209
 30
0.0
 42
-0.4504671536907945
  0
VERTEX
  5
204
  8
0
 10
5.2756428217952402
 20
-1.264483659945091
 30
0.0
  0
VERTEX
  5
205
  8
0
 10
5.5658194010280324
 20
-2.0204194933346891
 30
0.0
 42
-0.4193348017583976
  0
VERTEX
  5
206
  8
0
 10
5.5541745135640239
 20
-2.045971866766406
 30
0.0
  0
VERTEX
  5
207
  8
0
 10
4.9143225657489484
 20
-2.2788589301083459
 30
0.0
 42
-0.221694662642923
  0
SEQEND
  5
1FF
  8
0
  0
POLYLINE
  5
208
  8
0
 66
     1
 10
0.0
 20
0.0
 30
0.0
 70
     1
  0
VERTEX
  5
209
  8
0
 10
5.6956823492488331
 20
-2.0796014484597771
 30
0.0
  0
VERTEX
  5
20A
  8
0
 10
6.6583118559560077
 20
-1.7292329613920081
 30
0.0
 42
-0.7425226276997066
  0
VERTEX
  5
20C
  8
0
 10
6.6808932051846366
 20
-1.759406482868155
 30
0.0
  0
VERTEX
  5
20D
  8
0
 10
5.9596056417800156
 20
-2.7384922272853589
 30
0.0
 42
-0.5927013105502912
  0
VERTEX
  5
20E
  8
0
 10
5.92537940508738
 20
-2.7338710792409291
 30
0.0
  0
VERTEX
  5
20F
  8
0
 10
5.6840374617848273
 20
-2.105153821891494
 30
0.0
 42
-0.4193348017583976
  0
SEQEND
  5
20B
  8
0
  0
POLYLINE
  5
210
  8
0
 66
     1
 10
0.0
 20
0.0
 30
0.0
 70
     1
  0
VERTEX
  5
211
  8
0
 10
5.0965185488742737
 20
-0.5000000000000016
 30
0.0
  0
VERTEX
  5
212
  8
0
 10
5.1082617446390559
 20
-0.5000000000000016
 30
0.0
 42
-0.4899253244816308
  0
VERTEX
  5
214
  8
0
 10
5.127327862464595
 20
-0.5245823780416651
 30
0.0
  0
VERTEX
  5
215
  8
0
 10
5.1226201211079996
 20
-0.5429103633855847
 30
0.0
 42
-0.7305125245816986
  0
VERTEX
  5
216
  8
0
 10
5.0851764358317286
 20
-0.5450675119097739
 30
0.0
  0
VERTEX
  5
217
  8
0
 10
5.078140981423541
 20
-0.5267395265658543
 30
0.0
 42
-0.5261254514920422
  0
SEQEND
  5
213
  8
0
  0
POLYLINE
  5
218
  8
0
 66
     1
 10
0.0
 20
0.0
 30
0.0
 70
     1
  0
VERTEX
  5
219
  8
0
 10
11.20695678071136
 20
-3.4717219210615982
 30
0.0
  0
VERTEX
  5
21A
  8
0
 10
10.820222271903051
 20
-3.1607793927750998
 30
0.0
 42
-0.4726978344483445
  0
VERTEX
  5
21C
  8
0
 10
10.81990369319592
 20
-3.1303584792308001
 30
0.0
  0
VERTEX
  5
21D
  8
0
 10
11.102136510095001
 20
-2.8935370266646658
 30
0.0
 42
-0.251275412853577
  0
VERTEX
  5
21E
  8
0
 10
11.12035430365936
 20
-2.8897344495540831
 30
0.0
  0
VERTEX
  5
21F
  8
0
 10
11.59297963853153
 20
-3.0290149365763308
 30
0.0
 42
-0.1995021091653036
  0
VERTEX
  5
220
  8
0
 10
11.604722884086019
 20
-3.0385193400069439
 30
0.0
  0
VERTEX
  5
221
  8
0
 10
11.82604998724014
 20
-3.447002833837328
 30
0.0
 42
-0.5683676721744213
  0
VERTEX
  5
222
  8
0
 10
11.80874224752456
 20
-3.4760656619094039
 30
0.0
  0
VERTEX
  5
223
  8
0
 10
11.219291501407509
 20
-3.4760656619094039
 30
0.0
 42
-0.1709331303467478
  0
SEQEND
  5
21B
  8
0
  0
POLYLINE
  5
224
  8
0
 66
     1
 10
0.0
 20
0.0
 30
0.0
 70
     1
  0
VERTEX
  5
225
  8
0
 10
10.416075019516891
 20
-0.8849424844810551
 30
0.0
  0
VERTEX
  5
226
  8
0
 10
9.9730766823919783
 20
-1.1407076936706839
 30
0.0
 42
-0.2616048749558694
  0
VERTEX
  5
228
  8
0
 10
9.9537986539451637
 20
-1.140936290242955
 30
0.0
  0
VERTEX
  5
229
  8
0
 10
9.3205079759071126
 20
-0.7950632937055933
 30
0.0
 42
-0.6454368201615979
  0
VERTEX
  5
22A
  8
0
 10
9.3232108046821622
 20
-0.7592890667283933
 30
0.0
  0
VERTEX
  5
22B
  8
0
 10
10.03233998420041
 20
-0.5011871531341358
 30
0.0
 42
-0.0874886635258977
  0
VERTEX
  5
22C
  8
0
 10
10.039072664187129
 20
-0.5000000000000006
 30
0.0
  0
VERTEX
  5
22D
  8
0
 10
10.21756332332003
 20
-0.5000000000000002
 30
0.0
 42
-0.2752111864351012
  0
VERTEX
  5
22E
  8
0
 10
10.234871063035611
 20
-0.510307250668082
 30
0.0
  0
VERTEX
  5
22F
  8
0
 10
10.423540239547441
 20
-0.8585169516100751
 30
0.0
 42
-0.4063120530115384
  0
SEQEND
  5
227
  8
0
  0
POLYLINE
  5
230
  8
0
 66
     1
 10
0.0
 20
0.0
 30
0.0
 70
     1
  0
VERTEX
  5
231
  8
0
 10
9.0476558184101901
 20
-0.7744486578369491
 30
0.0
  0
VERTEX
  5
232
  8
0
 10
8.7079118223399412
 20
-0.8981053596771722
 30
0.0
 42
-0.6982658718235663
  0
VERTEX
  5
234
  8
0
 10
8.6840802891398958
 20
-0.869854012835329
 30
0.0
  0
VERTEX
  5
235
  8
0
 10
8.8185621668633427
 20
-0.6340929860614812
 30
0.0
 42
-0.4088058313341037
  0
VERTEX
  5
236
  8
0
 10
8.8450965288384413
 20
-0.6265701059261236
 30
0.0
  0
VERTEX
  5
237
  8
0
 10
9.0503586471852397
 20
-0.7386744308597488
 30
0.0
 42
-0.6454368201615455
  0
SEQEND
  5
233
  8
0
  0
POLYLINE
  5
238
  8
0
 66
     1
 10
0.0
 20
0.0
 30
0.0
 70
     1
  0
VERTEX
  5
239
  8
0
 10
8.2183932030455562
 20
-1.1715063420245551
 30
0.0
  0
VERTEX
  5
23A
  8
0
 10
8.343470638803673
 20
-1.2720711822971831
 30
0.0
 42
-0.3684294385575058
  0
VERTEX
  5
23C
  8
0
 10
8.3482347713208451
 20
-1.297165941425354
 30
0.0
  0
VERTEX
  5
23D
  8
0
 10
8.0179152953463912
 20
-1.8762510950345579
 30
0.0
 42
-0.3478399680580801
  0
VERTEX
  5
23E
  8
0
 10
7.9952519479719824
 20
-1.8853798265612689
 30
0.0
  0
VERTEX
  5
23F
  8
0
 10
7.2767951584961459
 20
-1.67365395374131
 30
0.0
 42
-0.1328956041253769
  0
VERTEX
  5
240
  8
0
 10
7.2680334172702787
 20
-1.668272122886798
 30
0.0
  0
VERTEX
  5
241
  8
0
 10
7.1756040210969623
 20
-1.5701884302376901
 30
0.0
 42
-0.5390074906520248
  0
VERTEX
  5
242
  8
0
 10
7.1831975764971912
 20
-1.538190182723649
 30
0.0
  0
VERTEX
  5
243
  8
0
 10
8.1993258023626812
 20
-1.1683497543108849
 30
0.0
 42
-0.2623450888924406
  0
SEQEND
  5
23B
  8
0
  0
POLYLINE
  5
244
  8
0
 66
     1
 10
0.0
 20
0.0
 30
0.0
 70
     1
  0
VERTEX
  5
245
  8
0
 10
8.0632587859279266
 20
-1.988822625395672
 30
0.0
  0
VERTEX
  5
246
  8
0
 10
8.3110888138764327
 20
-2.0618569814585799
 30
0.0
 42
-0.6592533089428072
  0
VERTEX
  5
248
  8
0
 10
8.315366839400383
 20
-2.0977869177601738
 30
0.0
  0
VERTEX
  5
249
  8
0
 10
7.9126944584798116
 20
-2.3302699252798931
 30
0.0
 42
-0.3477476724646725
  0
VERTEX
  5
24A
  8
0
 10
7.8885257034078213
 20
-2.3267225423890072
 30
0.0
  0
VERTEX
  5
24B
  8
0
 10
7.8764223401590234
 20
-2.313878765300065
 30
0.0
 42
-0.3297560135435783
  0
VERTEX
  5
24C
  8
0
 10
7.8736497223326527
 20
-2.2906249434160681
 30
0.0
  0
VERTEX
  5
24D
  8
0
 10
8.0405954385535185
 20
-1.9979513569223819
 30
0.0
 42
-0.3478399680580615
  0
SEQEND
  5
247
  8
0
  0
POLYLINE
  5
24E
  8
0
 66
     1
 10
0.0
 20
0.0
 30
0.0
 70
     1
  0
VERTEX
  5
24F
  8
0
 10
8.2161020030496204
 20
-1.067012940811626
 30
0.0
  0
VERTEX
  5
250
  8
0
 10
7.6494163543897669
 20
-0.6113859814256207
 30
0.0
 42
-0.4018904237191277
  0
VERTEX
  5
252
  8
0
 10
7.6459024058440139
 20
-0.5843690476631446
 30
0.0
  0
VERTEX
  5
253
  8
0
 10
7.7021561727286931
 20
-0.5080094041298765
 30
0.0
 42
-0.2383309509212653
  0
VERTEX
  5
254
  8
0
 10
7.7180048419705969
 20
-0.5000000000000009
 30
0.0
  0
VERTEX
  5
255
  8
0
 10
8.6083224807843326
 20
-0.5000000000000006
 30
0.0
 42
-0.125625710420338
  0
VERTEX
  5
256
  8
0
 10
8.6177579895461083
 20
-0.5024086986288228
 30
0.0
  0
VERTEX
  5
257
  8
0
 10
8.7403148714650172
 20
-0.5693433898623833
 30
0.0
 42
-0.4196420511022813
  0
VERTEX
  5
258
  8
0
 10
8.7479782159165644
 20
-0.5963731912095384
 30
0.0
  0
VERTEX
  5
259
  8
0
 10
8.5448463888111004
 20
-0.95248487658707
 30
0.0
 42
-0.1776719023697002
  0
VERTEX
  5
25A
  8
0
 10
8.5344802155845034
 20
-0.9612293022171137
 30
0.0
  0
VERTEX
  5
25B
  8
0
 10
8.2351694037324954
 20
-1.0701695285252959
 30
0.0
 42
-0.2623450888924614
  0
SEQEND
  5
251
  8
0
  0
POLYLINE
  5
25C
  8
0
 66
     1
 10
0.0
 20
0.0
 30
0.0
 70
     1
  0
VERTEX
  5
25D
  8
0
 10
7.5563036014235871
 20
-0.5365214059517737
 30
0.0
  0
VERTEX
  5
25E
  8
0
 10
7.5544441117784054
 20
-0.5350263378923519
 30
0.0
 42
-0.7080394671280179
  0
VERTEX
  5
260
  8
0
 10
7.5667788324745562
 20
-0.5000000000000009
 30
0.0
  0
VERTEX
  5
261
  8
0
 10
7.5697397312699097
 20
-0.5000000000000009
 30
0.0
 42
-0.615077131450278
  0
VERTEX
  5
262
  8
0
 10
7.5855884005118144
 20
-0.5313606746102835
 30
0.0
  0
VERTEX
  5
263
  8
0
 10
7.5844869913616408
 20
-0.5328557426697059
 30
0.0
 42
-0.4266450260029054
  0
SEQEND
  5
25F
  8
0
  0
POLYLINE
  5
264
  8
0
 66
     1
 10
0.0
 20
0.0
 30
0.0
 70
     1
  0
VERTEX
  5
265
  8
0
 10
5.3465178615429361
 20
-1.104810216068324
 30
0.0
  0
VERTEX
  5
266
  8
0
 10
5.3034414399043532
 20
-1.092115795049569
 30
0.0
 42
-0.2335353706523902
  0
VERTEX
  5
268
  8
0
 10
5.2906283666147056
 20
-1.080288090112733
 30
0.0
  0
VERTEX
  5
269
  8
0
 10
5.1590136576522552
 20
-0.7374200510417941
 30
0.0
 42
-0.1557269719752308
  0
VERTEX
  5
26A
  8
0
 10
5.1583251072774461
 20
-0.7254682251744349
 30
0.0
  0
VERTEX
  5
26B
  8
0
 10
5.2124406796927021
 20
-0.5147877006984956
 30
0.0
 42
-0.3423491547778328
  0
VERTEX
  5
26C
  8
0
 10
5.2315067975182421
 20
-0.5000000000000016
 30
0.0
  0
VERTEX
  5
26D
  8
0
 10
6.0486869497852291
 20
-0.5000000000000013
 30
0.0
 42
-0.2066350405276647
  0
VERTEX
  5
26E
  8
0
 10
6.0630131851721822
 20
-0.5061846780919819
 30
0.0
  0
VERTEX
  5
26F
  8
0
 10
6.1859673954210184
 20
-0.6366605165941279
 30
0.0
 42
-0.494773813188249
  0
VERTEX
  5
270
  8
0
 10
6.1808827262306361
 20
-0.6675417359993704
 30
0.0
  0
VERTEX
  5
271
  8
0
 10
5.3613239219005937
 20
-1.1033088820628589
 30
0.0
 42
-0.1962828269531095
  0
SEQEND
  5
267
  8
0
  0
POLYLINE
  5
272
  8
0
 66
     1
 10
0.0
 20
0.0
 30
0.0
 70
     1
  0
VERTEX
  5
273
  8
0
 10
8.7715946617077503
 20
-3.421631770186448
 30
0.0
  0
VERTEX
  5
274
  8
0
 10
8.6024350801573455
 20
-3.4751488030577491
 30
0.0
 42
-0.0767518692220333
  0
VERTEX
  5
276
  8
0
 10
8.5964973891053056
 20
-3.4760656619094061
 30
0.0
  0
VERTEX
  5
277
  8
0
 10
8.1987642118096442
 20
-3.4760656619094048
 30
0.0
 42
-0.7535540501027772
  0
VERTEX
  5
278
  8
0
 10
8.1883327302302504
 20
-3.4396867623787681
 30
0.0
  0
VERTEX
  5
279
  8
0
 10
8.5768689611314084
 20
-3.1969023795822671
 30
0.0
 42
-0.3575596436554085
  0
VERTEX
  5
27A
  8
0
 10
8.6016266780977571
 20
-3.2000958784647291
 30
0.0
  0
VERTEX
  5
27B
  8
0
 10
8.7799832060426617
 20
-3.3893632283899282
 30
0.0
 42
-0.5528507933595498
  0
SEQEND
  5
275
  8
0
  0
POLYLINE
  5
27C
  8
0
 66
     1
 10
0.0
 20
0.0
 30
0.0
 70
     1
  0
VERTEX
  5
27D
  8
0
 10
13.42215962161654
 20
-3.0013092238395771
 30
0.0
  0
VERTEX
  5
27E
  8
0
 10
13.741335008710131
 20
-2.8120776991126708
 30
0.0
 42
-0.3068890064766319
  0
VERTEX
  5
280
  8
0
 10
13.763379330831841
 20
-2.8134100200797461
 30
0.0
  0
VERTEX
  5
281
  8
0
 10
14.054820247351859
 20
-3.037687718448602
 30
0.0
 42
-0.2327992835986877
  0
VERTEX
  5
282
  8
0
 10
14.062499999999959
 20
-3.0532881628565218
 30
0.0
  0
VERTEX
  5
283
  8
0
 10
14.062499999999959
 20
-3.3517313298751641
 30
0.0
 42
-0.5694722589598709
  0
VERTEX
  5
284
  8
0
 10
14.0333794518681
 20
-3.3690076706164191
 30
0.0
  0
VERTEX
  5
285
  8
0
 10
13.422763148254489
 20
-3.0355183299558299
 30
0.0
 42
-0.5814068620035792
  0
SEQEND
  5
27F
  8
0
  0
POLYLINE
  5
286
  8
0
 66
     1
 10
0.0
 20
0.0
 30
0.0
 70
     1
  0
VERTEX
  5
287
  8
0
 10
13.07573759060992
 20
-0.4999999999999995
 30
0.0
  0
VERTEX
  5
288
  8
0
 10
13.776100753310679
 20
-0.4999999999999993
 30
0.0
 42
-0.7002075382097358
  0
VERTEX
  5
28A
  8
0
 10
13.78875405271396
 20
-0.5347646543921061
 30
0.0
  0
VERTEX
  5
28B
  8
0
 10
13.31695568445555
 20
-0.9306504911877825
 30
0.0
 42
-0.4663076581550199
  0
VERTEX
  5
28C
  8
0
 10
13.28725464088328
 20
-0.9254133958507924
 30
0.0
  0
VERTEX
  5
28D
  8
0
 10
13.05868984644094
 20
-0.5295275590551171
 30
0.0
 42
-0.5773502691896166
  0
SEQEND
  5
289
  8
0
  0
POLYLINE
  5
28E
  8
0
 66
     1
 10
0.0
 20
0.0
 30
0.0
 70
     1
  0
VERTEX
  5
28F
  8
0
 10
13.35225486295681
 20
-1.005463546673085
 30
0.0
  0
VERTEX
  5
290
  8
0
 10
13.94915432961767
 20
-0.5046054243480502
 30
0.0
 42
-0.1763269807084446
  0
VERTEX
  5
292
  8
0
 10
13.961807629020949
 20
-0.4999999999999995
 30
0.0
  0
VERTEX
  5
293
  8
0
 10
14.04281496062988
 20
-0.4999999999999993
 30
0.0
 42
-0.4142135623730951
  0
VERTEX
  5
294
  8
0
 10
14.062499999999959
 20
-0.5196850393700782
 30
0.0
  0
VERTEX
  5
295
  8
0
 10
14.062499999999959
 20
-1.733328615485406
 30
0.0
 42
-0.3270637906303955
  0
VERTEX
  5
296
  8
0
 10
14.048752651681919
 20
-1.7520967960038281
 30
0.0
  0
VERTEX
  5
297
  8
0
 10
13.823513999289091
 20
-1.82335556984043
 30
0.0
 42
-0.3519388967115315
  0
VERTEX
  5
298
  8
0
 10
13.80052856406807
 20
-1.8144299090070479
 30
0.0
  0
VERTEX
  5
299
  8
0
 10
13.347860418191109
 20
-1.0303856813801511
 30
0.0
 42
-0.3639702342662131
  0
SEQEND
  5
291
  8
0
  0
POLYLINE
  5
29A
  8
0
 66
     1
 10
0.0
 20
0.0
 30
0.0
 70
     1
  0
VERTEX
  5
29B
  8
0
 10
12.7918386736106
 20
-3.3823131158243771
 30
0.0
  0
VERTEX
  5
29C
  8
0
 10
12.97910092650851
 20
-3.4374984304067162
 30
0.0
 42
-0.8660744376262286
  0
VERTEX
  5
29E
  8
0
 10
12.973536432347419
 20
-3.4760656619094039
 30
0.0
  0
VERTEX
  5
29F
  8
0
 10
12.69319352510759
 20
-3.4760656619094039
 30
0.0
 42
-0.7627430585212432
  0
VERTEX
  5
2A0
  8
0
 10
12.68315448970786
 20
-3.4394478571643301
 30
0.0
  0
VERTEX
  5
2A1
  8
0
 10
12.776235144049791
 20
-3.384262542581991
 30
0.0
 42
-0.20837677354315
  0
SEQEND
  5
29D
  8
0
  0
POLYLINE
  5
2A2
  8
0
 66
     1
 10
0.0
 20
0.0
 30
0.0
 70
     1
  0
VERTEX
  5
2A3
  8
0
 10
11.991633858267679
 20
-0.4999999999999999
 30
0.0
  0
VERTEX
  5
2A4
  8
0
 10
12.67319867681911
 20
-0.4999999999999997
 30
0.0
 42
-0.7535540501028071
  0
VERTEX
  5
2A6
  8
0
 10
12.6836301583985
 20
-0.5363788995306381
 30
0.0
  0
VERTEX
  5
2A7
  8
0
 10
12.00206533984707
 20
-0.9622678659830656
 30
0.0
 42
-0.5890450164205409
  0
VERTEX
  5
2A8
  8
0
 10
11.9719488188976
 20
-0.9455740058225067
 30
0.0
  0
VERTEX
  5
2A9
  8
0
 10
11.9719488188976
 20
-0.5196850393700787
 30
0.0
 42
-0.4142135623730951
  0
SEQEND
  5
2A5
  8
0
  0
POLYLINE
  5
2AA
  8
0
 66
     1
 10
0.0
 20
0.0
 30
0.0
 70
     1
  0
VERTEX
  5
2AB
  8
0
 10
13.349901574803109
 20
-1.2203162955216289
 30
0.0
 42
0.4142135623730951
  0
VERTEX
  5
2AC
  8
0
 10
13.33021653543303
 20
-1.20063125615155
 30
0.0
  0
VERTEX
  5
2AE
  8
0
 10
13.173747245197839
 20
-1.2006312561515511
 30
0.0
 42
-0.700207538209734
  0
VERTEX
  5
2AF
  8
0
 10
13.16109394579456
 20
-1.1658666017594439
 30
0.0
  0
VERTEX
  5
2B0
  8
0
 10
13.259401425101681
 20
-1.0833768321308701
 30
0.0
 42
-0.4663076581550176
  0
VERTEX
  5
2B1
  8
0
 10
13.28910246867394
 20
-1.0886139274678599
 30
0.0
  0
VERTEX
  5
2B2
  8
0
 10
13.71807566277062
 20
-1.831617294728404
 30
0.0
 42
-0.4793567999742958
  0
VERTEX
  5
2B3
  8
0
 10
13.70696560965367
 20
-1.860227994931865
 30
0.0
  0
VERTEX
  5
2B4
  8
0
 10
13.37552430522523
 20
-1.965086111873463
 30
0.0
 42
-0.5070865576476523
  0
VERTEX
  5
2B5
  8
0
 10
13.349901574803109
 20
-1.9463179313550409
 30
0.0
  0
SEQEND
  5
2AD
  8
0
  0
POLYLINE
  5
2B6
  8
0
 66
     1
 10
0.0
 20
0.0
 30
0.0
 70
     1
  0
VERTEX
  5
2B7
  8
0
 10
14.025767216460901
 20
-2.2045546987797691
 30
0.0
  0
VERTEX
  5
2B8
  8
0
 10
13.86164955649034
 20
-1.9202945732914529
 30
0.0
 42
-0.4793567999744328
  0
VERTEX
  5
2BA
  8
0
 10
13.87275960960728
 20
-1.8916838730879899
 30
0.0
  0
VERTEX
  5
2BB
  8
0
 10
14.03687726957784
 20
-1.839761953425473
 30
0.0
 42
-0.5070865576477404
  0
VERTEX
  5
2BC
  8
0
 10
14.062499999999959
 20
-1.8585301339438951
 30
0.0
  0
VERTEX
  5
2BD
  8
0
 10
14.062499999999959
 20
-2.1947121790947288
 30
0.0
 42
-0.7673269879789305
  0
SEQEND
  5
2B9
  8
0
  0
POLYLINE
  5
2BE
  8
0
 66
     1
 10
0.0
 20
0.0
 30
0.0
 70
     1
  0
VERTEX
  5
2BF
  8
0
 10
4.8136445196507838
 20
-3.4760656619094048
 30
0.0
  0
VERTEX
  5
2C0
  8
0
 10
4.4771847599788472
 20
-3.4760656619094048
 30
0.0
 42
-0.4899253244816308
  0
VERTEX
  5
2C2
  8
0
 10
4.4581186421533081
 20
-3.4514832838677418
 30
0.0
  0
VERTEX
  5
2C3
  8
0
 10
4.5051836329039094
 20
-3.2682517944231928
 30
0.0
 42
-0.5091655030775426
  0
VERTEX
  5
2C4
  8
0
 10
4.5347801445729612
 20
-3.2565174891441009
 30
0.0
  0
VERTEX
  5
2C5
  8
0
 10
4.8241749134942964
 20
-3.439748978588649
 30
0.0
 42
-0.7512299232328217
  0
SEQEND
  5
2C1
  8
0
  0
POLYLINE
  5
2C6
  8
0
 66
     1
 10
0.0
 20
0.0
 30
0.0
 70
     1
  0
VERTEX
  5
2C7
  8
0
 10
2.4254517352647862
 20
-0.8500282400755183
 30
0.0
  0
VERTEX
  5
2C8
  8
0
 10
1.8828080867631629
 20
-0.5367327835390661
 30
0.0
 42
-0.7673269879789572
  0
VERTEX
  5
2CA
  8
0
 10
1.8926506064482029
 20
-0.5000000000000023
 30
0.0
  0
VERTEX
  5
2CB
  8
0
 10
2.8510513681837271
 20
-0.500000000000002
 30
0.0
 42
-0.7198969885934856
  0
VERTEX
  5
2CC
  8
0
 10
2.8628981206079791
 20
-0.5354062108277049
 30
0.0
  0
VERTEX
  5
2CD
  8
0
 10
2.447141007374078
 20
-0.8487016673641571
 30
0.0
 42
-0.3009658391327351
  0
SEQEND
  5
2C9
  8
0
  0
POLYLINE
  5
2CE
  8
0
 66
     1
 10
0.0
 20
0.0
 30
0.0
 70
     1
  0
VERTEX
  5
2CF
  8
0
 10
1.990352451661815
 20
-3.3243070724798538
 30
0.0
  0
VERTEX
  5
2D0
  8
0
 10
1.9412280385925189
 20
-3.2232023105863461
 30
0.0
 42
-0.2887683245439799
  0
VERTEX
  5
2D2
  8
0
 10
1.9435311183286741
 20
-3.2023414882020309
 30
0.0
  0
VERTEX
  5
2D3
  8
0
 10
2.204707520241592
 20
-2.8741641239875211
 30
0.0
 42
-0.1028365880934772
  0
VERTEX
  5
2D4
  8
0
 10
2.2108685999486228
 20
-2.8690412948279449
 30
0.0
  0
VERTEX
  5
2D5
  8
0
 10
3.13127553131776
 20
-2.3796522484523761
 30
0.0
 42
-0.2695404029320608
  0
VERTEX
  5
2D6
  8
0
 10
3.1510474913578439
 20
-2.3804014626288428
 30
0.0
  0
VERTEX
  5
2D7
  8
0
 10
3.6589980125158661
 20
-2.702012426444218
 30
0.0
 42
-0.6228077778020084
  0
VERTEX
  5
2D8
  8
0
 10
3.6552002986590768
 20
-2.737141956630837
 30
0.0
  0
VERTEX
  5
2D9
  8
0
 10
2.014790857288296
 20
-3.3342021652990521
 30
0.0
 42
-0.3842945316843072
  0
SEQEND
  5
2D1
  8
0
  0
POLYLINE
  5
2DA
  8
0
 66
     1
 10
0.0
 20
0.0
 30
0.0
 70
     1
  0
VERTEX
  5
2DB
  8
0
 10
3.9108249047471921
 20
-2.7292364306668149
 30
0.0
  0
VERTEX
  5
2DC
  8
0
 10
4.5930075443345872
 20
-2.4809422555238552
 30
0.0
 42
-0.603271981794687
  0
VERTEX
  5
2DE
  8
0
 10
4.6188063421468524
 20
-2.5043374804313832
 30
0.0
  0
VERTEX
  5
2DF
  8
0
 10
4.4685248848818988
 20
-3.089407079116119
 30
0.0
 42
-0.5091655030775426
  0
VERTEX
  5
2E0
  8
0
 10
4.4389283732128471
 20
-3.10114138439521
 30
0.0
  0
VERTEX
  5
2E1
  8
0
 10
3.907027190890406
 20
-2.7643659608534348
 30
0.0
 42
-0.6228077778020106
  0
SEQEND
  5
2DD
  8
0
  0
POLYLINE
  5
2E2
  8
0
 66
     1
 10
0.0
 20
0.0
 30
0.0
 70
     1
  0
VERTEX
  5
2E3
  8
0
 10
3.033697880231776
 20
-2.340929601799044
 30
0.0
  0
VERTEX
  5
2E4
  8
0
 10
2.4158723645616589
 20
-2.669433255601962
 30
0.0
 42
-0.8135053022293114
  0
VERTEX
  5
2E6
  8
0
 10
2.3912281524614829
 20
-2.639794368507248
 30
0.0
  0
VERTEX
  5
2E7
  8
0
 10
2.7720750908570539
 20
-2.161246752809955
 30
0.0
 42
-0.3829930274508427
  0
VERTEX
  5
2E8
  8
0
 10
2.79800813060417
 20
-2.156873137826846
 30
0.0
  0
VERTEX
  5
2E9
  8
0
 10
3.0349867078787152
 20
-2.3069170997212232
 30
0.0
 42
-0.5753732574251962
  0
SEQEND
  5
2E5
  8
0
  0
POLYLINE
  5
2EA
  8
0
 66
     1
 10
0.0
 20
0.0
 30
0.0
 70
     1
  0
VERTEX
  5
2EB
  8
0
 10
1.81593010343683
 20
-2.965322020356838
 30
0.0
  0
VERTEX
  5
2EC
  8
0
 10
1.275013928413226
 20
-1.8520425394811439
 30
0.0
 42
-0.3586132284145737
  0
VERTEX
  5
2EE
  8
0
 10
1.2808729016287299
 20
-1.827718574606775
 30
0.0
  0
VERTEX
  5
2EF
  8
0
 10
1.7253407522734081
 20
-1.4927880256129951
 30
0.0
 42
-0.312136116083499
  0
VERTEX
  5
2F0
  8
0
 10
1.747717898541173
 20
-1.491877553119942
 30
0.0
  0
VERTEX
  5
2F1
  8
0
 10
2.6965654544883702
 20
-2.092644289782287
 30
0.0
 42
-0.446138888846349
  0
VERTEX
  5
2F2
  8
0
 10
2.7014377065484609
 20
-2.1215339627005321
 30
0.0
  0
VERTEX
  5
2F3
  8
0
 10
2.1575628140412491
 20
-2.8049319549317708
 30
0.0
 42
-0.1028365880934645
  0
VERTEX
  5
2F4
  8
0
 10
2.1514017343342191
 20
-2.810054784091347
 30
0.0
  0
VERTEX
  5
2F5
  8
0
 10
1.842877395273159
 20
-2.9741000850672359
 30
0.0
 42
-0.4249176366940996
  0
SEQEND
  5
2ED
  8
0
  0
POLYLINE
  5
2F6
  8
0
 66
     1
 10
0.0
 20
0.0
 30
0.0
 70
     1
  0
VERTEX
  5
2F7
  8
0
 10
2.0587037605080072
 20
-3.4649834159560711
 30
0.0
  0
VERTEX
  5
2F8
  8
0
 10
2.0427989303467928
 20
-3.43224909984042
 30
0.0
 42
-0.4447792389719924
  0
VERTEX
  5
2FA
  8
0
 10
2.0537719759998239
 20
-3.4051484201877318
 30
0.0
  0
VERTEX
  5
2FB
  8
0
 10
3.7691322731350421
 20
-2.7808083309884841
 30
0.0
 42
-0.2324318550585565
  0
VERTEX
  5
2FC
  8
0
 10
3.7863953469652789
 20
-2.7826745732737499
 30
0.0
  0
VERTEX
  5
2FD
  8
0
 10
4.4287749758316917
 20
-3.1893998801089389
 30
0.0
 42
-0.3252356987497599
  0
VERTEX
  5
2FE
  8
0
 10
4.4373106998137191
 20
-3.2109288627311998
 30
0.0
  0
VERTEX
  5
2FF
  8
0
 10
4.3730058249252002
 20
-3.4612779612109121
 30
0.0
 42
-0.3423491547778292
  0
VERTEX
  5
300
  8
0
 10
4.3539397070996593
 20
-3.4760656619094061
 30
0.0
  0
VERTEX
  5
301
  8
0
 10
2.0764094861477629
 20
-3.4760656619094048
 30
0.0
 42
-0.2871514307440217
  0
SEQEND
  5
2F9
  8
0
  0
POLYLINE
  5
302
  8
0
 66
     1
 10
0.0
 20
0.0
 30
0.0
 70
     1
  0
VERTEX
  5
303
  8
0
 10
1.7980760729246099
 20
-3.111633168703499
 30
0.0
  0
VERTEX
  5
304
  8
0
 10
1.836402530588602
 20
-3.1905142613055282
 30
0.0
 42
-0.2887683245439874
  0
VERTEX
  5
306
  8
0
 10
1.8340994508524471
 20
-3.2113750836898429
 30
0.0
  0
VERTEX
  5
307
  8
0
 10
1.629359025971044
 20
-3.4686386515068959
 30
0.0
 42
-0.2285064416374857
  0
VERTEX
  5
308
  8
0
 10
1.6139563800674419
 20
-3.4760656619094061
 30
0.0
  0
VERTEX
  5
309
  8
0
 10
1.14817418824983
 20
-3.4760656619094061
 30
0.0
 42
-0.7812856265067247
  0
VERTEX
  5
30A
  8
0
 10
1.1389326220532581
 20
-3.438999764412181
 30
0.0
  0
VERTEX
  5
30B
  8
0
 10
1.771128781088281
 20
-3.1028551039930998
 30
0.0
 42
-0.4249176366940925
  0
SEQEND
  5
305
  8
0
  0
POLYLINE
  5
30C
  8
0
 66
     1
 10
0.0
 20
0.0
 30
0.0
 70
     1
  0
VERTEX
  5
30D
  8
0
 10
4.683134551581289
 20
-2.1535020218206391
 30
0.0
  0
VERTEX
  5
30E
  8
0
 10
4.173803285681438
 20
-1.859439478346669
 30
0.0
 42
-0.5890450164205517
  0
VERTEX
  5
310
  8
0
 10
4.1744042391699061
 20
-1.825010876050539
 30
0.0
  0
VERTEX
  5
311
  8
0
 10
4.8517816947256973
 20
-1.4648428941366709
 30
0.0
 42
-0.6519267099296409
  0
VERTEX
  5
312
  8
0
 10
4.880089378747809
 20
-1.4871210909353989
 30
0.0
  0
VERTEX
  5
313
  8
0
 10
4.712043189091867
 20
-2.1413516163232389
 30
0.0
 42
-0.4963737749740406
  0
SEQEND
  5
30F
  8
0
  0
POLYLINE
  5
314
  8
0
 66
     1
 10
0.0
 20
0.0
 30
0.0
 70
     1
  0
VERTEX
  5
315
  8
0
 10
3.8466541157708778
 20
-0.6628073491787477
 30
0.0
  0
VERTEX
  5
316
  8
0
 10
3.4250657908260851
 20
-0.5385672315026902
 30
0.0
 42
-0.8660744376262758
  0
VERTEX
  5
318
  8
0
 10
3.4306302849871719
 20
-0.500000000000002
 30
0.0
  0
VERTEX
  5
319
  8
0
 10
3.95109376235308
 20
-0.5000000000000017
 30
0.0
 42
-0.6279930916228427
  0
VERTEX
  5
31A
  8
0
 10
3.9664964082566829
 20
-0.5319430683376495
 30
0.0
  0
VERTEX
  5
31B
  8
0
 10
3.8676212558355658
 20
-0.656183186013707
 30
0.0
 42
-0.3052815400979554
  0
SEQEND
  5
317
  8
0
  0
POLYLINE
  5
31C
  8
0
 66
     1
 10
0.0
 20
0.0
 30
0.0
 70
     1
  0
VERTEX
  5
31D
  8
0
 10
6.441157480314943
 20
-3.1684970329665472
 30
0.0
  0
VERTEX
  5
31E
  8
0
 10
5.9989010273541421
 20
-2.9131601507987792
 30
0.0
 42
-0.171831426830131
  0
VERTEX
  5
320
  8
0
 10
5.9903659795884483
 20
-2.9031668938255679
 30
0.0
  0
VERTEX
  5
321
  8
0
 10
5.9761698073241583
 20
-2.8661846006993561
 30
0.0
 42
-0.2557282314968179
  0
VERTEX
  5
322
  8
0
 10
5.9786987055329872
 20
-2.8474544782633791
 30
0.0
  0
VERTEX
  5
323
  8
0
 10
6.8517812075727864
 20
-1.662320178411683
 30
0.0
 42
-0.1477612790831662
  0
VERTEX
  5
324
  8
0
 10
6.8608971968279642
 20
-1.655497927415944
 30
0.0
  0
VERTEX
  5
325
  8
0
 10
6.8867030719608149
 20
-1.6461053569983961
 30
0.0
 42
-0.1602635553843716
  0
VERTEX
  5
326
  8
0
 10
6.8990002461086268
 20
-1.6457210511017291
 30
0.0
  0
VERTEX
  5
327
  8
0
 10
7.2232003748722118
 20
-1.7412613205184759
 30
0.0
 42
-0.1328956041253769
  0
VERTEX
  5
328
  8
0
 10
7.231962116098078
 20
-1.7466431513729881
 30
0.0
  0
VERTEX
  5
329
  8
0
 10
7.757621475739251
 20
-2.3044593138035241
 30
0.0
 42
-0.3297560135435612
  0
VERTEX
  5
32A
  8
0
 10
7.7603940935656199
 20
-2.3277131356875218
 30
0.0
  0
VERTEX
  5
32B
  8
0
 10
7.6860737356840216
 20
-2.4580046231427888
 30
0.0
 42
-0.1329793953674832
  0
VERTEX
  5
32C
  8
0
 10
7.6788174021557367
 20
-2.465298906705875
 30
0.0
  0
VERTEX
  5
32D
  8
0
 10
6.4608425196850199
 20
-3.1684970329665458
 30
0.0
 42
-0.2679491924311108
  0
SEQEND
  5
31F
  8
0
  0
POLYLINE
  5
32E
  8
0
 66
     1
 10
0.0
 20
0.0
 30
0.0
 70
     1
  0
VERTEX
  5
32F
  8
0
 10
7.8950739850628713
 20
-2.450320373558434
 30
0.0
  0
VERTEX
  5
330
  8
0
 10
8.5181421104575801
 20
-3.111504207282453
 30
0.0
 42
-0.4732317724286322
  0
VERTEX
  5
332
  8
0
 10
8.5142473566500172
 20
-3.1416984287211109
 30
0.0
  0
VERTEX
  5
333
  8
0
 10
7.9839348153704144
 20
-3.4730744826998849
 30
0.0
 42
-0.1405408347023825
  0
VERTEX
  5
334
  8
0
 10
7.9735033337910197
 20
-3.4760656619094048
 30
0.0
  0
VERTEX
  5
335
  8
0
 10
7.2313463362275554
 20
-3.4760656619094039
 30
0.0
 42
-0.5756128208118684
  0
VERTEX
  5
336
  8
0
 10
7.2142474830142334
 20
-3.446627161933427
 30
0.0
  0
VERTEX
  5
337
  8
0
 10
7.7395501749156557
 20
-2.5257157045218448
 30
0.0
 42
-0.132979395367467
  0
VERTEX
  5
338
  8
0
 10
7.7468065084439406
 20
-2.518421420958759
 30
0.0
  0
VERTEX
  5
339
  8
0
 10
7.8709052299908793
 20
-2.4467729906675459
 30
0.0
 42
-0.3477476724646933
  0
SEQEND
  5
331
  8
0
  0
POLYLINE
  5
33A
  8
0
 66
     1
 10
0.0
 20
0.0
 30
0.0
 70
     1
  0
VERTEX
  5
33B
  8
0
 10
4.9059530956330288
 20
-2.3745224112796932
 30
0.0
  0
VERTEX
  5
33C
  8
0
 10
5.8142478851091806
 20
-2.8989266524872819
 30
0.0
 42
-0.4472110729911154
  0
VERTEX
  5
33E
  8
0
 10
5.8202540346660454
 20
-2.9276500318964711
 30
0.0
  0
VERTEX
  5
33F
  8
0
 10
5.422139475100173
 20
-3.46805625777953
 30
0.0
 42
-0.2383309509212522
  0
VERTEX
  5
340
  8
0
 10
5.4062908058582702
 20
-3.4760656619094061
 30
0.0
  0
VERTEX
  5
341
  8
0
 10
5.0367895163649496
 20
-3.4760656619094048
 30
0.0
 42
-0.1420544917985155
  0
VERTEX
  5
342
  8
0
 10
5.0262591225214379
 20
-3.4730122664900032
 30
0.0
  0
VERTEX
  5
343
  8
0
 10
4.5449335419541148
 20
-3.168258993430372
 30
0.0
 42
-0.3252356987497599
  0
VERTEX
  5
344
  8
0
 10
4.5363978179720892
 20
-3.1467300108081111
 30
0.0
  0
VERTEX
  5
345
  8
0
 10
4.7166295963972562
 20
-2.4450590515789941
 30
0.0
 42
-0.2474489810276773
  0
VERTEX
  5
346
  8
0
 10
4.7289630342360693
 20
-2.4314585040146359
 30
0.0
  0
VERTEX
  5
347
  8
0
 10
4.8893778959612648
 20
-2.3730722692127362
 30
0.0
 42
-0.2216946626429245
  0
SEQEND
  5
33D
  8
0
  0
POLYLINE
  5
348
  8
0
 66
     1
 10
0.0
 20
0.0
 30
0.0
 70
     1
  0
VERTEX
  5
349
  8
0
 10
6.8258606752861812
 20
-1.540765659774596
 30
0.0
  0
VERTEX
  5
34A
  8
0
 10
5.5101119980167512
 20
-1.153020646870176
 30
0.0
 42
-0.6718454490347512
  0
VERTEX
  5
34C
  8
0
 10
5.5064349259812637
 20
-1.1167575966104231
 30
0.0
  0
VERTEX
  5
34D
  8
0
 10
6.2472739509507047
 20
-0.7228464996912773
 30
0.0
 42
-0.3379950748094465
  0
VERTEX
  5
34E
  8
0
 10
6.2708417525342321
 20
-0.7267269965403232
 30
0.0
  0
VERTEX
  5
34F
  8
0
 10
6.9166923007688732
 20
-1.4120869501152591
 30
0.0
 42
-0.3623843169388708
  0
VERTEX
  5
350
  8
0
 10
6.918214734623823
 20
-1.4372629466335609
 30
0.0
  0
VERTEX
  5
351
  8
0
 10
6.8472738386891709
 20
-1.53355910288219
 30
0.0
 42
-0.3154960160989826
  0
SEQEND
  5
34B
  8
0
  0
POLYLINE
  5
352
  8
0
 66
     1
 10
0.0
 20
0.0
 30
0.0
 70
     1
  0
VERTEX
  5
353
  8
0
 10
0.9748907650098324
 20
-1.417405200349859
 30
0.0
  0
VERTEX
  5
354
  8
0
 10
1.1601201225010831
 20
-1.7986325558487031
 30
0.0
 42
-0.3586132284145872
  0
VERTEX
  5
356
  8
0
 10
1.1542611492855781
 20
-1.822956520723072
 30
0.0
  0
VERTEX
  5
357
  8
0
 10
0.9690317917943279
 20
-1.9625368532585421
 30
0.0
 42
-0.6188187767188031
  0
VERTEX
  5
358
  8
0
 10
0.9374999999999962
 20
-1.9468156818009179
 30
0.0
  0
VERTEX
  5
359
  8
0
 10
0.9374999999999959
 20
-1.426007993766605
 30
0.0
 42
-0.7960486218896847
  0
SEQEND
  5
355
  8
0
  0
POLYLINE
  5
35A
  8
0
 66
     1
 10
0.0
 20
0.0
 30
0.0
 70
     1
  0
VERTEX
  5
35B
  8
0
 10
4.9846439106829408
 20
-0.9981676465791602
 30
0.0
  0
VERTEX
  5
35C
  8
0
 10
3.9702302920520731
 20
-0.6992246733186974
 30
0.0
 42
-0.5322364858158212
  0
VERTEX
  5
35E
  8
0
 10
3.960392140309557
 20
-0.6680844522185191
 30
0.0
  0
VERTEX
  5
35F
  8
0
 10
4.0882496258325727
 20
-0.5074270104025117
 30
0.0
 42
-0.2285064416375036
  0
VERTEX
  5
360
  8
0
 10
4.103652271736177
 20
-0.5000000000000017
 30
0.0
  0
VERTEX
  5
361
  8
0
 10
4.968655886641697
 20
-0.5000000000000016
 30
0.0
 42
-0.3105082534628309
  0
VERTEX
  5
362
  8
0
 10
4.9870334540924288
 20
-0.5126305521743068
 30
0.0
  0
VERTEX
  5
363
  8
0
 10
5.0706725816970124
 20
-0.7305179288775335
 30
0.0
 42
-0.1557269719752147
  0
VERTEX
  5
364
  8
0
 10
5.0713611320718179
 20
-0.7424697547448919
 30
0.0
  0
VERTEX
  5
365
  8
0
 10
5.0092745226695676
 20
-0.9841827931181356
 30
0.0
 42
-0.4245488946294443
  0
SEQEND
  5
35D
  8
0
  0
POLYLINE
  5
366
  8
0
 66
     1
 10
0.0
 20
0.0
 30
0.0
 70
     1
  0
VERTEX
  5
367
  8
0
 10
9.1809322420673762
 20
-0.7188337217551438
 30
0.0
  0
VERTEX
  5
368
  8
0
 10
8.8853806172900782
 20
-0.5574175985778691
 30
0.0
 42
-0.4196420511022785
  0
VERTEX
  5
36A
  8
0
 10
8.8777172728385327
 20
-0.5303877972307138
 30
0.0
  0
VERTEX
  5
36B
  8
0
 10
8.8893858285287806
 20
-0.5099315787641805
 30
0.0
 42
-0.2693473761970661
  0
VERTEX
  5
36C
  8
0
 10
8.9064846817421017
 20
-0.5000000000000007
 30
0.0
  0
VERTEX
  5
36D
  8
0
 10
9.6900579027188485
 20
-0.5000000000000006
 30
0.0
 42
-0.8390996311772925
  0
VERTEX
  5
36E
  8
0
 10
9.6967905827055727
 20
-0.5381829256060224
 30
0.0
  0
VERTEX
  5
36F
  8
0
 10
9.1971004308158761
 20
-0.7200552672498293
 30
0.0
 42
-0.215482706776678
  0
SEQEND
  5
369
  8
0
  0
POLYLINE
  5
370
  8
0
 66
     1
 10
0.0
 20
0.0
 30
0.0
 70
     1
  0
VERTEX
  5
371
  8
0
 10
7.9999999999999956
 20
0.1053149606299209
 30
0.0
 42
0.4142135623730951
  0
VERTEX
  5
372
  8
0
 10
7.9803149606299169
 20
0.1249999999999996
 30
0.0
  0
VERTEX
  5
374
  8
0
 10
7.0196850393700769
 20
0.1249999999999995
 30
0.0
 42
0.4142135623730951
  0
VERTEX
  5
375
  8
0
 10
6.9999999999999982
 20
0.1053149606299208
 30
0.0
  0
VERTEX
  5
376
  8
0
 10
6.9999999999999982
 20
0.0196850393700782
 30
0.0
 42
-0.4142135623730951
  0
VERTEX
  5
377
  8
0
 10
6.9803149606299186
 20
-0.0000000000000005
 30
0.0
  0
VERTEX
  5
378
  8
0
 10
1.594435039370097
 20
-0.0000000000000014
 30
0.0
 42
0.4142135623730953
  0
VERTEX
  5
379
  8
0
 10
1.5747500000000181
 20
-0.0196850393700801
 30
0.0
  0
VERTEX
  5
37A
  8
0
 10
1.5747500000000181
 20
-0.210939960629921
 30
0.0
 42
0.4142135623730951
  0
VERTEX
  5
37B
  8
0
 10
1.594435039370097
 20
-0.2306249999999997
 30
0.0
  0
VERTEX
  5
37C
  8
0
 10
1.6415649606299381
 20
-0.2306249999999997
 30
0.0
 42
-0.4142135623730944
  0
VERTEX
  5
37D
  8
0
 10
1.661250000000017
 20
-0.2503100393700783
 30
0.0
  0
VERTEX
  5
37E
  8
0
 10
1.661250000000017
 20
-0.3303149606299209
 30
0.0
 42
-0.4142135623730951
  0
VERTEX
  5
37F
  8
0
 10
1.641564960629939
 20
-0.3499999999999996
 30
0.0
  0
VERTEX
  5
380
  8
0
 10
1.358435039370097
 20
-0.35
 30
0.0
 42
-0.4142135623730951
  0
VERTEX
  5
381
  8
0
 10
1.3387500000000181
 20
-0.3303149606299212
 30
0.0
  0
VERTEX
  5
382
  8
0
 10
1.3387500000000181
 20
-0.2503100393700786
 30
0.0
 42
-0.4142135623730931
  0
VERTEX
  5
383
  8
0
 10
1.358435039370097
 20
-0.230625
 30
0.0
  0
VERTEX
  5
384
  8
0
 10
1.405564960629939
 20
-0.230625
 30
0.0
 42
0.4142135623730951
  0
VERTEX
  5
385
  8
0
 10
1.425250000000017
 20
-0.2109399606299211
 30
0.0
  0
VERTEX
  5
386
  8
0
 10
1.4252500000000179
 20
-0.0196850393700801
 30
0.0
 42
0.4142135623730944
  0
VERTEX
  5
387
  8
0
 10
1.405564960629939
 20
-0.0000000000000014
 30
0.0
  0
VERTEX
  5
388
  8
0
 10
0.0393700787401566
 20
-0.0000000000000016
 30
0.0
 42
0.4142135623730975
  0
VERTEX
  5
389
  8
0
 10
-0.0000000000000008
 20
-0.0393700787401594
 30
0.0
  0
VERTEX
  5
38A
  8
0
 10
-0.0000000000000014
 20
-3.9366955831692469
 30
0.0
 42
0.4142135623730951
  0
VERTEX
  5
38B
  8
0
 10
0.039370078740156
 20
-3.9760656619094039
 30
0.0
  0
VERTEX
  5
38C
  8
0
 10
14.96062992125983
 20
-3.9760656619094039
 30
0.0
 42
0.4142135623730951
  0
VERTEX
  5
38D
  8
0
 10
14.999999999999989
 20
-3.9366955831692461
 30
0.0
  0
VERTEX
  5
38E
  8
0
 10
15.0
 20
-0.0393700787401566
 30
0.0
 42
0.4142135623730956
  0
VERTEX
  5
38F
  8
0
 10
14.960629921259841
 20
0.0000000000000007
 30
0.0
  0
VERTEX
  5
390
  8
0
 10
13.59443503937006
 20
0.0000000000000005
 30
0.0
 42
0.4142135623730981
  0
VERTEX
  5
391
  8
0
 10
13.57474999999998
 20
-0.0196850393700785
 30
0.0
  0
VERTEX
  5
392
  8
0
 10
13.57474999999998
 20
-0.2109399606299193
 30
0.0
 42
0.4142135623730925
  0
VERTEX
  5
393
  8
0
 10
13.59443503937006
 20
-0.2306249999999979
 30
0.0
  0
VERTEX
  5
394
  8
0
 10
13.641564960629911
 20
-0.2306249999999978
 30
0.0
 42
-0.4142135623731009
  0
VERTEX
  5
395
  8
0
 10
13.661249999999979
 20
-0.250310039370077
 30
0.0
  0
VERTEX
  5
396
  8
0
 10
13.661249999999979
 20
-0.3303149606299195
 30
0.0
 42
-0.4142135623730886
  0
VERTEX
  5
397
  8
0
 10
13.6415649606299
 20
-0.3499999999999978
 30
0.0
  0
VERTEX
  5
398
  8
0
 10
13.358435039370059
 20
-0.3499999999999979
 30
0.0
 42
-0.4142135623730892
  0
VERTEX
  5
399
  8
0
 10
13.33874999999998
 20
-0.3303149606299196
 30
0.0
  0
VERTEX
  5
39A
  8
0
 10
13.33874999999998
 20
-0.2503100393700771
 30
0.0
 42
-0.4142135623731015
  0
VERTEX
  5
39B
  8
0
 10
13.35843503937005
 20
-0.2306249999999979
 30
0.0
  0
VERTEX
  5
39C
  8
0
 10
13.40556496062991
 20
-0.2306249999999979
 30
0.0
 42
0.4142135623730931
  0
VERTEX
  5
39D
  8
0
 10
13.425249999999981
 20
-0.2109399606299193
 30
0.0
  0
VERTEX
  5
39E
  8
0
 10
13.425249999999981
 20
-0.0196850393700784
 30
0.0
 42
0.4142135623730971
  0
VERTEX
  5
39F
  8
0
 10
13.40556496062991
 20
0.0000000000000005
 30
0.0
  0
VERTEX
  5
3A0
  8
0
 10
8.019685039370076
 20
-0.0000000000000004
 30
0.0
 42
-0.4142135623730951
  0
VERTEX
  5
3A1
  8
0
 10
7.9999999999999956
 20
0.0196850393700784
 30
0.0
  0
SEQEND
  5
373
  8
0
  0
POLYLINE
  5
3A2
  8
0
 66
     1
 10
0.0
 20
0.0
 30
0.0
 70
     1
  0
VERTEX
  5
3A3
  8
0
 10
0.5099999999999957
 20
-2.4917342858021359
 30
0.0
  0
VERTEX
  5
3A4
  8
0
 10
0.5099999999999957
 20
-3.4723642070619789
 30
0.0
 42
-0.4142135623730951
  0
VERTEX
  5
3A6
  8
0
 10
0.4903149606299175
 20
-3.4920492464320581
 30
0.0
  0
VERTEX
  5
3A7
  8
0
 10
0.3846850393700747
 20
-3.4920492464320581
 30
0.0
 42
-0.4142135623730951
  0
VERTEX
  5
3A8
  8
0
 10
0.3649999999999962
 20
-3.4723642070619789
 30
0.0
  0
VERTEX
  5
3A9
  8
0
 10
0.3649999999999965
 20
-2.4917342858021359
 30
0.0
 42
-0.4142135623730951
  0
VERTEX
  5
3AA
  8
0
 10
0.3846850393700749
 20
-2.472049246432058
 30
0.0
  0
VERTEX
  5
3AB
  8
0
 10
0.4903149606299175
 20
-2.472049246432058
 30
0.0
 42
-0.4142135623730951
  0
SEQEND
  5
3A5
  8
0
  0
POLYLINE
  5
3AC
  8
0
 66
     1
 10
0.0
 20
0.0
 30
0.0
 70
     1
  0
VERTEX
  5
3AD
  8
0
 10
14.634999999999961
 20
-2.491734285802131
 30
0.0
  0
VERTEX
  5
3AE
  8
0
 10
14.634999999999961
 20
-3.472364207061974
 30
0.0
 42
-0.4142135623730951
  0
VERTEX
  5
3B0
  8
0
 10
14.615314960629879
 20
-3.4920492464320518
 30
0.0
  0
VERTEX
  5
3B1
  8
0
 10
14.509685039370041
 20
-3.4920492464320518
 30
0.0
 42
-0.4142135623730951
  0
VERTEX
  5
3B2
  8
0
 10
14.489999999999959
 20
-3.472364207061974
 30
0.0
  0
VERTEX
  5
3B3
  8
0
 10
14.489999999999959
 20
-2.491734285802131
 30
0.0
 42
-0.4142135623730951
  0
VERTEX
  5
3B4
  8
0
 10
14.509685039370041
 20
-2.4720492464320518
 30
0.0
  0
VERTEX
  5
3B5
  8
0
 10
14.615314960629879
 20
-2.4720492464320518
 30
0.0
 42
-0.4142135623730951
  0
SEQEND
  5
3AF
  8
0
  0
POLYLINE
  5
3B6
  8
0
 66
     1
 10
0.0
 20
0.0
 30
0.0
 70
     1
  0
VERTEX
  5
3B7
  8
0
 10
14.0308096739079
 20
-2.9182643918147551
 30
0.0
  0
VERTEX
  5
3B8
  8
0
 10
13.84992480336256
 20
-2.7790648486618328
 30
0.0
 42
-0.5303518432617894
  0
VERTEX
  5
3BA
  8
0
 10
13.85189105468482
 20
-2.7465316388789169
 30
0.0
  0
VERTEX
  5
3BB
  8
0
 10
14.032775925230149
 20
-2.6392892848709488
 30
0.0
 42
-0.5812121436003546
  0
VERTEX
  5
3BC
  8
0
 10
14.062499999999959
 20
-2.656222050245943
 30
0.0
  0
VERTEX
  5
3BD
  8
0
 10
14.062499999999959
 20
-2.9026639474068352
 30
0.0
 42
-0.6223241095353025
  0
SEQEND
  5
3B9
  8
0
  0
POLYLINE
  5
3BE
  8
0
 66
     1
 10
0.0
 20
0.0
 30
0.0
 70
     1
  0
VERTEX
  5
3BF
  8
0
 10
6.2665852715089079
 20
-0.6055611651229866
 30
0.0
  0
VERTEX
  5
3C0
  8
0
 10
6.1983818013161542
 20
-0.5331854006481782
 30
0.0
 42
-0.6575020058471003
  0
VERTEX
  5
3C2
  8
0
 10
6.2127080367031073
 20
-0.5000000000000013
 30
0.0
  0
VERTEX
  5
3C3
  8
0
 10
6.4170305225933069
 20
-0.5000000000000011
 30
0.0
 42
-0.7812856265067384
  0
VERTEX
  5
3C4
  8
0
 10
6.4262720887898794
 20
-0.5370658974972244
 30
0.0
  0
VERTEX
  5
3C5
  8
0
 10
6.2901530730924353
 20
-0.6094416619720322
 30
0.0
 42
-0.3379950748094492
  0
SEQEND
  5
3C1
  8
0
  0
POLYLINE
  5
3C6
  8
0
 66
     1
 10
0.0
 20
0.0
 30
0.0
 70
     1
  0
VERTEX
  5
3C7
  8
0
 10
13.363648923121151
 20
-2.0527512692951091
 30
0.0
  0
VERTEX
  5
3C8
  8
0
 10
13.75621121997186
 20
-1.928556298179428
 30
0.0
 42
-0.3519388967114765
  0
VERTEX
  5
3CA
  8
0
 10
13.779196655192891
 20
-1.9374819590128101
 30
0.0
  0
VERTEX
  5
3CB
  8
0
 10
14.059862704798871
 20
-2.4236098168900111
 30
0.0
 42
-0.1316524975873733
  0
VERTEX
  5
3CC
  8
0
 10
14.062499999999959
 20
-2.4334523365750509
 30
0.0
  0
VERTEX
  5
3CD
  8
0
 10
14.062499999999959
 20
-2.5174494016223838
 30
0.0
 42
-0.2648524159738725
  0
VERTEX
  5
3CE
  8
0
 10
14.052853996029601
 20
-2.5343821669973812
 30
0.0
  0
VERTEX
  5
3CF
  8
0
 10
13.7701119621095
 20
-2.702013219849829
 30
0.0
 42
-0.3068890064765393
  0
VERTEX
  5
3D0
  8
0
 10
13.7480676399878
 20
-2.7006808988827542
 30
0.0
  0
VERTEX
  5
3D1
  8
0
 10
13.357581327451211
 20
-2.400183039948002
 30
0.0
 42
-0.232799283598697
  0
VERTEX
  5
3D2
  8
0
 10
13.349901574803109
 20
-2.3845825955400821
 30
0.0
  0
VERTEX
  5
3D3
  8
0
 10
13.349901574803109
 20
-2.0715194498135299
 30
0.0
 42
-0.3270637906303082
  0
SEQEND
  5
3C9
  8
0
  0
POLYLINE
  5
3D4
  8
0
 66
     1
 10
0.0
 20
0.0
 30
0.0
 70
     1
  0
VERTEX
  5
3D5
  8
0
 10
13.33021653543303
 20
-2.7754344057578502
 30
0.0
 42
0.4142135623730951
  0
VERTEX
  5
3D6
  8
0
 10
13.349901574803109
 20
-2.755749366387771
 30
0.0
  0
VERTEX
  5
3D8
  8
0
 10
13.349901574803109
 20
-2.5352068109897701
 30
0.0
 42
-0.6223241095352865
  0
VERTEX
  5
3D9
  8
0
 10
13.38159190089517
 20
-2.5196063665818511
 30
0.0
  0
VERTEX
  5
3DA
  8
0
 10
13.66152216745707
 20
-2.7350260703006661
 30
0.0
 42
-0.530351843261835
  0
VERTEX
  5
3DB
  8
0
 10
13.65955591613481
 20
-2.7675592800835829
 30
0.0
  0
VERTEX
  5
3DC
  8
0
 10
13.32040345637191
 20
-2.9686347378756759
 30
0.0
 42
-0.2646966748746428
  0
VERTEX
  5
3DD
  8
0
 10
13.300928912210409
 20
-2.9689783132419358
 30
0.0
  0
VERTEX
  5
3DE
  8
0
 10
13.014227562519791
 20
-2.8123957858691861
 30
0.0
 42
-0.7767895504564127
  0
VERTEX
  5
3DF
  8
0
 10
13.02366307128157
 20
-2.7754344057578502
 30
0.0
  0
SEQEND
  5
3D7
  8
0
  0
POLYLINE
  5
3E0
  8
0
 66
     1
 10
0.0
 20
0.0
 30
0.0
 70
     1
  0
VERTEX
  5
3E1
  8
0
 10
12.774624597688209
 20
-2.7754344057578502
 30
0.0
 42
-0.1256257104203358
  0
VERTEX
  5
3E2
  8
0
 10
12.78406010644998
 20
-2.777843104386672
 30
0.0
  0
VERTEX
  5
3E4
  8
0
 10
13.200388616628199
 20
-3.005221770065726
 30
0.0
 42
-0.5814068620035792
  0
VERTEX
  5
3E5
  8
0
 10
13.20099214326615
 20
-3.0394308761819779
 30
0.0
  0
VERTEX
  5
3E6
  8
0
 10
12.78017130327127
 20
-3.28892558162973
 30
0.0
 42
-0.20837677354315
  0
VERTEX
  5
3E7
  8
0
 10
12.764567773710461
 20
-3.2908750083873439
 30
0.0
  0
VERTEX
  5
3E8
  8
0
 10
11.66317412039678
 20
-2.9662994236311162
 30
0.0
 42
-0.1995021091653076
  0
VERTEX
  5
3E9
  8
0
 10
11.651430874842291
 20
-2.9567950202005031
 30
0.0
  0
VERTEX
  5
3EA
  8
0
 10
11.568911927606241
 20
-2.8044972338299261
 30
0.0
 42
-0.5683676721744213
  0
VERTEX
  5
3EB
  8
0
 10
11.586219667321821
 20
-2.7754344057578502
 30
0.0
  0
SEQEND
  5
3E3
  8
0
  0
POLYLINE
  5
3EC
  8
0
 66
     1
 10
0.0
 20
0.0
 30
0.0
 70
     1
  0
VERTEX
  5
3ED
  8
0
 10
9.4325787401574441
 20
-1.2006312561515511
 30
0.0
 42
0.4142135623730951
  0
VERTEX
  5
3EE
  8
0
 10
9.4128937007873663
 20
-1.2203162955216289
 30
0.0
  0
VERTEX
  5
3F0
  8
0
 10
9.4128937007873663
 20
-1.452764326116232
 30
0.0
 42
-0.2679491924311311
  0
VERTEX
  5
3F1
  8
0
 10
9.4030511811023256
 20
-1.4698120702852171
 30
0.0
  0
VERTEX
  5
3F2
  8
0
 10
9.015459410195362
 20
-1.6935882835540359
 30
0.0
 42
-0.3095517095007468
  0
VERTEX
  5
3F3
  8
0
 10
8.9932821698141723
 20
-1.6918818379073239
 30
0.0
  0
VERTEX
  5
3F4
  8
0
 10
8.472915042742855
 20
-1.2734959260130749
 30
0.0
 42
-0.3684294385574998
  0
VERTEX
  5
3F5
  8
0
 10
8.4681509102256811
 20
-1.248401166884904
 30
0.0
  0
VERTEX
  5
3F6
  8
0
 10
8.5926342545643291
 20
-1.0301686319564889
 30
0.0
 42
-0.17767190236971
  0
VERTEX
  5
3F7
  8
0
 10
8.6030004277909278
 20
-1.0214242063264449
 30
0.0
  0
VERTEX
  5
3F8
  8
0
 10
9.1737661922764744
 20
-0.8136824573155127
 30
0.0
 42
-0.21548270677666
  0
VERTEX
  5
3F9
  8
0
 10
9.1899343810249743
 20
-0.8149040028101987
 30
0.0
  0
VERTEX
  5
3FA
  8
0
 10
9.8285218930469256
 20
-1.1636698760402151
 30
0.0
 42
-0.7767895504564658
  0
VERTEX
  5
3FB
  8
0
 10
9.8190863842851481
 20
-1.20063125615155
 30
0.0
  0
SEQEND
  5
3EF
  8
0
  0
POLYLINE
  5
3FC
  8
0
 66
     1
 10
0.0
 20
0.0
 30
0.0
 70
     1
  0
VERTEX
  5
3FD
  8
0
 10
11.46776128516221
 20
-2.7857416564259321
 30
0.0
  0
VERTEX
  5
3FE
  8
0
 10
11.524482780064931
 20
-2.8904274092458691
 30
0.0
 42
-0.667358468749781
  0
VERTEX
  5
400
  8
0
 10
11.501610546188269
 20
-2.9186873900804762
 30
0.0
  0
VERTEX
  5
401
  8
0
 10
11.218985499386481
 20
-2.8353991038655919
 30
0.0
 42
-0.5983691355677666
  0
VERTEX
  5
402
  8
0
 10
11.21189669414429
 20
-2.8014372967109549
 30
0.0
  0
VERTEX
  5
403
  8
0
 10
11.237397201843271
 20
-2.7800398301059031
 30
0.0
 42
-0.1763269807084653
  0
VERTEX
  5
404
  8
0
 10
11.25005050124655
 20
-2.7754344057578502
 30
0.0
  0
VERTEX
  5
405
  8
0
 10
11.45045354544663
 20
-2.7754344057578502
 30
0.0
 42
-0.2752111864351002
  0
SEQEND
  5
3FF
  8
0
  0
POLYLINE
  5
406
  8
0
 66
     1
 10
0.0
 20
0.0
 30
0.0
 70
     1
  0
VERTEX
  5
407
  8
0
 10
9.3808739407211341
 20
-2.003513622617259
 30
0.0
  0
VERTEX
  5
408
  8
0
 10
9.0930647068659756
 20
-1.772109057467675
 30
0.0
 42
-0.5272401887532057
  0
VERTEX
  5
40A
  8
0
 10
9.0955569078770875
 20
-1.739720014776418
 30
0.0
  0
VERTEX
  5
40B
  8
0
 10
9.3833661417322478
 20
-1.5735532761348801
 30
0.0
 42
-0.5773502691896156
  0
VERTEX
  5
40C
  8
0
 10
9.4128937007873663
 20
-1.590601020303865
 30
0.0
  0
VERTEX
  5
40D
  8
0
 10
9.4128937007873663
 20
-1.9881723240949869
 30
0.0
 42
-0.6297336085912129
  0
SEQEND
  5
409
  8
0
  0
POLYLINE
  5
40E
  8
0
 66
     1
 10
0.0
 20
0.0
 30
0.0
 70
     1
  0
VERTEX
  5
40F
  8
0
 10
9.3876441672561999
 20
-2.295711334668737
 30
0.0
  0
VERTEX
  5
410
  8
0
 10
8.6007264767625831
 20
-2.0638103528730438
 30
0.0
 42
-0.6592533089428335
  0
VERTEX
  5
412
  8
0
 10
8.5964484512386292
 20
-2.027880416571449
 30
0.0
  0
VERTEX
  5
413
  8
0
 10
8.9846753445125724
 20
-1.803737515233087
 30
0.0
 42
-0.3095517095007443
  0
VERTEX
  5
414
  8
0
 10
9.0068525848937622
 20
-1.805443960879799
 30
0.0
  0
VERTEX
  5
415
  8
0
 10
9.4055433821134375
 20
-2.1259995918578838
 30
0.0
 42
-0.2271944257987388
  0
VERTEX
  5
416
  8
0
 10
9.4128937007873663
 20
-2.1413408903801572
 30
0.0
  0
VERTEX
  5
417
  8
0
 10
9.4128937007873663
 20
-2.2768291425361271
 30
0.0
 42
-0.5008718522011025
  0
SEQEND
  5
411
  8
0
  0
POLYLINE
  5
418
  8
0
 66
     1
 10
0.0
 20
0.0
 30
0.0
 70
     1
  0
VERTEX
  5
419
  8
0
 10
9.4128937007873663
 20
-2.755749366387771
 30
0.0
 42
0.4142135623730951
  0
VERTEX
  5
41A
  8
0
 10
9.4325787401574441
 20
-2.7754344057578502
 30
0.0
  0
VERTEX
  5
41C
  8
0
 10
10.20634519064374
 20
-2.7754344057578502
 30
0.0
 42
-0.1709331303467478
  0
VERTEX
  5
41D
  8
0
 10
10.218679911339899
 20
-2.7797781466056559
 30
0.0
  0
VERTEX
  5
41E
  8
0
 10
10.354305341422521
 20
-2.888823792053191
 30
0.0
 42
-0.5987495405156124
  0
VERTEX
  5
41F
  8
0
 10
10.34790831177841
 20
-2.9229332710938851
 30
0.0
  0
VERTEX
  5
420
  8
0
 10
8.8979462768207256
 20
-3.3816578977201801
 30
0.0
 42
-0.2879537483914054
  0
VERTEX
  5
421
  8
0
 10
8.8776823503817326
 20
-3.3763900784798548
 30
0.0
  0
VERTEX
  5
422
  8
0
 10
8.6762069778431812
 20
-3.1625896066107071
 30
0.0
 42
-0.4732317724286619
  0
VERTEX
  5
423
  8
0
 10
8.6801017316507387
 20
-3.1323953851720479
 30
0.0
  0
VERTEX
  5
424
  8
0
 10
9.3827771798378947
 20
-2.693315033260745
 30
0.0
 42
-0.5890450164205392
  0
VERTEX
  5
425
  8
0
 10
9.4128937007873663
 20
-2.7100088934213038
 30
0.0
  0
SEQEND
  5
41B
  8
0
  0
POLYLINE
  5
426
  8
0
 66
     1
 10
0.0
 20
0.0
 30
0.0
 70
     1
  0
VERTEX
  5
427
  8
0
 10
9.4036401429966805
 20
-2.5859441347238401
 30
0.0
  0
VERTEX
  5
428
  8
0
 10
8.6174801271693493
 20
-3.0771914343108921
 30
0.0
 42
-0.3575596436553579
  0
VERTEX
  5
42A
  8
0
 10
8.5927224102030024
 20
-3.073997935428431
 30
0.0
  0
VERTEX
  5
42B
  8
0
 10
7.9726481531243572
 20
-2.415991117587907
 30
0.0
 42
-0.4839573021428413
  0
VERTEX
  5
42C
  8
0
 10
7.9771318688262713
 20
-2.3854430121408239
 30
0.0
  0
VERTEX
  5
42D
  8
0
 10
8.4537431349440855
 20
-2.110271369348895
 30
0.0
 42
-0.2053614654378889
  0
VERTEX
  5
42E
  8
0
 10
8.4691501487902112
 20
-2.1084369213852701
 30
0.0
  0
VERTEX
  5
42F
  8
0
 10
9.3987731555783736
 20
-2.3823924958733831
 30
0.0
 42
-0.3325588037825491
  0
VERTEX
  5
430
  8
0
 10
9.4128937007873663
 20
-2.4012746880059939
 30
0.0
  0
VERTEX
  5
431
  8
0
 10
9.4128937007873663
 20
-2.5692502745632808
 30
0.0
 42
-0.2586175843558997
  0
SEQEND
  5
429
  8
0
  0
POLYLINE
  5
432
  8
0
 66
     1
 10
0.0
 20
0.0
 30
0.0
 70
     1
  0
VERTEX
  5
433
  8
0
 10
10.09290907499768
 20
-1.163898472612487
 30
0.0
  0
VERTEX
  5
434
  8
0
 10
10.45327770601819
 20
-0.9558395464852965
 30
0.0
 42
-0.4221594671801931
  0
VERTEX
  5
436
  8
0
 10
10.48042796541881
 20
-0.9635095019522839
 30
0.0
  0
VERTEX
  5
437
  8
0
 10
10.59315976511353
 20
-1.171568428079476
 30
0.0
 42
-0.5683676721743998
  0
VERTEX
  5
438
  8
0
 10
10.57585202539796
 20
-1.2006312561515511
 30
0.0
  0
VERTEX
  5
439
  8
0
 10
10.10275159468272
 20
-1.20063125615155
 30
0.0
 42
-0.7673269879789658
  0
SEQEND
  5
435
  8
0
  0
CIRCLE
  5
43A
  8
0
 10
11.38139763779524
 20
-1.9880328309547
 30
0.0
 40
0.4724409448818899
  0
CIRCLE
  5
43B
  8
0
 10
12.562499999999959
 20
-1.9880328309547
 30
0.0
 40
0.4724409448818899
  0
CIRCLE
  5
43C
  8
0
 10
10.200295275590509
 20
-1.9880328309547
 30
0.0
 40
0.4724409448818899
  0
CIRCLE
  5
43D
  8
0
 10
14.562499999999959
 20
-1.9880328309547
 30
0.0
 40
0.07475
  0
CIRCLE
  5
43E
  8
0
 10
0.4374999999999962
 20
-1.9880328309547119
 30
0.0
 40
0.07475
  0
CIRCLE
  5
43F
  8
0
 10
11.81446850393697
 20
-0.8503156280757758
 30
0.0
 40
0.0645
  0
CIRCLE
  5
440
  8
0
 10
10.9483267716535
 20
-0.8503156280757758
 30
0.0
 40
0.0645
  0
ENDSEC
  0
EOF
