  0
SECTION
  2
HEADER
  9
$ACADVER
  1
AC1009
  9
$INSBASE
 10
0.0
 20
0.0
 30
0.0
  9
$EXTMIN
 10
0.0
 20
0.0
 30
0.0
  9
$EXTMAX
 10
16.51793840353297
 20
2.7842108005733599
 30
0.0
  9
$LIMMIN
 10
0.0
 20
0.0
  9
$LIMMAX
 10
16.51793840353297
 20
2.7842108005733599
  9
$ORTHOMODE
 70
     0
  9
$REGENMODE
 70
     1
  9
$FILLMODE
 70
     1
  9
$QTEXTMODE
 70
     0
  9
$MIRRTEXT
 70
     0
  9
$DRAGMODE
 70
     2
  9
$LTSCALE
 40
1.0
  9
$OSMODE
 70
     0
  9
$ATTMODE
 70
     1
  9
$TEXTSIZE
 40
0.2
  9
$TRACEWID
 40
0.05
  9
$TEXTSTYLE
  7
STANDARD
  9
$CLAYER
  8
0
  9
$CELTYPE
  6
BYLAYER
  9
$CECOLOR
 62
   256
  9
$DIMSCALE
 40
1.0
  9
$DIMASZ
 40
0.0708661417322835
  9
$DIMEXO
 40
0.0625
  9
$DIMDLI
 40
0.38
  9
$DIMRND
 40
0.0
  9
$DIMDLE
 40
0.0
  9
$DIMEXE
 40
0.18
  9
$DIMTP
 40
0.0
  9
$DIMTM
 40
0.0
  9
$DIMTXT
 40
0.0708661417322835
  9
$DIMCEN
 40
0.09
  9
$DIMTSZ
 40
0.0
  9
$DIMTOL
 70
     0
  9
$DIMLIM
 70
     0
  9
$DIMTIH
 70
     1
  9
$DIMTOH
 70
     1
  9
$DIMSE1
 70
     0
  9
$DIMSE2
 70
     0
  9
$DIMTAD
 70
     0
  9
$DIMZIN
 70
     0
  9
$DIMBLK
  1

  9
$DIMASO
 70
     1
  9
$DIMSHO
 70
     1
  9
$DIMPOST
  1

  9
$DIMAPOST
  1

  9
$DIMALT
 70
     0
  9
$DIMALTD
 70
     2
  9
$DIMALTF
 40
25.399999999999999
  9
$DIMLFAC
 40
1.0
  9
$DIMTOFL
 70
     0
  9
$DIMTVP
 40
0.0
  9
$DIMTIX
 70
     0
  9
$DIMSOXD
 70
     0
  9
$DIMSAH
 70
     0
  9
$DIMBLK1
  1

  9
$DIMBLK2
  1

  9
$DIMSTYLE
  2
STANDARD
  9
$DIMCLRD
 70
     0
  9
$DIMCLRE
 70
     0
  9
$DIMCLRT
 70
     0
  9
$DIMTFAC
 40
1.0
  9
$DIMGAP
 40
0.09
  9
$LUNITS
 70
     2
  9
$LUPREC
 70
     4
  9
$SKETCHINC
 40
0.1
  9
$FILLETRAD
 40
0.0
  9
$AUNITS
 70
     0
  9
$AUPREC
 70
     0
  9
$MENU
  1
.
  9
$ELEVATION
 40
0.0
  9
$PELEVATION
 40
0.0
  9
$THICKNESS
 40
0.0
  9
$LIMCHECK
 70
     0
  9
$BLIPMODE
 70
     0
  9
$CHAMFERA
 40
0.0
  9
$CHAMFERB
 40
0.0
  9
$SKPOLY
 70
     0
  9
$TDCREATE
 40
2456337.7680402198
  9
$TDUPDATE
 40
2456337.7680402198
  9
$TDINDWG
 40
0.000002581
  9
$TDUSRTIMER
 40
0.000002581
  9
$USRTIMER
 70
     1
  9
$ANGBASE
 50
0.0
  9
$ANGDIR
 70
     0
  9
$PDMODE
 70
     0
  9
$PDSIZE
 40
0.0
  9
$PLINEWID
 40
0.0
  9
$COORDS
 70
     0
  9
$SPLFRAME
 70
     0
  9
$SPLINETYPE
 70
     6
  9
$SPLINESEGS
 70
     8
  9
$ATTDIA
 70
     0
  9
$ATTREQ
 70
     1
  9
$HANDLING
 70
     1
  9
$HANDSEED
  5
3DA
  9
$SURFTAB1
 70
     6
  9
$SURFTAB2
 70
     6
  9
$SURFTYPE
 70
     6
  9
$SURFU
 70
     6
  9
$SURFV
 70
     6
  9
$UCSNAME
  2

  9
$UCSORG
 10
0.0
 20
0.0
 30
0.0
  9
$UCSXDIR
 10
1.0
 20
0.0
 30
0.0
  9
$UCSYDIR
 10
0.0
 20
1.0
 30
0.0
  9
$PUCSNAME
  2

  9
$PUCSORG
 10
0.0
 20
0.0
 30
0.0
  9
$PUCSXDIR
 10
1.0
 20
0.0
 30
0.0
  9
$PUCSYDIR
 10
0.0
 20
1.0
 30
0.0
  9
$USERI1
 70
     0
  9
$USERI2
 70
     0
  9
$USERI3
 70
     0
  9
$USERI4
 70
     0
  9
$USERI5
 70
     0
  9
$USERR1
 40
0.0
  9
$USERR2
 40
0.0
  9
$USERR3
 40
0.0
  9
$USERR4
 40
0.0
  9
$USERR5
 40
0.0
  9
$WORLDVIEW
 70
     1
  9
$SHADEDGE
 70
     3
  9
$SHADEDIF
 70
    70
  9
$TILEMODE
 70
     1
  9
$MAXACTVP
 70
    64
  9
$PLIMCHECK
 70
     0
  9
$PEXTMIN
 10
0.0
 20
0.0
 30
0.0
  9
$PEXTMAX
 10
16.51793840353297
 20
2.7842108005733599
 30
0.0
  9
$PLIMMIN
 10
0.0
 20
0.0
  9
$PLIMMAX
 10
16.51793840353297
 20
2.7842108005733599
  9
$UNITMODE
 70
     0
  9
$VISRETAIN
 70
     1
  9
$PLINEGEN
 70
     0
  9
$PSLTSCALE
 70
     1
  0
ENDSEC
  0
SECTION
  2
TABLES
  0
TABLE
  2
VPORT
 70
     1
  0
VPORT
  2
*ACTIVE
 70
     0
 10
0.0
 20
0.0
 11
1.0
 21
1.0
 12
7.5000000000000027
 22
-1.1364734492507409
 13
0.0
 23
0.0
 14
1.0
 24
1.0
 15
0.0
 25
0.0
 16
0.0
 26
0.0
 36
1.0
 17
0.0
 27
0.0
 37
0.0
 40
2.7842108005733599
 41
5.932718312899075
 42
50.0
 43
0.0
 44
0.0
 50
0.0
 51
0.0
 71
     0
 72
   100
 73
     1
 74
     1
 75
     0
 76
     0
 77
     0
 78
     0
  0
ENDTAB
  0
TABLE
  2
LTYPE
 70
    59
  0
LTYPE
  2
CONTINUOUS
 70
     0
  3
Solid line
 72
    65
 73
     0
 40
0.0
  0
LTYPE
  2
PHANTOM2
 70
     0
  3
Phantom (.5x) ___ _ _ ___ _ _ ___ _ _ ___ _ _
 72
    65
 73
     6
 40
1.25
 49
0.625
 49
-0.125
 49
0.125
 49
-0.125
 49
0.125
 49
-0.125
  0
LTYPE
  2
BY_STANDARD
 70
     0
  3
By Standard ____________    ____    ____   _
 72
    65
 73
     6
 40
1.2402999999999991
 49
0.6614
 49
-0.0827
 49
0.1654
 49
-0.0827
 49
0.1654
 49
-0.0827
  0
LTYPE
  2
CHAIN
 70
     0
  3
Chain ____ _ ____ _ ____ _ ____ _ ____ _ ____
 72
    65
 73
     4
 40
0.7087
 49
0.4724000000000001
 49
-0.0591
 49
0.1181
 49
-0.0591
  0
LTYPE
  2
DASH_DOT
 70
     0
  3
Dash dot __ . __ . __ . __ . __ . __ . __ . __
 72
    65
 73
     4
 40
0.37
 49
0.24
 49
-0.06
 49
0.01
 49
-0.06
  0
LTYPE
  2
DOUBLE_DASH_DOT
 70
     0
  3
Double-Dash Dot __ __ . __ __ . __ __ . __ _
 72
    65
 73
     6
 40
0.4398
 49
0.24
 49
-0.06
 49
0.0098
 49
-0.06
 49
0.01
 49
-0.06
  0
LTYPE
  2
DASH_TRIPLE_DOT
 70
     0
  3
Dash Triple-Dot _ . . . _ . . . _ . . . _
 72
    65
 73
     8
 40
0.51
 49
0.24
 49
-0.06
 49
0.01
 49
-0.06
 49
0.01
 49
-0.06
 49
0.01
 49
-0.06
  0
LTYPE
  2
DASHED
 70
     0
  3
Dashed __ __ __ __ __ __ __ __ __ __ __ __ __ _
 72
    65
 73
     2
 40
0.2067
 49
0.1654
 49
-0.0413
  0
LTYPE
  2
DASH_DOUBLE_DOT
 70
     0
  3
Dash Double-Dot __ . . __ . . __ . . __ . .
 72
    65
 73
     6
 40
0.4398
 49
0.24
 49
-0.06
 49
0.0098
 49
-0.06
 49
0.01
 49
-0.06
  0
LTYPE
  2
DASHED_SPACE
 70
     0
  3
Dashed Space __ __ __ __ __ __ __ __ __ __ __ _
 72
    65
 73
     2
 40
0.2067
 49
0.1654
 49
-0.0413
  0
LTYPE
  2
DOTTED
 70
     0
  3
Dotted . . . . . . . . . . . . . . . . . . . . 
 72
    65
 73
     2
 40
0.0482
 49
0.0069
 49
-0.0413
  0
LTYPE
  2
DOUBLE_DASH_CHAIN
 70
     0
  3
Double-Dash Chain ______  __  __  ______  __  _
 72
    65
 73
     6
 40
1.2402999999999991
 49
0.6614
 49
-0.0827
 49
0.1654
 49
-0.0827
 49
0.1654
 49
-0.0827
  0
LTYPE
  2
DOUBLE_DASH_DOUBLE_DOT
 70
     0
  3
Double-Dash Double-dot _ _ . . _ _ . . _
 72
    65
 73
     8
 40
0.7400000000000001
 49
0.24
 49
-0.06
 49
0.24
 49
-0.06
 49
0.01
 49
-0.06
 49
0.01
 49
-0.06
  0
LTYPE
  2
DOUBLE_DASH_TRIPLE_DOT
 70
     0
  3
Double Dash Triple Dot __ __ . . . __ __ . .
 72
    65
 73
    10
 40
0.8100000000000001
 49
0.24
 49
-0.06
 49
0.24
 49
-0.06
 49
0.01
 49
-0.06
 49
0.01
 49
-0.06
 49
0.01
 49
-0.06
  0
LTYPE
  2
LONG_DASH_DOTTED
 70
     0
  3
Long Dash Dotted ____ . ____ . ____ . ____ . _
 72
    65
 73
     4
 40
0.3543
 49
0.2362
 49
-0.0295
 49
0.0591
 49
-0.0295
  0
LTYPE
  2
LONG_DASH_DOUBLE_DOT
 70
     0
  3
Long Dash Double Dot ________  .  .  ________  
 72
    65
 73
     6
 40
0.6799999999999999
 49
0.48
 49
-0.06
 49
0.01
 49
-0.06
 49
0.01
 49
-0.06
  0
LTYPE
  2
LONG_DASH_TRIPLE_DOT
 70
     0
  3
Long Dash Triple Dot ____ ... ____ ... ____
 72
    65
 73
     8
 40
0.3689
 49
0.2362
 49
-0.0295
 49
0.0049
 49
-0.0295
 49
0.0049
 49
-0.0295
 49
0.0049
 49
-0.0295
  0
LTYPE
  2
BORDER
 70
     0
  3
Border __ __ . __ __ . __ __ . __ __ . __ __ .
 72
    65
 73
     6
 40
1.75
 49
0.5
 49
-0.25
 49
0.5
 49
-0.25
 49
0.0
 49
-0.25
  0
LTYPE
  2
BORDER2
 70
     0
  3
Border (.5x) __.__.__.__.__.__.__.__.__.__.__.
 72
    65
 73
     6
 40
0.875
 49
0.25
 49
-0.125
 49
0.25
 49
-0.125
 49
0.0
 49
-0.125
  0
LTYPE
  2
BORDERX2
 70
     0
  3
Border (2x) ____  ____  .  ____  ____  .  ___
 72
    65
 73
     6
 40
3.5
 49
1.0
 49
-0.5
 49
1.0
 49
-0.5
 49
0.0
 49
-0.5
  0
LTYPE
  2
CENTER
 70
     0
  3
Center ____ _ ____ _ ____ _ ____ _ ____ _ ____
 72
    65
 73
     4
 40
2.0
 49
1.25
 49
-0.25
 49
0.25
 49
-0.25
  0
LTYPE
  2
CENTER2
 70
     0
  3
Center (.5x) ___ _ ___ _ ___ _ ___ _ ___ _ ___
 72
    65
 73
     4
 40
1.125
 49
0.75
 49
-0.125
 49
0.125
 49
-0.125
  0
LTYPE
  2
CENTERX2
 70
     0
  3
Center (2x) ________  __  ________  __  _____
 72
    65
 73
     4
 40
4.0
 49
2.5
 49
-0.5
 49
0.5
 49
-0.5
  0
LTYPE
  2
DASHDOT2
 70
     0
  3
Dash dot (.5x) _._._._._._._._._._._._._._._.
 72
    65
 73
     4
 40
0.5
 49
0.25
 49
-0.125
 49
0.0
 49
-0.125
  0
LTYPE
  2
DASHDOTX2
 70
     0
  3
Dash dot (2x) ____  .  ____  .  ____  .  ___
 72
    65
 73
     4
 40
2.0
 49
1.0
 49
-0.5
 49
0.0
 49
-0.5
  0
LTYPE
  2
DASHED2
 70
     0
  3
Dashed (.5x) _ _ _ _ _ _ _ _ _ _ _ _ _ _ _ _ _
 72
    65
 73
     2
 40
0.375
 49
0.25
 49
-0.125
  0
LTYPE
  2
DASHEDX2
 70
     0
  3
Dashed (2x) ____  ____  ____  ____  ____  ___
 72
    65
 73
     2
 40
1.5
 49
1.0
 49
-0.5
  0
LTYPE
  2
DIVIDE
 70
     0
  3
Divide ____ . . ____ . . ____ . . ____ . . ____
 72
    65
 73
     6
 40
1.25
 49
0.5
 49
-0.25
 49
0.0
 49
-0.25
 49
0.0
 49
-0.25
  0
LTYPE
  2
DIVIDE2
 70
     0
  3
Divide (.5x) __..__..__..__..__..__..__..__.._
 72
    65
 73
     6
 40
0.625
 49
0.25
 49
-0.125
 49
0.0
 49
-0.125
 49
0.0
 49
-0.125
  0
LTYPE
  2
DIVIDEX2
 70
     0
  3
Divide (2x) ________  .  .  ________  .  .  _
 72
    65
 73
     6
 40
2.5
 49
1.0
 49
-0.5
 49
0.0
 49
-0.5
 49
0.0
 49
-0.5
  0
LTYPE
  2
DOT
 70
     0
  3
Dot . . . . . . . . . . . . . . . . . . . . . .
 72
    65
 73
     2
 40
0.25
 49
0.0
 49
-0.25
  0
LTYPE
  2
DOT2
 70
     0
  3
Dot (.5x) .....................................
 72
    65
 73
     2
 40
0.125
 49
0.0
 49
-0.125
  0
LTYPE
  2
DOTX2
 70
     0
  3
Dot (2x) .  .  .  .  .  .  .  .  .  .  .  .  . 
 72
    65
 73
     2
 40
0.5
 49
0.0
 49
-0.5
  0
LTYPE
  2
HIDDEN
 70
     0
  3
Hidden __ __ __ __ __ __ __ __ __ __ __ __ __ _
 72
    65
 73
     2
 40
0.375
 49
0.25
 49
-0.125
  0
LTYPE
  2
HIDDEN2
 70
     0
  3
Hidden (.5x) _ _ _ _ _ _ _ _ _ _ _ _ _ _ _ _ _
 72
    65
 73
     2
 40
0.1875
 49
0.125
 49
-0.0625
  0
LTYPE
  2
HIDDENX2
 70
     0
  3
Hidden (2x) ____ ____ ____ ____ ____ ____ ____
 72
    65
 73
     2
 40
0.75
 49
0.5
 49
-0.25
  0
LTYPE
  2
PHANTOM
 70
     0
  3
Phantom ______  __  __  ______  __  __  ______
 72
    65
 73
     6
 40
2.5
 49
1.25
 49
-0.25
 49
0.25
 49
-0.25
 49
0.25
 49
-0.25
  0
LTYPE
  2
PHANTOMX2
 70
     0
  3
Phantom (2x) ____________    ____    ____   _
 72
    65
 73
     6
 40
5.0
 49
2.5
 49
-0.5
 49
0.5
 49
-0.5
 49
0.5
 49
-0.5
  0
LTYPE
  2
ACAD_ISO02W100
 70
     0
  3
ISO dash __ __ __ __ __ __ __ __ __ __ __ __ __
 72
    65
 73
     2
 40
0.59
 49
0.47
 49
-0.12
  0
LTYPE
  2
ACAD_ISO03W100
 70
     0
  3
ISO dash space __    __    __    __    __    __
 72
    65
 73
     2
 40
1.179999999999999
 49
0.47
 49
-0.71
  0
LTYPE
  2
ACAD_ISO04W100
 70
     0
  3
ISO long-dash dot ____ . ____ . ____ . ____ . _
 72
    65
 73
     4
 40
1.179999999999999
 49
0.9399999999999998
 49
-0.12
 49
0.0
 49
-0.12
  0
LTYPE
  2
ACAD_ISO05W100
 70
     0
  3
ISO long-dash double-dot ____ .. ____ .. ____ .
 72
    65
 73
     6
 40
1.2999999999999989
 49
0.9399999999999998
 49
-0.12
 49
0.0
 49
-0.12
 49
0.0
 49
-0.12
  0
LTYPE
  2
ACAD_ISO06W100
 70
     0
  3
ISO long-dash triple-dot ____ ... ____ ... ____
 72
    65
 73
     8
 40
1.419999999999999
 49
0.9399999999999998
 49
-0.12
 49
0.0
 49
-0.12
 49
0.0
 49
-0.12
 49
0.0
 49
-0.12
  0
LTYPE
  2
ACAD_ISO07W100
 70
     0
  3
ISO dot . . . . . . . . . . . . . . . . . . . .
 72
    65
 73
     2
 40
0.12
 49
0.0
 49
-0.12
  0
LTYPE
  2
ACAD_ISO08W100
 70
     0
  3
ISO long-dash short-dash ____ __ ____ __ ____ _
 72
    65
 73
     4
 40
0.95
 49
0.47
 49
-0.12
 49
0.24
 49
-0.12
  0
LTYPE
  2
ACAD_ISO09W100
 70
     0
  3
ISO long-dash double-short-dash ____ __ __ ____
 72
    65
 73
     6
 40
1.3100000000000001
 49
0.47
 49
-0.12
 49
0.24
 49
-0.12
 49
0.24
 49
-0.12
  0
LTYPE
  2
ACAD_ISO10W100
 70
     0
  3
ISO dash dot __ . __ . __ . __ . __ . __ . __ .
 72
    65
 73
     4
 40
0.71
 49
0.47
 49
-0.12
 49
0.0
 49
-0.12
  0
LTYPE
  2
ACAD_ISO11W100
 70
     0
  3
ISO double-dash dot __ __ . __ __ . __ __ . __ 
 72
    65
 73
     6
 40
1.2999999999999989
 49
0.47
 49
-0.12
 49
0.47
 49
-0.12
 49
0.0
 49
-0.12
  0
LTYPE
  2
ACAD_ISO12W100
 70
     0
  3
ISO dash double-dot __ . . __ . . __ . . __ . .
 72
    65
 73
     6
 40
0.8299999999999999
 49
0.47
 49
-0.12
 49
0.0
 49
-0.12
 49
0.0
 49
-0.12
  0
LTYPE
  2
ACAD_ISO13W100
 70
     0
  3
ISO double-dash double-dot __ __ . . __ __ . . 
 72
    65
 73
     8
 40
1.419999999999999
 49
0.47
 49
-0.12
 49
0.47
 49
-0.12
 49
0.0
 49
-0.12
 49
0.0
 49
-0.12
  0
LTYPE
  2
ACAD_ISO14W100
 70
     0
  3
ISO dash triple-dot __ . . . __ . . . __ . . . 
 72
    65
 73
     8
 40
0.95
 49
0.47
 49
-0.12
 49
0.0
 49
-0.12
 49
0.0
 49
-0.12
 49
0.0
 49
-0.12
  0
LTYPE
  2
ACAD_ISO15W100
 70
     0
  3
ISO double-dash triple-dot __ __ . . . __ __ . 
 72
    65
 73
    10
 40
1.5399999999999989
 49
0.47
 49
-0.12
 49
0.47
 49
-0.12
 49
0.0
 49
-0.12
 49
0.0
 49
-0.12
 49
0.0
 49
-0.12
  0
LTYPE
  2
FENCELINE1
 70
     0
  3
Fenceline circle ----0-----0----0-----0----0---
 72
    65
 73
     4
 40
1.45
 49
0.25
 49
-0.1
 49
-0.1
 49
1.0
  0
LTYPE
  2
FENCELINE2
 70
     0
  3
Fenceline square ----[]-----[]----[]-----[]----
 72
    65
 73
     4
 40
1.45
 49
0.25
 49
-0.1
 49
-0.1
 49
1.0
  0
LTYPE
  2
TRACKS
 70
     0
  3
Tracks -|-|-|-|-|-|-|-|-|-|-|-|-|-|-|-|-|-|-|-|
 72
    65
 73
     2
 40
0.3
 49
0.15
 49
0.15
  0
LTYPE
  2
BATTING
 70
     0
  3
Batting SSSSSSSSSSSSSSSSSSSSSSSSSSSSSSSSSSSSSSS
 72
    65
 73
     4
 40
0.4001000000000001
 49
0.0001
 49
-0.1
 49
-0.2
 49
-0.1
  0
LTYPE
  2
HOT_WATER_SUPPLY
 70
     0
  3
Hot water supply ---- HW ---- HW ---- HW ----
 72
    65
 73
     3
 40
0.9
 49
0.5
 49
-0.2
 49
-0.2
  0
LTYPE
  2
GAS_LINE
 70
     0
  3
Gas line ----GAS----GAS----GAS----GAS----GAS---
 72
    65
 73
     3
 40
0.95
 49
0.5
 49
-0.2
 49
-0.25
  0
LTYPE
  2
ZIGZAG
 70
     0
  3
Zig zag /\/\/\/\/\/\/\/\/\/\/\/\/\/\/\/\/\/\/\/
 72
    65
 73
     4
 40
0.8001000000000001
 49
0.0001
 49
-0.2
 49
-0.4
 49
-0.2
  0
ENDTAB
  0
TABLE
  2
LAYER
 70
     1
  0
LAYER
  2
0
 70
     0
 62
     7
  6
CONTINUOUS
  0
ENDTAB
  0
TABLE
  2
STYLE
 70
     3
  0
STYLE
  2
STANDARD
 70
     0
 40
0.0
 41
1.0
 50
0.0
 71
     0
 42
0.2
  3
txt
  4

  0
STYLE
  2
ANNOTATIVE
 70
     0
 40
0.0
 41
1.0
 50
0.0
 71
     0
 42
0.2
  3
txt
  4

  0
STYLE
  2

 70
     1
 40
0.0
 41
1.0
 50
0.0
 71
     0
 42
0.2
  3
ltypeshp.shx
  4

  0
ENDTAB
  0
TABLE
  2
VIEW
 70
     0
  0
ENDTAB
  0
TABLE
  2
UCS
 70
     0
  0
ENDTAB
  0
TABLE
  2
APPID
 70
     3
  0
APPID
  2
ACAD
 70
     0
  0
APPID
  2
ACADANNOTATIVE
 70
     0
  0
APPID
  2
ACAD_MLEADERVER
 70
     0
  0
ENDTAB
  0
TABLE
  2
DIMSTYLE
 70
     2
  0
DIMSTYLE
  2
STANDARD
 70
     0
  3

  4

  5

  6

  7

 40
1.0
 41
0.18
 42
0.0625
 43
0.38
 44
0.18
 45
0.0
 46
0.0
 47
0.0
 48
0.0
140
0.18
141
0.09
142
0.0
143
25.399999999999999
144
1.0
145
0.0
146
1.0
147
0.09
 71
     0
 72
     0
 73
     1
 74
     1
 75
     0
 76
     0
 77
     0
 78
     0
170
     0
171
     2
172
     0
173
     0
174
     0
175
     0
176
     0
177
     0
178
     0
  0
DIMSTYLE
  2
ANNOTATIVE
 70
     0
  3

  4

  5

  6

  7

 40
1.0
 41
0.18
 42
0.0625
 43
0.38
 44
0.18
 45
0.0
 46
0.0
 47
0.0
 48
0.0
140
0.18
141
0.09
142
0.0
143
25.399999999999999
144
1.0
145
0.0
146
1.0
147
0.09
 71
     0
 72
     0
 73
     1
 74
     1
 75
     0
 76
     0
 77
     0
 78
     0
170
     0
171
     2
172
     0
173
     0
174
     0
175
     0
176
     0
177
     0
178
     0
  0
ENDTAB
  0
ENDSEC
  0
SECTION
  2
BLOCKS
  0
BLOCK
  8
0
  2
$MODEL_SPACE
 70
     0
 10
0.0
 20
0.0
 30
0.0
  3
$MODEL_SPACE
  1

  0
ENDBLK
  5
73
  8
0
  0
BLOCK
 67
     1
  8
0
  2
$PAPER_SPACE
 70
     0
 10
0.0
 20
0.0
 30
0.0
  3
$PAPER_SPACE
  1

  0
ENDBLK
  5
6F
 67
     1
  8
0
  0
ENDSEC
  0
SECTION
  2
ENTITIES
  0
POLYLINE
  5
B7
  8
0
 66
     1
 10
0.0
 20
0.0
 30
0.0
 70
     1
  0
VERTEX
  5
B8
  8
0
 10
3.4396710842559579
 20
-1.2662991221307289
 30
0.0
  0
VERTEX
  5
B9
  8
0
 10
4.1612382901599334
 20
-0.506132812544022
 30
0.0
 42
-0.2056898749439855
  0
VERTEX
  5
BB
  8
0
 10
4.175515472061714
 20
-0.5000000000000057
 30
0.0
  0
VERTEX
  5
BC
  8
0
 10
4.4197692529940031
 20
-0.5000000000000057
 30
0.0
 42
-0.2044136078731823
  0
VERTEX
  5
BD
  8
0
 10
4.4339798703857971
 20
-0.5060630304013023
 30
0.0
  0
VERTEX
  5
BE
  8
0
 10
4.603842129183553
 20
-0.6832650550521944
 30
0.0
 42
-0.5019438730535716
  0
VERTEX
  5
BF
  8
0
 10
4.5986209915351592
 20
-0.7143996317637312
 30
0.0
  0
VERTEX
  5
C0
  8
0
 10
3.462937745901137
 20
-1.2973639166995461
 30
0.0
 42
-0.8441679174605166
  0
SEQEND
  5
BA
  8
0
  0
POLYLINE
  5
C2
  8
0
 66
     1
 10
0.0
 20
0.0
 30
0.0
 70
     1
  0
VERTEX
  5
C3
  8
0
 10
4.7808276354403683
 20
-1.8624236652830579
 30
0.0
  0
VERTEX
  5
C4
  8
0
 10
5.1838610553624553
 20
-1.321499330044889
 30
0.0
 42
-0.4637728342173216
  0
VERTEX
  5
C6
  8
0
 10
5.2138568830143326
 20
-1.319638609782982
 30
0.0
  0
VERTEX
  5
C7
  8
0
 10
5.6547564354485749
 20
-1.779589477692034
 30
0.0
 42
-0.3546104378461195
  0
VERTEX
  5
C8
  8
0
 10
5.6568053357942718
 20
-1.8043078310113569
 30
0.0
  0
VERTEX
  5
C9
  8
0
 10
5.6015448113895854
 20
-1.885281298340473
 30
0.0
 42
-0.2478840373864747
  0
VERTEX
  5
CA
  8
0
 10
5.5852852936520927
 20
-1.8938699933600109
 30
0.0
  0
VERTEX
  5
CB
  8
0
 10
4.7966128457004533
 20
-1.8938699933600109
 30
0.0
 42
-0.6169446869056531
  0
SEQEND
  5
C5
  8
0
  0
POLYLINE
  5
CC
  8
0
 66
     1
 10
0.0
 20
0.0
 30
0.0
 70
     1
  0
VERTEX
  5
CD
  8
0
 10
0.9375000000000143
 20
-1.0230553646490159
 30
0.0
  0
VERTEX
  5
CE
  8
0
 10
0.9375000000000143
 20
-0.5196850393700855
 30
0.0
 42
-0.4142135623730964
  0
VERTEX
  5
D0
  8
0
 10
0.957185039370093
 20
-0.5000000000000067
 30
0.0
  0
VERTEX
  5
D1
  8
0
 10
1.1520939503632071
 20
-0.5000000000000066
 30
0.0
 42
-0.0971725611946192
  0
VERTEX
  5
D2
  8
0
 10
1.159531954907596
 20
-0.5014593195379576
 30
0.0
  0
VERTEX
  5
D3
  8
0
 10
1.4354940626570609
 20
-0.6140807924029811
 30
0.0
 42
-0.457544831337201
  0
VERTEX
  5
D4
  8
0
 10
1.445009325458646
 20
-0.6423108863433426
 30
0.0
  0
VERTEX
  5
D5
  8
0
 10
1.1705900217716241
 20
-1.107337860541864
 30
0.0
 42
-0.3647909712754676
  0
VERTEX
  5
D6
  8
0
 10
1.1466748808324401
 20
-1.1157463376814329
 30
0.0
  0
VERTEX
  5
D7
  8
0
 10
0.9502231657768824
 20
-1.041468215896818
 30
0.0
 42
-0.3118888101615187
  0
SEQEND
  5
CF
  8
0
  0
POLYLINE
  5
D8
  8
0
 66
     1
 10
0.0
 20
0.0
 30
0.0
 70
     1
  0
VERTEX
  5
D9
  8
0
 10
2.5488350996465581
 20
-1.7665873534107559
 30
0.0
  0
VERTEX
  5
DA
  8
0
 10
2.3051057225762071
 20
-1.891697521732687
 30
0.0
 42
-0.1191195418312581
  0
VERTEX
  5
DC
  8
0
 10
2.2961162428328081
 20
-1.8938699933600109
 30
0.0
  0
VERTEX
  5
DD
  8
0
 10
1.4103994798077331
 20
-1.893869993360012
 30
0.0
 42
-0.690529356503139
  0
VERTEX
  5
DE
  8
0
 10
1.3973570315481261
 20
-1.8594406222520401
 30
0.0
  0
VERTEX
  5
DF
  8
0
 10
1.834645613187416
 20
-1.4726266382794959
 30
0.0
 42
-0.2782958846512206
  0
VERTEX
  5
E0
  8
0
 10
1.854649935040233
 20
-1.4689581187695859
 30
0.0
  0
VERTEX
  5
E1
  8
0
 10
2.5468074934963689
 20
-1.730661934420199
 30
0.0
 42
-0.6501293738431633
  0
SEQEND
  5
DB
  8
0
  0
POLYLINE
  5
E2
  8
0
 66
     1
 10
0.0
 20
0.0
 30
0.0
 70
     1
  0
VERTEX
  5
E3
  8
0
 10
2.82454199331498
 20
-1.714986788638331
 30
0.0
  0
VERTEX
  5
E4
  8
0
 10
2.8755774035073989
 20
-1.6887895003331579
 30
0.0
 42
-0.8441679174605221
  0
VERTEX
  5
E6
  8
0
 10
2.898844065152578
 20
-1.7198542949019751
 30
0.0
  0
VERTEX
  5
E7
  8
0
 10
2.867065663991577
 20
-1.7533326316909379
 30
0.0
 42
-0.3019356610151281
  0
VERTEX
  5
E8
  8
0
 10
2.8458266084965871
 20
-1.7581932561126781
 30
0.0
  0
VERTEX
  5
E9
  8
0
 10
2.8265695994651692
 20
-1.7509122076288881
 30
0.0
 42
-0.6501293738431633
  0
SEQEND
  5
E5
  8
0
  0
POLYLINE
  5
EA
  8
0
 66
     1
 10
0.0
 20
0.0
 30
0.0
 70
     1
  0
VERTEX
  5
EB
  8
0
 10
1.2500040502313341
 20
-1.130175460539254
 30
0.0
  0
VERTEX
  5
EC
  8
0
 10
1.522806224459442
 20
-0.6678888504807988
 30
0.0
 42
-0.3721704862862655
  0
VERTEX
  5
EE
  8
0
 10
1.5471974963498041
 20
-0.6596675047569051
 30
0.0
  0
VERTEX
  5
EF
  8
0
 10
2.2608267445277348
 20
-0.9509030575825948
 30
0.0
 42
-0.5560458381267857
  0
VERTEX
  5
F0
  8
0
 10
2.2664311882429531
 20
-0.9838731091526154
 30
0.0
  0
VERTEX
  5
F1
  8
0
 10
1.8355835318383971
 20
-1.3649896199801339
 30
0.0
 42
-0.2782958846512302
  0
VERTEX
  5
F2
  8
0
 10
1.815579209985579
 20
-1.3686581394900439
 30
0.0
  0
VERTEX
  5
F3
  8
0
 10
1.259995443984097
 20
-1.15859268589529
 30
0.0
 42
-0.4654258726015054
  0
SEQEND
  5
ED
  8
0
  0
POLYLINE
  5
F4
  8
0
 66
     1
 10
0.0
 20
0.0
 30
0.0
 70
     1
  0
VERTEX
  5
F5
  8
0
 10
0.9641469129633037
 20
-1.132260157620754
 30
0.0
  0
VERTEX
  5
F6
  8
0
 10
1.099027430127377
 20
-1.1832582946309169
 30
0.0
 42
-0.4654258726014967
  0
VERTEX
  5
F8
  8
0
 10
1.1090188238801399
 20
-1.2116755199869531
 30
0.0
  0
VERTEX
  5
F9
  8
0
 10
0.9741383067160665
 20
-1.440242089220281
 30
0.0
 42
-0.7635523567769715
  0
VERTEX
  5
FA
  8
0
 10
0.9375000000000143
 20
-1.4302377151120469
 30
0.0
  0
VERTEX
  5
FB
  8
0
 10
0.9375000000000143
 20
-1.1506730088685571
 30
0.0
 42
-0.5245194444137125
  0
SEQEND
  5
F7
  8
0
  0
POLYLINE
  5
FC
  8
0
 66
     1
 10
0.0
 20
0.0
 30
0.0
 70
     1
  0
VERTEX
  5
FD
  8
0
 10
1.5841219338047909
 20
-0.563984138222569
 30
0.0
  0
VERTEX
  5
FE
  8
0
 10
1.616167217335603
 20
-0.5096806652618512
 30
0.0
 42
-0.2653998050109632
  0
VERTEX
  5
100
  8
0
 10
1.633120484681577
 20
-0.5000000000000063
 30
0.0
  0
VERTEX
  5
101
  8
0
 10
2.3833105288483409
 20
-0.5000000000000063
 30
0.0
 42
-0.1819042947147286
  0
VERTEX
  5
102
  8
0
 10
2.3962868036966478
 20
-0.5048824360158523
 30
0.0
  0
VERTEX
  5
103
  8
0
 10
2.5862250952181709
 20
-0.6713863553616629
 30
0.0
 42
-0.4518660515657856
  0
VERTEX
  5
104
  8
0
 10
2.5862912686294708
 20
-0.7009332904537884
 30
0.0
  0
VERTEX
  5
105
  8
0
 10
2.3661682417001781
 20
-0.8956483335299681
 30
0.0
 42
-0.2853091798424549
  0
VERTEX
  5
106
  8
0
 10
2.3456877888961829
 20
-0.8991297216242031
 30
0.0
  0
VERTEX
  5
107
  8
0
 10
1.5936371966063769
 20
-0.5922142321629306
 30
0.0
 42
-0.4575448313372077
  0
SEQEND
  5
FF
  8
0
  0
POLYLINE
  5
108
  8
0
 66
     1
 10
0.0
 20
0.0
 30
0.0
 70
     1
  0
VERTEX
  5
109
  8
0
 10
2.4633700173413331
 20
-0.9164735581330965
 30
0.0
  0
VERTEX
  5
10A
  8
0
 10
2.650696097442323
 20
-0.7507698320623454
 30
0.0
 42
-0.3775375475189802
  0
VERTEX
  5
10C
  8
0
 10
2.6767148205502358
 20
-0.7507115604460055
 30
0.0
  0
VERTEX
  5
10D
  8
0
 10
3.193564319517697
 20
-1.2037927511876241
 30
0.0
 42
-0.846278789996878
  0
VERTEX
  5
10E
  8
0
 10
3.1731500401250008
 20
-1.2368210743739829
 30
0.0
  0
VERTEX
  5
10F
  8
0
 10
2.4689744610565501
 20
-0.949443609703117
 30
0.0
 42
-0.5560458381267921
  0
SEQEND
  5
10B
  8
0
  0
POLYLINE
  5
110
  8
0
 66
     1
 10
0.0
 20
0.0
 30
0.0
 70
     1
  0
VERTEX
  5
111
  8
0
 10
4.471093798935156
 20
-1.8938699933600109
 30
0.0
  0
VERTEX
  5
112
  8
0
 10
4.1095324177127939
 20
-1.8938699933600109
 30
0.0
 42
-0.1819042947147386
  0
VERTEX
  5
114
  8
0
 10
4.0965561428644861
 20
-1.888987557344165
 30
0.0
  0
VERTEX
  5
115
  8
0
 10
3.7816152198214201
 20
-1.612903690162937
 30
0.0
 42
-0.8462787899968581
  0
VERTEX
  5
116
  8
0
 10
3.8020294992141159
 20
-1.579875366976577
 30
0.0
  0
VERTEX
  5
117
  8
0
 10
4.4785318034795418
 20
-1.8559592341578039
 30
0.0
 42
-0.8228673143469603
  0
SEQEND
  5
113
  8
0
  0
POLYLINE
  5
118
  8
0
 66
     1
 10
0.0
 20
0.0
 30
0.0
 70
     1
  0
VERTEX
  5
119
  8
0
 10
2.6760468197822802
 20
-1.6939997527924291
 30
0.0
  0
VERTEX
  5
11A
  8
0
 10
1.941795674575389
 20
-1.4163804102036091
 30
0.0
 42
-0.5645829921025451
  0
VERTEX
  5
11C
  8
0
 10
1.935715099908994
 20
-1.3832232272179139
 30
0.0
  0
VERTEX
  5
11D
  8
0
 10
2.3636329638841072
 20
-1.0046983337557429
 30
0.0
 42
-0.2853091798424469
  0
VERTEX
  5
11E
  8
0
 10
2.3841134166881019
 20
-1.001216945661509
 30
0.0
  0
VERTEX
  5
11F
  8
0
 10
3.2201295457475339
 20
-1.3423991773868409
 30
0.0
 42
-0.5278379726309728
  0
VERTEX
  5
120
  8
0
 10
3.2269687231049251
 20
-1.3741771240450309
 30
0.0
  0
VERTEX
  5
121
  8
0
 10
3.1472405460820791
 20
-1.4581702345988909
 30
0.0
 42
-0.0844999422580056
  0
VERTEX
  5
122
  8
0
 10
3.1419528439236979
 20
-1.4621305755155829
 30
0.0
  0
VERTEX
  5
123
  8
0
 10
2.6919981731188889
 20
-1.6930994692873811
 30
0.0
 42
-0.2120261791001122
  0
SEQEND
  5
11B
  8
0
  0
POLYLINE
  5
124
  8
0
 66
     1
 10
0.0
 20
0.0
 30
0.0
 70
     1
  0
VERTEX
  5
125
  8
0
 10
4.672785280116285
 20
-1.8488294796780951
 30
0.0
  0
VERTEX
  5
126
  8
0
 10
3.5089138580511792
 20
-1.373847914826875
 30
0.0
 42
-0.255175423613127
  0
VERTEX
  5
128
  8
0
 10
3.5195165422016599
 20
-1.3582452918364369
 30
0.0
  0
VERTEX
  5
129
  8
0
 10
4.6668456621958061
 20
-0.7693029942418079
 30
0.0
 42
-0.3316076824720763
  0
VERTEX
  5
12A
  8
0
 10
4.6900457593310003
 20
-0.77319355301578
 30
0.0
  0
VERTEX
  5
12B
  8
0
 10
5.130098930118403
 20
-1.232261467039083
 30
0.0
 42
-0.3663322294606028
  0
VERTEX
  5
12C
  8
0
 10
5.1316735229866923
 20
-1.2576447647147411
 30
0.0
  0
VERTEX
  5
12D
  8
0
 10
4.6960084949207577
 20
-1.8423650485528431
 30
0.0
 42
-0.3419449080553583
  0
SEQEND
  5
127
  8
0
  0
POLYLINE
  5
12E
  8
0
 66
     1
 10
0.0
 20
0.0
 30
0.0
 70
     1
  0
VERTEX
  5
12F
  8
0
 10
1.2123479932790351
 20
-1.2261046428447751
 30
0.0
  0
VERTEX
  5
130
  8
0
 10
1.7284334704504221
 20
-1.421235848056021
 30
0.0
 42
-0.5645829921025654
  0
VERTEX
  5
132
  8
0
 10
1.7345140451168191
 20
-1.454393031041717
 30
0.0
  0
VERTEX
  5
133
  8
0
 10
1.2432760073109661
 20
-1.8889292857278259
 30
0.0
 42
-0.1830613838833324
  0
VERTEX
  5
134
  8
0
 10
1.2302335590513589
 20
-1.8938699933600109
 30
0.0
  0
VERTEX
  5
135
  8
0
 10
0.9571850393700923
 20
-1.893869993360012
 30
0.0
 42
-0.4142135623730951
  0
VERTEX
  5
136
  8
0
 10
0.9375000000000135
 20
-1.8741849539899329
 30
0.0
  0
VERTEX
  5
137
  8
0
 10
0.9375000000000143
 20
-1.6651154470108851
 30
0.0
 42
-0.1340746376564353
  0
VERTEX
  5
138
  8
0
 10
0.9402317720241196
 20
-1.655111072902651
 30
0.0
  0
VERTEX
  5
139
  8
0
 10
1.18843285233985
 20
-1.2345131199843431
 30
0.0
 42
-0.3647909712754676
  0
SEQEND
  5
131
  8
0
  0
POLYLINE
  5
13A
  8
0
 66
     1
 10
0.0
 20
0.0
 30
0.0
 70
     1
  0
VERTEX
  5
13B
  8
0
 10
4.5851248202310924
 20
-0.5000000000000057
 30
0.0
  0
VERTEX
  5
13C
  8
0
 10
4.7542137578016641
 20
-0.5000000000000056
 30
0.0
 42
-0.0803454566398274
  0
VERTEX
  5
13E
  8
0
 10
4.7604189596169837
 20
-0.5010035981667751
 30
0.0
  0
VERTEX
  5
13F
  8
0
 10
4.870084400707321
 20
-0.5374299202436282
 30
0.0
 42
-0.6647349246543768
  0
VERTEX
  5
140
  8
0
 10
4.8728686786354007
 20
-0.5736239291896924
 30
0.0
  0
VERTEX
  5
141
  8
0
 10
4.7094450936252521
 20
-0.6575118563413364
 30
0.0
 42
-0.3316076824720763
  0
VERTEX
  5
142
  8
0
 10
4.6862449964900579
 20
-0.6536212975673647
 30
0.0
  0
VERTEX
  5
143
  8
0
 10
4.5709142028392984
 20
-0.5333070483388662
 30
0.0
 42
-0.6605591193308662
  0
SEQEND
  5
13D
  8
0
  0
POLYLINE
  5
144
  8
0
 66
     1
 10
0.0
 20
0.0
 30
0.0
 70
     1
  0
VERTEX
  5
145
  8
0
 10
4.777669764285899
 20
-0.7124152188194133
 30
0.0
  0
VERTEX
  5
146
  8
0
 10
5.0135913558411991
 20
-0.5913129110670669
 30
0.0
 42
-0.2013924681824309
  0
VERTEX
  5
148
  8
0
 10
5.028786037399918
 20
-0.5901440376065109
 30
0.0
  0
VERTEX
  5
149
  8
0
 10
5.4840765829502622
 20
-0.741372719002152
 30
0.0
 42
-0.511256889559682
  0
VERTEX
  5
14A
  8
0
 10
5.4936565913950259
 20
-0.7718154489123376
 30
0.0
  0
VERTEX
  5
14B
  8
0
 10
5.2039904233619234
 20
-1.1605858873900801
 30
0.0
 42
-0.4637728342173103
  0
VERTEX
  5
14C
  8
0
 10
5.1739945957100462
 20
-1.1624466076519859
 30
0.0
  0
VERTEX
  5
14D
  8
0
 10
4.7724486266375052
 20
-0.7435497955309498
 30
0.0
 42
-0.5019438730535628
  0
SEQEND
  5
147
  8
0
  0
POLYLINE
  5
14E
  8
0
 66
     1
 10
0.0
 20
0.0
 30
0.0
 70
     1
  0
VERTEX
  5
14F
  8
0
 10
5.7774703933028801
 20
-1.769417737389537
 30
0.0
  0
VERTEX
  5
150
  8
0
 10
6.2868243989396406
 20
-1.0230592766492581
 30
0.0
 42
-0.3348994711779537
  0
VERTEX
  5
152
  8
0
 10
6.309289118492452
 20
-1.0154741797964879
 30
0.0
  0
VERTEX
  5
153
  8
0
 10
7.0052530858314714
 20
-1.246644613947137
 30
0.0
 42
-0.6314570956406573
  0
VERTEX
  5
154
  8
0
 10
7.00963711487063
 20
-1.281920300083919
 30
0.0
  0
VERTEX
  5
155
  8
0
 10
6.0555023116811846
 20
-1.8907791989234051
 30
0.0
 42
-0.1429578809433925
  0
VERTEX
  5
156
  8
0
 10
6.0449130808267064
 20
-1.8938699933600109
 30
0.0
  0
VERTEX
  5
157
  8
0
 10
5.8835209051064004
 20
-1.8938699933600109
 30
0.0
 42
-0.2044136078731734
  0
VERTEX
  5
158
  8
0
 10
5.8693102877146064
 20
-1.8878069629587151
 30
0.0
  0
VERTEX
  5
159
  8
0
 10
5.7795192936485771
 20
-1.794136090708859
 30
0.0
 42
-0.3546104378461048
  0
SEQEND
  5
151
  8
0
  0
POLYLINE
  5
15A
  8
0
 66
     1
 10
0.0
 20
0.0
 30
0.0
 70
     1
  0
VERTEX
  5
15B
  8
0
 10
13.119362338296691
 20
-0.5000000000000036
 30
0.0
  0
VERTEX
  5
15C
  8
0
 10
13.407910160642571
 20
-0.5000000000000036
 30
0.0
 42
-0.668502846421182
  0
VERTEX
  5
15E
  8
0
 10
13.421817102210881
 20
-0.5336169362695376
 30
0.0
  0
VERTEX
  5
15F
  8
0
 10
13.301163607707551
 20
-0.6540543117525725
 30
0.0
 42
-0.3669479760313183
  0
VERTEX
  5
160
  8
0
 10
13.275782639790039
 20
-0.6561176483412327
 30
0.0
  0
VERTEX
  5
161
  8
0
 10
13.107888311947489
 20
-0.535680272858199
 30
0.0
 42
-0.7288556995367969
  0
SEQEND
  5
15D
  8
0
  0
POLYLINE
  5
162
  8
0
 66
     1
 10
0.0
 20
0.0
 30
0.0
 70
     1
  0
VERTEX
  5
163
  8
0
 10
13.719320426638269
 20
-1.10009836913879
 30
0.0
  0
VERTEX
  5
164
  8
0
 10
13.49078486317852
 20
-1.3444618180279591
 30
0.0
 42
-0.2698902556668574
  0
VERTEX
  5
166
  8
0
 10
13.47181293143008
 20
-1.3501571137799839
 30
0.0
  0
VERTEX
  5
167
  8
0
 10
12.897580996907459
 20
-1.212318604838758
 30
0.0
 42
-0.5864236538736383
  0
VERTEX
  5
168
  8
0
 10
12.88826873111813
 20
-1.1792453984363569
 30
0.0
  0
VERTEX
  5
169
  8
0
 10
13.28603201973724
 20
-0.7821945981923149
 30
0.0
 42
-0.3669479760313175
  0
VERTEX
  5
16A
  8
0
 10
13.31141298765476
 20
-0.7801312616036543
 30
0.0
  0
VERTEX
  5
16B
  8
0
 10
13.716417197018
 20
-1.07065712189975
 30
0.0
 42
-0.452724078857682
  0
SEQEND
  5
165
  8
0
  0
POLYLINE
  5
16C
  8
0
 66
     1
 10
0.0
 20
0.0
 30
0.0
 70
     1
  0
VERTEX
  5
16D
  8
0
 10
13.87060920535407
 20
-1.0554521001092481
 30
0.0
  0
VERTEX
  5
16E
  8
0
 10
14.02843770466046
 20
-0.8866927357475388
 30
0.0
 42
-0.6803456477386649
  0
VERTEX
  5
170
  8
0
 10
14.0625
 20
-0.9001387494984621
 30
0.0
  0
VERTEX
  5
171
  8
0
 10
14.0625
 20
-1.182114864402896
 30
0.0
 42
-0.6107224710710167
  0
VERTEX
  5
172
  8
0
 10
14.03134093428072
 20
-1.1981100978910131
 30
0.0
  0
VERTEX
  5
173
  8
0
 10
13.87351243497433
 20
-1.0848933473482889
 30
0.0
 42
-0.452724078857684
  0
SEQEND
  5
16F
  8
0
  0
POLYLINE
  5
174
  8
0
 66
     1
 10
0.0
 20
0.0
 30
0.0
 70
     1
  0
VERTEX
  5
175
  8
0
 10
5.1623632376900588
 20
-0.514945936337103
 30
0.0
  0
VERTEX
  5
176
  8
0
 10
5.1872474548444343
 20
-0.5021724716273295
 30
0.0
 42
-0.1191195418312582
  0
VERTEX
  5
178
  8
0
 10
5.1962369345878328
 20
-0.5000000000000056
 30
0.0
  0
VERTEX
  5
179
  8
0
 10
5.656966279446908
 20
-0.5000000000000056
 30
0.0
 42
-0.6169446869056691
  0
VERTEX
  5
17A
  8
0
 10
5.6727514897069922
 20
-0.53144632807696
 30
0.0
  0
VERTEX
  5
17B
  8
0
 10
5.568782607963457
 20
-0.6709863648646027
 30
0.0
 42
-0.3234017418327331
  0
VERTEX
  5
17C
  8
0
 10
5.5467921958880542
 20
-0.6779065173610367
 30
0.0
  0
VERTEX
  5
17D
  8
0
 10
5.1651475156181386
 20
-0.5511399452831675
 30
0.0
 42
-0.6647349246543776
  0
SEQEND
  5
177
  8
0
  0
POLYLINE
  5
17E
  8
0
 66
     1
 10
0.0
 20
0.0
 30
0.0
 70
     1
  0
VERTEX
  5
17F
  8
0
 10
7.2640337058231417
 20
-1.214483602296889
 30
0.0
  0
VERTEX
  5
180
  8
0
 10
7.275443122876335
 20
-1.2072029485777429
 30
0.0
 42
-0.3879513718578033
  0
VERTEX
  5
182
  8
0
 10
7.3016017966085593
 20
-1.2117517286601509
 30
0.0
  0
VERTEX
  5
183
  8
0
 10
7.3131286765045767
 20
-1.226650871226973
 30
0.0
 42
-0.7406504630372915
  0
VERTEX
  5
184
  8
0
 10
7.2913540318115153
 20
-1.257377777281349
 30
0.0
  0
VERTEX
  5
185
  8
0
 10
7.268417734862302
 20
-1.249759288433671
 30
0.0
 42
-0.6314570956406581
  0
SEQEND
  5
181
  8
0
  0
POLYLINE
  5
186
  8
0
 66
     1
 10
0.0
 20
0.0
 30
0.0
 70
     1
  0
VERTEX
  5
187
  8
0
 10
5.6951012476104497
 20
-1.706070332129497
 30
0.0
  0
VERTEX
  5
188
  8
0
 10
5.2577525486059749
 20
-1.2498237503958849
 30
0.0
 42
-0.366332229460588
  0
VERTEX
  5
18A
  8
0
 10
5.2561779557376846
 20
-1.2244404527202279
 30
0.0
  0
VERTEX
  5
18B
  8
0
 10
5.5814151233680889
 20
-0.7879290122316665
 30
0.0
 42
-0.3234017418327301
  0
VERTEX
  5
18C
  8
0
 10
5.6034055354434926
 20
-0.7810088597352328
 30
0.0
  0
VERTEX
  5
18D
  8
0
 10
6.1914764550804522
 20
-0.9763416875590989
 30
0.0
 42
-0.4982401620364307
  0
VERTEX
  5
18E
  8
0
 10
6.2015307710026226
 20
-1.0061194731129479
 30
0.0
  0
VERTEX
  5
18F
  8
0
 10
5.7255713827397337
 20
-1.703544667511254
 30
0.0
 42
-0.4764392360508467
  0
SEQEND
  5
189
  8
0
  0
POLYLINE
  5
190
  8
0
 66
     1
 10
0.0
 20
0.0
 30
0.0
 70
     1
  0
VERTEX
  5
191
  8
0
 10
7.9783671103382918
 20
-1.607622535742095
 30
0.0
  0
VERTEX
  5
192
  8
0
 10
7.7722908033808613
 20
-1.6688578444645381
 30
0.0
 42
-0.3096547044753594
  0
VERTEX
  5
194
  8
0
 10
7.751114285705186
 20
-1.662033717713983
 30
0.0
  0
VERTEX
  5
195
  8
0
 10
7.6160813519035582
 20
-1.487496032748461
 30
0.0
 42
-0.7406504630372877
  0
VERTEX
  5
196
  8
0
 10
7.6378559965966213
 20
-1.4567691266940861
 30
0.0
  0
VERTEX
  5
197
  8
0
 10
7.9789652373556814
 20
-1.570071502937163
 30
0.0
 42
-0.7337430335354139
  0
SEQEND
  5
193
  8
0
  0
POLYLINE
  5
198
  8
0
 66
     1
 10
0.0
 20
0.0
 30
0.0
 70
     1
  0
VERTEX
  5
199
  8
0
 10
8.3649100995683661
 20
-1.5762189783078351
 30
0.0
  0
VERTEX
  5
19A
  8
0
 10
9.0328396057556457
 20
-1.377744587340336
 30
0.0
 42
-0.2691037306753486
  0
VERTEX
  5
19C
  8
0
 10
9.0520461208116672
 20
-1.3823819619794411
 30
0.0
  0
VERTEX
  5
19D
  8
0
 10
9.0974443115230272
 20
-1.42576170977493
 30
0.0
 42
-0.5041711738993149
  0
VERTEX
  5
19E
  8
0
 10
9.0934720155169444
 20
-1.457164217024816
 30
0.0
  0
VERTEX
  5
19F
  8
0
 10
8.6543894409963134
 20
-1.7033517428445
 30
0.0
 42
-0.2109750396373195
  0
VERTEX
  5
1A0
  8
0
 10
8.6385570949289843
 20
-1.7048628937604391
 30
0.0
  0
VERTEX
  5
1A1
  8
0
 10
8.3643119725509774
 20
-1.613770011112766
 30
0.0
 42
-0.7337430335354139
  0
SEQEND
  5
19B
  8
0
  0
POLYLINE
  5
1A2
  8
0
 66
     1
 10
0.0
 20
0.0
 30
0.0
 70
     1
  0
VERTEX
  5
1A3
  8
0
 10
8.7884125651509883
 20
-1.7199235768381089
 30
0.0
  0
VERTEX
  5
1A4
  8
0
 10
9.1644767007745624
 20
-1.5090696179904759
 30
0.0
 42
-0.3296359049451368
  0
VERTEX
  5
1A6
  8
0
 10
9.1877032852846643
 20
-1.5120076913153311
 30
0.0
  0
VERTEX
  5
1A7
  8
0
 10
9.5518380796310716
 20
-1.859952737027416
 30
0.0
 42
-0.6764302879931559
  0
VERTEX
  5
1A8
  8
0
 10
9.5382386393729792
 20
-1.8938699933600109
 30
0.0
  0
VERTEX
  5
1A9
  8
0
 10
9.2107674747487387
 20
-1.8938699933600109
 30
0.0
 42
-0.0803454566398268
  0
VERTEX
  5
1AA
  8
0
 10
9.2045622729334191
 20
-1.8928663951932421
 30
0.0
  0
VERTEX
  5
1AB
  8
0
 10
8.7918345075876783
 20
-1.755775308328789
 30
0.0
 42
-0.6515617040290023
  0
SEQEND
  5
1A5
  8
0
  0
POLYLINE
  5
1AC
  8
0
 66
     1
 10
0.0
 20
0.0
 30
0.0
 70
     1
  0
VERTEX
  5
1AD
  8
0
 10
7.1511932419897981
 20
-1.295119895488114
 30
0.0
  0
VERTEX
  5
1AE
  8
0
 10
7.4347339560897021
 20
-1.389300389096817
 30
0.0
 42
-0.1489957590395084
  0
VERTEX
  5
1B0
  8
0
 10
7.4440981971521261
 20
-1.395936365449062
 30
0.0
  0
VERTEX
  5
1B1
  8
0
 10
7.6595398732920961
 20
-1.6744068862318111
 30
0.0
 42
-0.5271200822366299
  0
VERTEX
  5
1B2
  8
0
 10
7.6495775052122843
 20
-1.705321942684497
 30
0.0
  0
VERTEX
  5
1B3
  8
0
 10
7.0177975352941688
 20
-1.8930545455915531
 30
0.0
 42
-0.072335489537285
  0
VERTEX
  5
1B4
  8
0
 10
7.0121904604962371
 20
-1.8938699933600109
 30
0.0
  0
VERTEX
  5
1B5
  8
0
 10
6.2668182155717176
 20
-1.8938699933600109
 30
0.0
 42
-0.7498457584011679
  0
VERTEX
  5
1B6
  8
0
 10
6.2562289847172368
 20
-1.8575907090564601
 30
0.0
  0
VERTEX
  5
1B7
  8
0
 10
7.1343988093199977
 20
-1.297207091757951
 30
0.0
 42
-0.225898005742296
  0
SEQEND
  5
1AF
  8
0
  0
POLYLINE
  5
1B8
  8
0
 66
     1
 10
0.0
 20
0.0
 30
0.0
 70
     1
  0
VERTEX
  5
1B9
  8
0
 10
7.839411084707228
 20
-1.732370332548713
 30
0.0
  0
VERTEX
  5
1BA
  8
0
 10
8.0564642705019764
 20
-1.6678732584426781
 30
0.0
 42
-0.7720823110750007
  0
VERTEX
  5
1BC
  8
0
 10
8.0761992870652541
 20
-1.7004505864174779
 30
0.0
  0
VERTEX
  5
1BD
  8
0
 10
7.9276761622616752
 20
-1.8535266305510461
 30
0.0
 42
-0.4564492120285526
  0
VERTEX
  5
1BE
  8
0
 10
7.8979787776185857
 20
-1.851864359028933
 30
0.0
  0
VERTEX
  5
1BF
  8
0
 10
7.829448716627418
 20
-1.763285389001398
 30
0.0
 42
-0.5271200822366344
  0
SEQEND
  5
1BB
  8
0
  0
POLYLINE
  5
1C0
  8
0
 66
     1
 10
0.0
 20
0.0
 30
0.0
 70
     1
  0
VERTEX
  5
1C1
  8
0
 10
7.1224775787039736
 20
-1.201284006892694
 30
0.0
  0
VERTEX
  5
1C2
  8
0
 10
6.3668567143023633
 20
-0.9502980198668458
 30
0.0
 42
-0.4982401620364245
  0
VERTEX
  5
1C4
  8
0
 10
6.3568023983801911
 20
-0.9205202343129961
 30
0.0
  0
VERTEX
  5
1C5
  8
0
 10
6.6379260013458836
 20
-0.5085886950195442
 30
0.0
 42
-0.2478840373864849
  0
VERTEX
  5
1C6
  8
0
 10
6.6541855190833763
 20
-0.500000000000005
 30
0.0
  0
VERTEX
  5
1C7
  8
0
 10
6.7412885070489761
 20
-0.5000000000000052
 30
0.0
 42
-0.2321199543618683
  0
VERTEX
  5
1C8
  8
0
 10
6.7568579499267178
 20
-0.5076395745190179
 30
0.0
  0
VERTEX
  5
1C9
  8
0
 10
7.2282580194605588
 20
-1.1169507589289831
 30
0.0
 42
-0.4409726742248629
  0
VERTEX
  5
1CA
  8
0
 10
7.2232778074372961
 20
-1.145590468713521
 30
0.0
  0
VERTEX
  5
1CB
  8
0
 10
7.1392720113737731
 20
-1.1991968106228581
 30
0.0
 42
-0.2258980057422955
  0
SEQEND
  5
1C3
  8
0
  0
POLYLINE
  5
1CC
  8
0
 66
     1
 10
0.0
 20
0.0
 30
0.0
 70
     1
  0
VERTEX
  5
1CD
  8
0
 10
8.6633661834368301
 20
-1.797401179850775
 30
0.0
  0
VERTEX
  5
1CE
  8
0
 10
8.8382896345704332
 20
-1.855503512786622
 30
0.0
 42
-0.8512596944874958
  0
VERTEX
  5
1D0
  8
0
 10
8.8320844327551136
 20
-1.8938699933600109
 30
0.0
  0
VERTEX
  5
1D1
  8
0
 10
8.5535337899261332
 20
-1.8938699933600109
 30
0.0
 42
-0.7723391316984071
  0
VERTEX
  5
1D2
  8
0
 10
8.5439066456741237
 20
-1.857014663702562
 30
0.0
  0
VERTEX
  5
1D3
  8
0
 10
8.6475338373694992
 20
-1.798912330766715
 30
0.0
 42
-0.2109750396373218
  0
SEQEND
  5
1CF
  8
0
  0
POLYLINE
  5
1D4
  8
0
 66
     1
 10
0.0
 20
0.0
 30
0.0
 70
     1
  0
VERTEX
  5
1D5
  8
0
 10
8.9446445952177598
 20
-1.3204944278496951
 30
0.0
  0
VERTEX
  5
1D6
  8
0
 10
8.4711522482668489
 20
-1.4611920678226531
 30
0.0
 42
-0.7720823110750266
  0
VERTEX
  5
1D8
  8
0
 10
8.4514172317035712
 20
-1.428614739847853
 30
0.0
  0
VERTEX
  5
1D9
  8
0
 10
8.7500477691466187
 20
-1.120829798009884
 30
0.0
 42
-0.411978453815999
  0
VERTEX
  5
1DA
  8
0
 10
8.7777751511700561
 20
-1.120305317420548
 30
0.0
  0
VERTEX
  5
1DB
  8
0
 10
8.9526369606779213
 20
-1.2873926192855589
 30
0.0
 42
-0.5759153106702359
  0
SEQEND
  5
1D7
  8
0
  0
POLYLINE
  5
1DC
  8
0
 66
     1
 10
0.0
 20
0.0
 30
0.0
 70
     1
  0
VERTEX
  5
1DD
  8
0
 10
9.1646398908499833
 20
-1.338580302679873
 30
0.0
  0
VERTEX
  5
1DE
  8
0
 10
9.2940316427276368
 20
-1.3001317105571371
 30
0.0
 42
-0.8946568912117363
  0
VERTEX
  5
1E0
  8
0
 10
9.3092658617775772
 20
-1.3361715924461279
 30
0.0
  0
VERTEX
  5
1E1
  8
0
 10
9.2023638898193933
 20
-1.3961100493761569
 30
0.0
 42
-0.3296359049451532
  0
VERTEX
  5
1E2
  8
0
 10
9.1791373053092897
 20
-1.3931719760513011
 30
0.0
  0
VERTEX
  5
1E3
  8
0
 10
9.1566475253898219
 20
-1.3716821112440101
 30
0.0
 42
-0.5759153106702409
  0
SEQEND
  5
1DF
  8
0
  0
POLYLINE
  5
1E4
  8
0
 66
     1
 10
0.0
 20
0.0
 30
0.0
 70
     1
  0
VERTEX
  5
1E5
  8
0
 10
8.1664298892332141
 20
-1.5480417704883209
 30
0.0
  0
VERTEX
  5
1E6
  8
0
 10
7.4944760723184354
 20
-1.3248465148786179
 30
0.0
 42
-0.1489957590395041
  0
VERTEX
  5
1E8
  8
0
 10
7.4851118312560114
 20
-1.318210538526374
 30
0.0
  0
VERTEX
  5
1E9
  8
0
 10
7.3715038102611414
 20
-1.171365762072885
 30
0.0
 42
-0.4409726742248573
  0
VERTEX
  5
1EA
  8
0
 10
7.376484022284405
 20
-1.142726052288348
 30
0.0
  0
VERTEX
  5
1EB
  8
0
 10
8.2177256545005903
 20
-0.6059073007482888
 30
0.0
 42
-0.3455022742196456
  0
VERTEX
  5
1EC
  8
0
 10
8.2419143256131626
 20
-0.6082693287192456
 30
0.0
  0
VERTEX
  5
1ED
  8
0
 10
8.6914684705481804
 20
-1.03783590664057
 30
0.0
 42
-0.4164522090226093
  0
VERTEX
  5
1EE
  8
0
 10
8.6919969720554331
 20
-1.0657758599762639
 30
0.0
  0
VERTEX
  5
1EF
  8
0
 10
8.2459711257592136
 20
-1.5254744572327279
 30
0.0
 42
-0.1286157462893094
  0
VERTEX
  5
1F0
  8
0
 10
8.2374502587918013
 20
-1.530636312461169
 30
0.0
  0
VERTEX
  5
1F1
  8
0
 10
8.1782421658464663
 20
-1.548229920886633
 30
0.0
 42
-0.1535734888702871
  0
SEQEND
  5
1E7
  8
0
  0
POLYLINE
  5
1F2
  8
0
 66
     1
 10
0.0
 20
0.0
 30
0.0
 70
     1
  0
VERTEX
  5
1F3
  8
0
 10
10.68890654231951
 20
-0.8021892408024028
 30
0.0
  0
VERTEX
  5
1F4
  8
0
 10
10.29706527951155
 20
-0.9186243664725955
 30
0.0
 42
-0.8946568912117351
  0
VERTEX
  5
1F6
  8
0
 10
10.281831060461609
 20
-0.8825844845836046
 30
0.0
  0
VERTEX
  5
1F7
  8
0
 10
10.54470828742434
 20
-0.7351928597372966
 30
0.0
 42
-0.1888463742943153
  0
VERTEX
  5
1F8
  8
0
 10
10.558930107455341
 20
-0.7332218405217204
 30
0.0
  0
VERTEX
  5
1F9
  8
0
 10
10.687894143300561
 20
-0.7641783396978357
 30
0.0
 42
-0.7670002632332622
  0
SEQEND
  5
1F5
  8
0
  0
POLYLINE
  5
1FA
  8
0
 66
     1
 10
0.0
 20
0.0
 30
0.0
 70
     1
  0
VERTEX
  5
1FB
  8
0
 10
11.13803278779624
 20
-0.7521891495224957
 30
0.0
  0
VERTEX
  5
1FC
  8
0
 10
11.2603058909125
 20
-0.7158558546943721
 30
0.0
 42
-0.2447052918644529
  0
VERTEX
  5
1FE
  8
0
 10
11.278154342721081
 20
-0.7193095628025084
 30
0.0
  0
VERTEX
  5
1FF
  8
0
 10
11.39670931942328
 20
-0.8134511776450054
 30
0.0
 42
-0.8029124409096818
  0
VERTEX
  5
200
  8
0
 10
11.37987326663365
 20
-0.8480083706414356
 30
0.0
  0
VERTEX
  5
201
  8
0
 10
11.13904518681519
 20
-0.7902000506270636
 30
0.0
 42
-0.7670002632332627
  0
SEQEND
  5
1FD
  8
0
  0
POLYLINE
  5
202
  8
0
 66
     1
 10
0.0
 20
0.0
 30
0.0
 70
     1
  0
VERTEX
  5
203
  8
0
 10
10.393051492605849
 20
-0.7285079809629521
 30
0.0
  0
VERTEX
  5
204
  8
0
 10
9.8984748391985153
 20
-1.0058102691793811
 30
0.0
 42
-0.2446596203922927
  0
VERTEX
  5
206
  8
0
 10
9.8803071182014364
 20
-1.0063757992525999
 30
0.0
  0
VERTEX
  5
207
  8
0
 10
9.2102556789260923
 20
-0.6837165918448138
 30
0.0
 42
-0.511848498835407
  0
VERTEX
  5
208
  8
0
 10
9.2046683139058132
 20
-0.6522730351110443
 30
0.0
  0
VERTEX
  5
209
  8
0
 10
9.3466127925602294
 20
-0.5059773029969036
 30
0.0
 42
-0.2028383388578302
  0
VERTEX
  5
20A
  8
0
 10
9.3607407343255744
 20
-0.5000000000000046
 30
0.0
  0
VERTEX
  5
20B
  8
0
 10
9.5850039826600302
 20
-0.5000000000000046
 30
0.0
 42
-0.0589638408447014
  0
VERTEX
  5
20C
  8
0
 10
9.589598658439014
 20
-0.5005437298671366
 30
0.0
  0
VERTEX
  5
20D
  8
0
 10
10.38801902413282
 20
-0.6921963811726341
 30
0.0
 42
-0.6823031497128285
  0
SEQEND
  5
205
  8
0
  0
POLYLINE
  5
20E
  8
0
 66
     1
 10
0.0
 20
0.0
 30
0.0
 70
     1
  0
VERTEX
  5
20F
  8
0
 10
13.6177672573354
 20
-1.5049859016755349
 30
0.0
  0
VERTEX
  5
210
  8
0
 10
13.44999552132718
 20
-1.5592205932258121
 30
0.0
 42
-0.7742633523734597
  0
VERTEX
  5
212
  8
0
 10
13.42956329833882
 20
-1.5270439054506659
 30
0.0
  0
VERTEX
  5
213
  8
0
 10
13.501744427454479
 20
-1.449863665367265
 30
0.0
 42
-0.2698902556668405
  0
VERTEX
  5
214
  8
0
 10
13.520716359202931
 20
-1.4441683696152441
 30
0.0
  0
VERTEX
  5
215
  8
0
 10
13.61630696609549
 20
-1.4671139181483659
 30
0.0
 42
-0.7575838073854843
  0
SEQEND
  5
211
  8
0
  0
POLYLINE
  5
216
  8
0
 66
     1
 10
0.0
 20
0.0
 30
0.0
 70
     1
  0
VERTEX
  5
217
  8
0
 10
13.39702397030462
 20
-1.4447163902561879
 30
0.0
  0
VERTEX
  5
218
  8
0
 10
13.22405496787484
 20
-1.6296648566777221
 30
0.0
 42
-0.1272283775261366
  0
VERTEX
  5
21A
  8
0
 10
13.215732678924271
 20
-1.6349495169510211
 30
0.0
  0
VERTEX
  5
21B
  8
0
 10
12.759671773867151
 20
-1.7823779402505271
 30
0.0
 42
-0.2510269002225595
  0
VERTEX
  5
21C
  8
0
 10
12.7413754298376
 20
-1.7790631497197891
 30
0.0
  0
VERTEX
  5
21D
  8
0
 10
12.505822848563939
 20
-1.5920165912516171
 30
0.0
 42
-0.4483647449512798
  0
VERTEX
  5
21E
  8
0
 10
12.50415728400627
 20
-1.5626688108586759
 30
0.0
  0
VERTEX
  5
21F
  8
0
 10
12.78912795924481
 20
-1.2782085856771219
 30
0.0
 42
-0.2606972892244163
  0
VERTEX
  5
220
  8
0
 10
12.807629576592101
 20
-1.2729991730736301
 30
0.0
  0
VERTEX
  5
221
  8
0
 10
13.38724139011414
 20
-1.4121290670023201
 30
0.0
 42
-0.5749392446119249
  0
SEQEND
  5
219
  8
0
  0
POLYLINE
  5
222
  8
0
 66
     1
 10
0.0
 20
0.0
 30
0.0
 70
     1
  0
VERTEX
  5
223
  8
0
 10
12.68073036935062
 20
-1.2733762070507471
 30
0.0
  0
VERTEX
  5
224
  8
0
 10
12.43786575539144
 20
-1.515805792893679
 30
0.0
 42
-0.3808676350150212
  0
VERTEX
  5
226
  8
0
 10
12.411717436812481
 20
-1.5172897794877089
 30
0.0
  0
VERTEX
  5
227
  8
0
 10
11.90665224979865
 20
-1.1162298355796341
 30
0.0
 42
-0.5221444670739475
  0
VERTEX
  5
228
  8
0
 10
11.908677585632679
 20
-1.0839873874433259
 30
0.0
  0
VERTEX
  5
229
  8
0
 10
11.933350750715761
 20
-1.069007379592833
 30
0.0
 42
-0.1978303233209231
  0
VERTEX
  5
22A
  8
0
 10
11.94816146767136
 20
-1.0666926347327099
 30
0.0
  0
VERTEX
  5
22B
  8
0
 10
12.67141810356129
 20
-1.2403030006483471
 30
0.0
 42
-0.5864236538736446
  0
SEQEND
  5
225
  8
0
  0
POLYLINE
  5
22C
  8
0
 66
     1
 10
0.0
 20
0.0
 30
0.0
 70
     1
  0
VERTEX
  5
22D
  8
0
 10
10.90722963594064
 20
-0.7345550961044614
 30
0.0
  0
VERTEX
  5
22E
  8
0
 10
10.70305278052791
 20
-0.685544528042278
 30
0.0
 42
-0.6823031497128245
  0
VERTEX
  5
230
  8
0
 10
10.698020312054879
 20
-0.6492329282519616
 30
0.0
  0
VERTEX
  5
231
  8
0
 10
10.95969642916976
 20
-0.5025147490827129
 30
0.0
 42
-0.128452204338247
  0
VERTEX
  5
232
  8
0
 10
10.96932357342177
 20
-0.5000000000000041
 30
0.0
  0
VERTEX
  5
233
  8
0
 10
10.99510700518185
 20
-0.5000000000000041
 30
0.0
 42
-0.1693717733857685
  0
VERTEX
  5
234
  8
0
 10
11.0073483821925
 20
-0.5042691558765985
 30
0.0
  0
VERTEX
  5
235
  8
0
 10
11.16403605861626
 20
-0.6286910173181801
 30
0.0
 42
-0.6068060552744884
  0
VERTEX
  5
236
  8
0
 10
11.157401756403541
 20
-0.6629764924132857
 30
0.0
  0
VERTEX
  5
237
  8
0
 10
10.917431386517549
 20
-0.7342833782031351
 30
0.0
 42
-0.1318617442311109
  0
SEQEND
  5
22F
  8
0
  0
POLYLINE
  5
238
  8
0
 66
     1
 10
0.0
 20
0.0
 30
0.0
 70
     1
  0
VERTEX
  5
239
  8
0
 10
11.919038164209599
 20
-0.977429395644342
 30
0.0
  0
VERTEX
  5
23A
  8
0
 10
11.654995382642189
 20
-0.9140486236602757
 30
0.0
 42
-0.109316212267563
  0
VERTEX
  5
23C
  8
0
 10
11.64734868141052
 20
-0.9103231976508144
 30
0.0
  0
VERTEX
  5
23D
  8
0
 10
11.393356441419749
 20
-0.7086341560321223
 30
0.0
 42
-0.6068060552744884
  0
VERTEX
  5
23E
  8
0
 10
11.39999074363247
 20
-0.6743486809370167
 30
0.0
  0
VERTEX
  5
23F
  8
0
 10
11.98398531427879
 20
-0.5008154477684619
 30
0.0
 42
-0.0723354895372854
  0
VERTEX
  5
240
  8
0
 10
11.989592389076719
 20
-0.5000000000000038
 30
0.0
  0
VERTEX
  5
241
  8
0
 10
12.64604403542555
 20
-0.5000000000000037
 30
0.0
 42
-0.7586046024431508
  0
VERTEX
  5
242
  8
0
 10
12.65626007660217
 20
-0.5365116040129064
 30
0.0
  0
VERTEX
  5
243
  8
0
 10
11.933848881165209
 20
-0.9751146507842184
 30
0.0
 42
-0.1978303233209237
  0
SEQEND
  5
23B
  8
0
  0
POLYLINE
  5
244
  8
0
 66
     1
 10
0.0
 20
0.0
 30
0.0
 70
     1
  0
VERTEX
  5
245
  8
0
 10
12.623251833100429
 20
-1.826477700942206
 30
0.0
  0
VERTEX
  5
246
  8
0
 10
12.41773012655001
 20
-1.8929156280141539
 30
0.0
 42
-0.0783249931852716
  0
VERTEX
  5
248
  8
0
 10
12.411675159531111
 20
-1.8938699933600101
 30
0.0
  0
VERTEX
  5
249
  8
0
 10
12.2199459788675
 20
-1.8938699933600101
 30
0.0
 42
-0.6685028464211796
  0
VERTEX
  5
24A
  8
0
 10
12.20603903729919
 20
-1.8602530570904769
 30
0.0
  0
VERTEX
  5
24B
  8
0
 10
12.41911078668705
 20
-1.6475629697333669
 30
0.0
 42
-0.3808676350150389
  0
VERTEX
  5
24C
  8
0
 10
12.445259105266009
 20
-1.646078983139337
 30
0.0
  0
VERTEX
  5
24D
  8
0
 10
12.62943824309218
 20
-1.7923311434244991
 30
0.0
 42
-0.5986866466613924
  0
SEQEND
  5
247
  8
0
  0
POLYLINE
  5
24E
  8
0
 66
     1
 10
0.0
 20
0.0
 30
0.0
 70
     1
  0
VERTEX
  5
24F
  8
0
 10
12.859839375081339
 20
-1.834073443927567
 30
0.0
  0
VERTEX
  5
250
  8
0
 10
13.035454669556859
 20
-1.7773032062581899
 30
0.0
 42
-0.7742633523734531
  0
VERTEX
  5
252
  8
0
 10
13.055886892545219
 20
-1.809479894033335
 30
0.0
  0
VERTEX
  5
253
  8
0
 10
12.98279781254606
 20
-1.8876309677408549
 30
0.0
 42
-0.2076223611339412
  0
VERTEX
  5
254
  8
0
 10
12.968420556576589
 20
-1.8938699933600101
 30
0.0
  0
VERTEX
  5
255
  8
0
 10
12.892819783337
 20
-1.8938699933600101
 30
0.0
 42
-0.1693717733857464
  0
VERTEX
  5
256
  8
0
 10
12.88057840632635
 20
-1.889600837483417
 30
0.0
  0
VERTEX
  5
257
  8
0
 10
12.853652965089591
 20
-1.868220001445273
 30
0.0
 42
-0.5986866466613887
  0
SEQEND
  5
251
  8
0
  0
POLYLINE
  5
258
  8
0
 66
     1
 10
0.0
 20
0.0
 30
0.0
 70
     1
  0
VERTEX
  5
259
  8
0
 10
12.35281925807222
 20
-1.60069995176837
 30
0.0
  0
VERTEX
  5
25A
  8
0
 10
12.06488660328645
 20
-1.8881168508893871
 30
0.0
 42
-0.1986794054860935
  0
VERTEX
  5
25C
  8
0
 10
12.050979661718131
 20
-1.8938699933600109
 30
0.0
  0
VERTEX
  5
25D
  8
0
 10
11.727817950512479
 20
-1.8938699933600109
 30
0.0
 42
-0.112666634132319
  0
VERTEX
  5
25E
  8
0
 10
11.71927737376741
 20
-1.8919207743505231
 30
0.0
  0
VERTEX
  5
25F
  8
0
 10
11.115462850866111
 20
-1.601157552363647
 30
0.0
 42
-0.5950770718437319
  0
VERTEX
  5
260
  8
0
 10
11.113787386434559
 20
-1.5665951673602321
 30
0.0
  0
VERTEX
  5
261
  8
0
 10
11.799895067731329
 20
-1.1500333514155869
 30
0.0
 42
-0.3139357290078256
  0
VERTEX
  5
262
  8
0
 10
11.8223524859186
 20
-1.1514440325649249
 30
0.0
  0
VERTEX
  5
263
  8
0
 10
12.351153693514551
 20
-1.571352171375429
 30
0.0
 42
-0.4483647449512797
  0
SEQEND
  5
25B
  8
0
  0
POLYLINE
  5
264
  8
0
 66
     1
 10
0.0
 20
0.0
 30
0.0
 70
     1
  0
VERTEX
  5
265
  8
0
 10
11.452683756446939
 20
-1.8938699933600109
 30
0.0
  0
VERTEX
  5
266
  8
0
 10
10.645095202210371
 20
-1.8938699933600109
 30
0.0
 42
-0.7586046024431479
  0
VERTEX
  5
268
  8
0
 10
10.634879161033741
 20
-1.857358389347108
 30
0.0
  0
VERTEX
  5
269
  8
0
 10
10.99209046186764
 20
-1.6404819540475071
 30
0.0
 42
-0.2538579077487599
  0
VERTEX
  5
26A
  8
0
 10
11.010847079789331
 20
-1.6395726983297401
 30
0.0
  0
VERTEX
  5
26B
  8
0
 10
11.461224333192011
 20
-1.8564491336293409
 30
0.0
 42
-0.7974835756260834
  0
SEQEND
  5
267
  8
0
  0
POLYLINE
  5
26C
  8
0
 66
     1
 10
0.0
 20
0.0
 30
0.0
 70
     1
  0
VERTEX
  5
26D
  8
0
 10
8.9149906812062358
 20
-0.5000000000000046
 30
0.0
  0
VERTEX
  5
26E
  8
0
 10
9.1944175190520419
 20
-0.5000000000000046
 30
0.0
 42
-0.6627338316295383
  0
VERTEX
  5
270
  8
0
 10
9.2085454608173851
 20
-0.5333927757432618
 30
0.0
  0
VERTEX
  5
271
  8
0
 10
9.1195648840512966
 20
-0.6251010179048097
 30
0.0
 42
-0.3228838746346754
  0
VERTEX
  5
272
  8
0
 10
9.0968963655408821
 20
-0.6291291018922215
 30
0.0
  0
VERTEX
  5
273
  8
0
 10
8.9064501044611681
 20
-0.5374208597306739
 30
0.0
 42
-0.7974835756260834
  0
SEQEND
  5
26F
  8
0
  0
POLYLINE
  5
274
  8
0
 66
     1
 10
0.0
 20
0.0
 30
0.0
 70
     1
  0
VERTEX
  5
275
  8
0
 10
10.5321416972054
 20
-0.6445190686931922
 30
0.0
  0
VERTEX
  5
276
  8
0
 10
10.091828352019929
 20
-0.5388263488730294
 30
0.0
 42
-0.8886386133870864
  0
VERTEX
  5
278
  8
0
 10
10.09642302779891
 20
-0.5000000000000043
 30
0.0
  0
VERTEX
  5
279
  8
0
 10
10.72524239648094
 20
-0.5000000000000041
 30
0.0
 42
-0.7723391316984053
  0
VERTEX
  5
27A
  8
0
 10
10.73486954073295
 20
-0.5368553296574533
 30
0.0
  0
VERTEX
  5
27B
  8
0
 10
10.54636351723639
 20
-0.6425480494776164
 30
0.0
 42
-0.1888463742943147
  0
SEQEND
  5
277
  8
0
  0
POLYLINE
  5
27C
  8
0
 66
     1
 10
0.0
 20
0.0
 30
0.0
 70
     1
  0
VERTEX
  5
27D
  8
0
 10
10.91970969417511
 20
-0.8198232942204375
 30
0.0
  0
VERTEX
  5
27E
  8
0
 10
11.610638393151831
 20
-0.9856736691753368
 30
0.0
 42
-0.1093162122675828
  0
VERTEX
  5
280
  8
0
 10
11.6182850943835
 20
-0.9893990951847992
 30
0.0
  0
VERTEX
  5
281
  8
0
 10
11.722689919156331
 20
-1.0723044195741001
 30
0.0
 42
-0.5221444670739458
  0
VERTEX
  5
282
  8
0
 10
11.7206645833223
 20
-1.104546867710408
 30
0.0
  0
VERTEX
  5
283
  8
0
 10
11.00594641731406
 20
-1.538479186553289
 30
0.0
 42
-0.2538579077487809
  0
VERTEX
  5
284
  8
0
 10
10.98718979939237
 20
-1.5393884422710571
 30
0.0
  0
VERTEX
  5
285
  8
0
 10
10.07971652150778
 20
-1.1024001882011101
 30
0.0
 42
-0.6855984062892837
  0
VERTEX
  5
286
  8
0
 10
10.082650023454921
 20
-1.0657947762388991
 30
0.0
  0
VERTEX
  5
287
  8
0
 10
10.909507943598189
 20
-0.8200950121217633
 30
0.0
 42
-0.1318617442310927
  0
SEQEND
  5
27F
  8
0
  0
POLYLINE
  5
288
  8
0
 66
     1
 10
0.0
 20
0.0
 30
0.0
 70
     1
  0
VERTEX
  5
289
  8
0
 10
2.6973302731792579
 20
-1.787574389256658
 30
0.0
  0
VERTEX
  5
28A
  8
0
 10
2.7706064933510972
 20
-1.8152800267681499
 30
0.0
 42
-0.5361742211136505
  0
VERTEX
  5
28C
  8
0
 10
2.7779218016596658
 20
-1.8472451048420151
 30
0.0
  0
VERTEX
  5
28D
  8
0
 10
2.7394857992305619
 20
-1.8877371808159971
 30
0.0
 42
-0.2056898749439739
  0
VERTEX
  5
28E
  8
0
 10
2.7252086173287822
 20
-1.893869993360012
 30
0.0
  0
VERTEX
  5
28F
  8
0
 10
2.5575112030177731
 20
-1.8938699933600109
 30
0.0
 42
-0.7871191818590857
  0
VERTEX
  5
290
  8
0
 10
2.5485217232743742
 20
-1.856672386247179
 30
0.0
  0
VERTEX
  5
291
  8
0
 10
2.6813789198426479
 20
-1.788474672761706
 30
0.0
 42
-0.2120261791001061
  0
SEQEND
  5
28B
  8
0
  0
POLYLINE
  5
292
  8
0
 66
     1
 10
0.0
 20
0.0
 30
0.0
 70
     1
  0
VERTEX
  5
293
  8
0
 10
3.2013014583245138
 20
-1.892597805237735
 30
0.0
  0
VERTEX
  5
294
  8
0
 10
2.9669426950142279
 20
-1.803987080930594
 30
0.0
 42
-0.5361742211136411
  0
VERTEX
  5
296
  8
0
 10
2.9596273867056588
 20
-1.7720220028567291
 30
0.0
  0
VERTEX
  5
297
  8
0
 10
3.191274603326459
 20
-1.5279831824338119
 30
0.0
 42
-0.0844999422580075
  0
VERTEX
  5
298
  8
0
 10
3.1965623054848402
 20
-1.5240228415171191
 30
0.0
  0
VERTEX
  5
299
  8
0
 10
3.3960632166527041
 20
-1.4216158486605071
 30
0.0
 42
-0.2188250358514549
  0
VERTEX
  5
29A
  8
0
 10
3.412490700940491
 20
-1.4209026965711351
 30
0.0
  0
VERTEX
  5
29B
  8
0
 10
3.4632095478492442
 20
-1.4416013036641959
 30
0.0
 42
-0.0832600205537744
  0
VERTEX
  5
29C
  8
0
 10
3.4687478181531621
 20
-1.445024420142091
 30
0.0
  0
VERTEX
  5
29D
  8
0
 10
3.9414240032277852
 20
-1.8593823506356999
 30
0.0
 42
-0.6921843917004564
  0
VERTEX
  5
29E
  8
0
 10
3.9284477283794779
 20
-1.8938699933600109
 30
0.0
  0
VERTEX
  5
29F
  8
0
 10
3.2082633319177258
 20
-1.8938699933600109
 30
0.0
 42
-0.0906179485570772
  0
SEQEND
  5
295
  8
0
  0
POLYLINE
  5
2A0
  8
0
 66
     1
 10
0.0
 20
0.0
 30
0.0
 70
     1
  0
VERTEX
  5
2A1
  8
0
 10
2.6504060509083152
 20
-0.6212618326146681
 30
0.0
  0
VERTEX
  5
2A2
  8
0
 10
2.551418943333347
 20
-0.5344876427243177
 30
0.0
 42
-0.6921843917004553
  0
VERTEX
  5
2A4
  8
0
 10
2.5643952181816552
 20
-0.5000000000000063
 30
0.0
  0
VERTEX
  5
2A5
  8
0
 10
2.7614795093960409
 20
-0.5000000000000062
 30
0.0
 42
-0.6905293565031354
  0
VERTEX
  5
2A6
  8
0
 10
2.7745219576556481
 20
-0.5344293711079776
 30
0.0
  0
VERTEX
  5
2A7
  8
0
 10
2.6764247740162288
 20
-0.6212035609983279
 30
0.0
 42
-0.3775375475189811
  0
SEQEND
  5
2A3
  8
0
  0
POLYLINE
  5
2A8
  8
0
 66
     1
 10
0.0
 20
0.0
 30
0.0
 70
     1
  0
VERTEX
  5
2A9
  8
0
 10
3.340965744494385
 20
-1.2266210500913231
 30
0.0
  0
VERTEX
  5
2AA
  8
0
 10
2.7408957762403801
 20
-0.7005870376990108
 30
0.0
 42
-0.4518660515657798
  0
VERTEX
  5
2AC
  8
0
 10
2.7408296028290802
 20
-0.6710401026068852
 30
0.0
  0
VERTEX
  5
2AD
  8
0
 10
2.9286029818928081
 20
-0.5049407076321918
 30
0.0
 42
-0.1830613838833281
  0
VERTEX
  5
2AE
  8
0
 10
2.9416454301524149
 20
-0.5000000000000061
 30
0.0
  0
VERTEX
  5
2AF
  8
0
 10
4.0109308421413994
 20
-0.5000000000000058
 30
0.0
 42
-0.6588013564374702
  0
VERTEX
  5
2B0
  8
0
 10
4.0252080240431791
 20
-0.533237266196147
 30
0.0
  0
VERTEX
  5
2B1
  8
0
 10
3.368219201244472
 20
-1.2253706735631531
 30
0.0
 42
-0.4026600462607971
  0
SEQEND
  5
2AB
  8
0
  0
POLYLINE
  5
2B2
  8
0
 66
     1
 10
0.0
 20
0.0
 30
0.0
 70
     1
  0
VERTEX
  5
2B3
  8
0
 10
6.2490440508903609
 20
-0.9111655276294566
 30
0.0
  0
VERTEX
  5
2B4
  8
0
 10
5.6661211483812837
 20
-0.7175426580941173
 30
0.0
 42
-0.5112568895596809
  0
VERTEX
  5
2B6
  8
0
 10
5.6565411399365191
 20
-0.6870999281839321
 30
0.0
  0
VERTEX
  5
2B7
  8
0
 10
5.7900422285184341
 20
-0.5079237506632087
 30
0.0
 42
-0.2369006906645539
  0
VERTEX
  5
2B8
  8
0
 10
5.8058274387785183
 20
-0.5000000000000056
 30
0.0
  0
VERTEX
  5
2B9
  8
0
 10
6.5096667985686079
 20
-0.5000000000000053
 30
0.0
 42
-0.6027130246723278
  0
VERTEX
  5
2BA
  8
0
 10
6.5259263163060997
 20
-0.5307813837206239
 30
0.0
  0
VERTEX
  5
2BB
  8
0
 10
6.2715087704431722
 20
-0.9035804307766872
 30
0.0
 42
-0.3348994711779525
  0
SEQEND
  5
2B5
  8
0
  0
POLYLINE
  5
2BC
  8
0
 66
     1
 10
0.0
 20
0.0
 30
0.0
 70
     1
  0
VERTEX
  5
2BD
  8
0
 10
8.2441965972926585
 20
-1.658170386650105
 30
0.0
  0
VERTEX
  5
2BE
  8
0
 10
8.5100887707781379
 20
-1.7464887652824239
 30
0.0
 42
-0.6515617040290023
  0
VERTEX
  5
2C0
  8
0
 10
8.5135107132148278
 20
-1.782340496773104
 30
0.0
  0
VERTEX
  5
2C1
  8
0
 10
8.3190797572373132
 20
-1.8913552442773029
 30
0.0
 42
-0.1284522043382458
  0
VERTEX
  5
2C2
  8
0
 10
8.3094526129853055
 20
-1.8938699933600109
 30
0.0
  0
VERTEX
  5
2C3
  8
0
 10
8.0465275208590423
 20
-1.8938699933600109
 30
0.0
 42
-0.6627338316295451
  0
VERTEX
  5
2C4
  8
0
 10
8.0323995790936973
 20
-1.860477217616753
 30
0.0
  0
VERTEX
  5
2C5
  8
0
 10
8.2238634537119921
 20
-1.663144091480236
 30
0.0
 42
-0.2878753399152995
  0
SEQEND
  5
2BF
  8
0
  0
POLYLINE
  5
2C6
  8
0
 66
     1
 10
0.0
 20
0.0
 30
0.0
 70
     1
  0
VERTEX
  5
2C7
  8
0
 10
7.7378743042143272
 20
-1.775658557519227
 30
0.0
  0
VERTEX
  5
2C8
  8
0
 10
7.8047811955072
 20
-1.862139489138867
 30
0.0
 42
-0.6232185778013945
  0
VERTEX
  5
2CA
  8
0
 10
7.7892117526294582
 20
-1.8938699933600109
 30
0.0
  0
VERTEX
  5
2CB
  8
0
 10
7.4312689968618502
 20
-1.8938699933600109
 30
0.0
 42
-0.8650879500994637
  0
VERTEX
  5
2CC
  8
0
 10
7.4256619220639193
 20
-1.855315362388311
 30
0.0
  0
VERTEX
  5
2CD
  8
0
 10
7.7166977865386519
 20
-1.768834430768671
 30
0.0
 42
-0.3096547044753632
  0
SEQEND
  5
2C9
  8
0
  0
POLYLINE
  5
2CE
  8
0
 66
     1
 10
0.0
 20
0.0
 30
0.0
 70
     1
  0
VERTEX
  5
2CF
  8
0
 10
9.6974260679134883
 20
-1.888417170952448
 30
0.0
  0
VERTEX
  5
2D0
  8
0
 10
9.2693962790709286
 20
-1.479417957591703
 30
0.0
 42
-0.5041711738993117
  0
VERTEX
  5
2D2
  8
0
 10
9.2733685750770114
 20
-1.448015450341817
 30
0.0
  0
VERTEX
  5
2D3
  8
0
 10
9.8093037486312245
 20
-1.147524011980591
 30
0.0
 42
-0.0556000979791595
  0
VERTEX
  5
2D4
  8
0
 10
9.8133238180853031
 20
-1.1458247106663411
 30
0.0
  0
VERTEX
  5
2D5
  8
0
 10
9.9125068951433466
 20
-1.116352587289509
 30
0.0
 42
-0.1865222419157635
  0
VERTEX
  5
2D6
  8
0
 10
9.9266545466863452
 20
-1.1174863585305399
 30
0.0
  0
VERTEX
  5
2D7
  8
0
 10
10.882574028315579
 20
-1.5778035882371491
 30
0.0
 42
-0.5950770718437082
  0
VERTEX
  5
2D8
  8
0
 10
10.88424949274714
 20
-1.6123659732405631
 30
0.0
  0
VERTEX
  5
2D9
  8
0
 10
10.425299964165969
 20
-1.8910115186327561
 30
0.0
 42
-0.1372653052434459
  0
VERTEX
  5
2DA
  8
0
 10
10.41508392298935
 20
-1.8938699933600109
 30
0.0
  0
VERTEX
  5
2DB
  8
0
 10
9.7110255081715788
 20
-1.8938699933600109
 30
0.0
 42
-0.1930111346259394
  0
SEQEND
  5
2D1
  8
0
  0
POLYLINE
  5
2DC
  8
0
 66
     1
 10
0.0
 20
0.0
 30
0.0
 70
     1
  0
VERTEX
  5
2DD
  8
0
 10
11.27923815731493
 20
-0.6180156105477935
 30
0.0
  0
VERTEX
  5
2DE
  8
0
 10
11.174821541102011
 20
-0.5351009228635674
 30
0.0
 42
-0.7103200586151363
  0
VERTEX
  5
2E0
  8
0
 10
11.187062918112661
 20
-0.500000000000004
 30
0.0
  0
VERTEX
  5
2E1
  8
0
 10
11.5705138527111
 20
-0.5000000000000039
 30
0.0
 42
-0.8650879500994632
  0
VERTEX
  5
2E2
  8
0
 10
11.576120927509031
 20
-0.5385546309717034
 30
0.0
  0
VERTEX
  5
2E3
  8
0
 10
11.297086609123509
 20
-0.62146931865593
 30
0.0
 42
-0.2447052918644522
  0
SEQEND
  5
2DF
  8
0
  0
POLYLINE
  5
2E4
  8
0
 66
     1
 10
0.0
 20
0.0
 30
0.0
 70
     1
  0
VERTEX
  5
2E5
  8
0
 10
13.839014598653479
 20
-1.5205726099348911
 30
0.0
  0
VERTEX
  5
2E6
  8
0
 10
14.047409636408901
 20
-1.57059570957117
 30
0.0
 42
-0.3467800953652759
  0
VERTEX
  5
2E8
  8
0
 10
14.0625
 20
-1.5897370190741169
 30
0.0
  0
VERTEX
  5
2E9
  8
0
 10
14.0625
 20
-1.874184953989932
 30
0.0
 42
-0.4142135623730951
  0
VERTEX
  5
2EA
  8
0
 10
14.04281496062992
 20
-1.8938699933600101
 30
0.0
  0
VERTEX
  5
2EB
  8
0
 10
13.131859581700709
 20
-1.8938699933600101
 30
0.0
 42
-0.6561468753543343
  0
VERTEX
  5
2EC
  8
0
 10
13.117482325731251
 20
-1.860738940239008
 30
0.0
  0
VERTEX
  5
2ED
  8
0
 10
13.261395223009201
 20
-1.7068589428062759
 30
0.0
 42
-0.1272283775261233
  0
VERTEX
  5
2EE
  8
0
 10
13.269717511959771
 20
-1.7015742825329789
 30
0.0
  0
VERTEX
  5
2EF
  8
0
 10
13.8283649558556
 20
-1.5209832454136161
 30
0.0
 42
-0.1379258227094883
  0
SEQEND
  5
2E7
  8
0
  0
POLYLINE
  5
2F0
  8
0
 66
     1
 10
0.0
 20
0.0
 30
0.0
 70
     1
  0
VERTEX
  5
2F1
  8
0
 10
14.635
 20
-1.6175875343900861
 30
0.0
  0
VERTEX
  5
2F2
  8
0
 10
14.635
 20
-1.973217455649928
 30
0.0
 42
-0.4142135623730951
  0
VERTEX
  5
2F4
  8
0
 10
14.61531496062992
 20
-1.992902495020006
 30
0.0
  0
VERTEX
  5
2F5
  8
0
 10
14.50968503937008
 20
-1.992902495020006
 30
0.0
 42
-0.4142135623730951
  0
VERTEX
  5
2F6
  8
0
 10
14.49
 20
-1.973217455649928
 30
0.0
  0
VERTEX
  5
2F7
  8
0
 10
14.49
 20
-1.6175875343900861
 30
0.0
 42
-0.4142135623730951
  0
VERTEX
  5
2F8
  8
0
 10
14.50968503937008
 20
-1.5979024950200069
 30
0.0
  0
VERTEX
  5
2F9
  8
0
 10
14.61531496062992
 20
-1.5979024950200069
 30
0.0
 42
-0.4142135623730951
  0
SEQEND
  5
2F3
  8
0
  0
POLYLINE
  5
2FA
  8
0
 66
     1
 10
0.0
 20
0.0
 30
0.0
 70
     1
  0
VERTEX
  5
2FB
  8
0
 10
0.5100000000000142
 20
-1.617587534390081
 30
0.0
  0
VERTEX
  5
2FC
  8
0
 10
0.5100000000000142
 20
-1.973217455649924
 30
0.0
 42
-0.4142135623730951
  0
VERTEX
  5
2FE
  8
0
 10
0.490314960629936
 20
-1.9929024950200021
 30
0.0
  0
VERTEX
  5
2FF
  8
0
 10
0.3846850393700934
 20
-1.9929024950200021
 30
0.0
 42
-0.4142135623730951
  0
VERTEX
  5
300
  8
0
 10
0.3650000000000148
 20
-1.973217455649924
 30
0.0
  0
VERTEX
  5
301
  8
0
 10
0.3650000000000151
 20
-1.617587534390081
 30
0.0
 42
-0.4142135623730951
  0
VERTEX
  5
302
  8
0
 10
0.3846850393700934
 20
-1.597902495020002
 30
0.0
  0
VERTEX
  5
303
  8
0
 10
0.490314960629936
 20
-1.597902495020002
 30
0.0
 42
-0.4142135623730951
  0
SEQEND
  5
2FD
  8
0
  0
POLYLINE
  5
304
  8
0
 66
     1
 10
0.0
 20
0.0
 30
0.0
 70
     1
  0
VERTEX
  5
305
  8
0
 10
8.0000000000000124
 20
0.1053149606299168
 30
0.0
 42
0.4142135623730951
  0
VERTEX
  5
306
  8
0
 10
7.980314960629932
 20
0.1249999999999955
 30
0.0
  0
VERTEX
  5
308
  8
0
 10
7.0196850393700911
 20
0.1249999999999954
 30
0.0
 42
0.4142135623730951
  0
VERTEX
  5
309
  8
0
 10
7.0000000000000124
 20
0.1053149606299166
 30
0.0
  0
VERTEX
  5
30A
  8
0
 10
7.0000000000000124
 20
0.0196850393700741
 30
0.0
 42
-0.4142135623730951
  0
VERTEX
  5
30B
  8
0
 10
6.9803149606299328
 20
-0.0000000000000046
 30
0.0
  0
VERTEX
  5
30C
  8
0
 10
1.594435039370083
 20
-0.0000000000000054
 30
0.0
 42
0.4142135623730948
  0
VERTEX
  5
30D
  8
0
 10
1.5747500000000041
 20
-0.0196850393700841
 30
0.0
  0
VERTEX
  5
30E
  8
0
 10
1.5747500000000041
 20
-0.2109399606299266
 30
0.0
 42
0.4142135623730951
  0
VERTEX
  5
30F
  8
0
 10
1.5944350393700819
 20
-0.2306250000000053
 30
0.0
  0
VERTEX
  5
310
  8
0
 10
1.641564960629925
 20
-0.2306250000000053
 30
0.0
 42
-0.4142135623730944
  0
VERTEX
  5
311
  8
0
 10
1.661250000000003
 20
-0.2503100393700841
 30
0.0
  0
VERTEX
  5
312
  8
0
 10
1.661250000000003
 20
-0.3303149606299265
 30
0.0
 42
-0.4142135623730951
  0
VERTEX
  5
313
  8
0
 10
1.641564960629925
 20
-0.3500000000000053
 30
0.0
  0
VERTEX
  5
314
  8
0
 10
1.358435039370083
 20
-0.3500000000000053
 30
0.0
 42
-0.4142135623730944
  0
VERTEX
  5
315
  8
0
 10
1.3387500000000041
 20
-0.3303149606299267
 30
0.0
  0
VERTEX
  5
316
  8
0
 10
1.3387500000000041
 20
-0.2503100393700841
 30
0.0
 42
-0.4142135623730951
  0
VERTEX
  5
317
  8
0
 10
1.3584350393700819
 20
-0.2306250000000054
 30
0.0
  0
VERTEX
  5
318
  8
0
 10
1.405564960629925
 20
-0.2306250000000053
 30
0.0
 42
0.4142135623730951
  0
VERTEX
  5
319
  8
0
 10
1.425250000000003
 20
-0.2109399606299266
 30
0.0
  0
VERTEX
  5
31A
  8
0
 10
1.4252500000000039
 20
-0.0196850393700841
 30
0.0
 42
0.4142135623730946
  0
VERTEX
  5
31B
  8
0
 10
1.405564960629925
 20
-0.0000000000000054
 30
0.0
  0
VERTEX
  5
31C
  8
0
 10
0.0393700787401589
 20
-0.0000000000000056
 30
0.0
 42
0.4142135623730964
  0
VERTEX
  5
31D
  8
0
 10
0.0000000000000014
 20
-0.0393700787401633
 30
0.0
  0
VERTEX
  5
31E
  8
0
 10
0.0000000000000014
 20
-2.3544999146198529
 30
0.0
 42
0.4142135623730951
  0
VERTEX
  5
31F
  8
0
 10
0.0393700787401594
 20
-2.3938699933600098
 30
0.0
  0
VERTEX
  5
320
  8
0
 10
14.960629921259841
 20
-2.3938699933600098
 30
0.0
 42
0.4142135623730951
  0
VERTEX
  5
321
  8
0
 10
15.0
 20
-2.3544999146198529
 30
0.0
  0
VERTEX
  5
322
  8
0
 10
15.0
 20
-0.0393700787401608
 30
0.0
 42
0.4142135623730951
  0
VERTEX
  5
323
  8
0
 10
14.960629921259841
 20
-0.0000000000000035
 30
0.0
  0
VERTEX
  5
324
  8
0
 10
13.59443503937009
 20
-0.0000000000000037
 30
0.0
 42
0.4142135623730964
  0
VERTEX
  5
325
  8
0
 10
13.574750000000011
 20
-0.0196850393700825
 30
0.0
  0
VERTEX
  5
326
  8
0
 10
13.574750000000011
 20
-0.2109399606299265
 30
0.0
 42
0.4142135623730931
  0
VERTEX
  5
327
  8
0
 10
13.59443503937009
 20
-0.2306250000000051
 30
0.0
  0
VERTEX
  5
328
  8
0
 10
13.64156496062993
 20
-0.2306250000000051
 30
0.0
 42
-0.4142135623730958
  0
VERTEX
  5
329
  8
0
 10
13.66125000000001
 20
-0.2503100393700838
 30
0.0
  0
VERTEX
  5
32A
  8
0
 10
13.66125000000001
 20
-0.3303149606299263
 30
0.0
 42
-0.4142135623730951
  0
VERTEX
  5
32B
  8
0
 10
13.64156496062993
 20
-0.350000000000005
 30
0.0
  0
VERTEX
  5
32C
  8
0
 10
13.358435039370089
 20
-0.350000000000005
 30
0.0
 42
-0.4142135623730958
  0
VERTEX
  5
32D
  8
0
 10
13.33875000000001
 20
-0.3303149606299264
 30
0.0
  0
VERTEX
  5
32E
  8
0
 10
13.33875000000001
 20
-0.2503100393700839
 30
0.0
 42
-0.4142135623730951
  0
VERTEX
  5
32F
  8
0
 10
13.358435039370089
 20
-0.2306250000000052
 30
0.0
  0
VERTEX
  5
330
  8
0
 10
13.405564960629929
 20
-0.2306250000000052
 30
0.0
 42
0.4142135623730925
  0
VERTEX
  5
331
  8
0
 10
13.425250000000011
 20
-0.2109399606299266
 30
0.0
  0
VERTEX
  5
332
  8
0
 10
13.425250000000011
 20
-0.0196850393700825
 30
0.0
 42
0.4142135623730964
  0
VERTEX
  5
333
  8
0
 10
13.405564960629929
 20
-0.0000000000000037
 30
0.0
  0
VERTEX
  5
334
  8
0
 10
8.0196850393700903
 20
-0.0000000000000045
 30
0.0
 42
-0.4142135623730951
  0
VERTEX
  5
335
  8
0
 10
8.0000000000000124
 20
0.0196850393700743
 30
0.0
  0
SEQEND
  5
307
  8
0
  0
POLYLINE
  5
336
  8
0
 66
     1
 10
0.0
 20
0.0
 30
0.0
 70
     1
  0
VERTEX
  5
337
  8
0
 10
12.926042979299281
 20
-0.5036898058819666
 30
0.0
  0
VERTEX
  5
338
  8
0
 10
13.2130983096399
 20
-0.7096061763090927
 30
0.0
 42
-0.4631134725453358
  0
VERTEX
  5
33A
  8
0
 10
13.21553122485901
 20
-0.739533306696664
 30
0.0
  0
VERTEX
  5
33B
  8
0
 10
12.779871141223939
 20
-1.174413019809984
 30
0.0
 42
-0.2606972892244129
  0
VERTEX
  5
33C
  8
0
 10
12.761369523876651
 20
-1.179622432413475
 30
0.0
  0
VERTEX
  5
33D
  8
0
 10
12.0838779051161
 20
-1.016997491277509
 30
0.0
 42
-0.6696855648595552
  0
VERTEX
  5
33E
  8
0
 10
12.07825653971846
 20
-0.9810296171317405
 30
0.0
  0
VERTEX
  5
33F
  8
0
 10
12.86583927346995
 20
-0.5028584747272582
 30
0.0
 42
-0.1372653052434245
  0
VERTEX
  5
340
  8
0
 10
12.876055314646569
 20
-0.5000000000000036
 30
0.0
  0
VERTEX
  5
341
  8
0
 10
12.914568952950081
 20
-0.5000000000000036
 30
0.0
 42
-0.1568345469988345
  0
SEQEND
  5
339
  8
0
  0
POLYLINE
  5
342
  8
0
 66
     1
 10
0.0
 20
0.0
 30
0.0
 70
     1
  0
VERTEX
  5
343
  8
0
 10
9.0572383652560724
 20
-1.276692768550127
 30
0.0
  0
VERTEX
  5
344
  8
0
 10
8.8337024082278504
 20
-1.063095413960369
 30
0.0
 42
-0.4164522090226093
  0
VERTEX
  5
346
  8
0
 10
8.8331739067205977
 20
-1.035155460624674
 30
0.0
  0
VERTEX
  5
347
  8
0
 10
9.1170546850047351
 20
-0.7425724261459454
 30
0.0
 42
-0.3228838746346747
  0
VERTEX
  5
348
  8
0
 10
9.1397232035151479
 20
-0.7385443421585342
 30
0.0
  0
VERTEX
  5
349
  8
0
 10
9.7667343945690241
 20
-1.0404777790302671
 30
0.0
 42
-0.6855984062892871
  0
VERTEX
  5
34A
  8
0
 10
9.7638008926218873
 20
-1.0770831909924781
 30
0.0
  0
VERTEX
  5
34B
  8
0
 10
9.0764448803120956
 20
-1.2813301431892321
 30
0.0
 42
-0.2691037306753486
  0
SEQEND
  5
345
  8
0
  0
POLYLINE
  5
34C
  8
0
 66
     1
 10
0.0
 20
0.0
 30
0.0
 70
     1
  0
VERTEX
  5
34D
  8
0
 10
8.7473957276059746
 20
-0.980626003180391
 30
0.0
  0
VERTEX
  5
34E
  8
0
 10
8.3183159683635424
 20
-0.5706235020139966
 30
0.0
 42
-0.4864337566132664
  0
VERTEX
  5
350
  8
0
 10
8.3213261777671548
 20
-0.5397970401180084
 30
0.0
  0
VERTEX
  5
351
  8
0
 10
8.3788480544545116
 20
-0.5030907944366105
 30
0.0
 42
-0.1429578809433931
  0
VERTEX
  5
352
  8
0
 10
8.3894372853089916
 20
-0.5000000000000047
 30
0.0
  0
VERTEX
  5
353
  8
0
 10
8.6398564871407011
 20
-0.5000000000000047
 30
0.0
 42
-0.112666634132319
  0
VERTEX
  5
354
  8
0
 10
8.6483970638857706
 20
-0.5019492190094926
 30
0.0
  0
VERTEX
  5
355
  8
0
 10
9.0263638901299377
 20
-0.6839568522059421
 30
0.0
 42
-0.51184849883541
  0
VERTEX
  5
356
  8
0
 10
9.031951255150215
 20
-0.715400408939712
 30
0.0
  0
VERTEX
  5
357
  8
0
 10
8.7751231096294102
 20
-0.9801015225910548
 30
0.0
 42
-0.411978453815999
  0
SEQEND
  5
34F
  8
0
  0
POLYLINE
  5
358
  8
0
 66
     1
 10
0.0
 20
0.0
 30
0.0
 70
     1
  0
VERTEX
  5
359
  8
0
 10
13.77569611460552
 20
-1.0147257541007371
 30
0.0
  0
VERTEX
  5
35A
  8
0
 10
13.3740973178049
 20
-0.7266427336357979
 30
0.0
 42
-0.4631134725453271
  0
VERTEX
  5
35C
  8
0
 10
13.37166440258579
 20
-0.6967156032482264
 30
0.0
  0
VERTEX
  5
35D
  8
0
 10
13.56296953622361
 20
-0.5057531424706268
 30
0.0
 42
-0.1986794054860943
  0
VERTEX
  5
35E
  8
0
 10
13.576876477791931
 20
-0.5000000000000036
 30
0.0
  0
VERTEX
  5
35F
  8
0
 10
14.04281496062992
 20
-0.5000000000000034
 30
0.0
 42
-0.4142135623730951
  0
VERTEX
  5
360
  8
0
 10
14.0625
 20
-0.5196850393700822
 30
0.0
  0
VERTEX
  5
361
  8
0
 10
14.0625
 20
-0.7253802862737702
 30
0.0
 42
-0.1902313090711489
  0
VERTEX
  5
362
  8
0
 10
14.05719221659939
 20
-0.7388263000246934
 30
0.0
  0
VERTEX
  5
363
  8
0
 10
13.801547396924191
 20
-1.0121765343635429
 30
0.0
 42
-0.3767239279001001
  0
SEQEND
  5
35B
  8
0
  0
POLYLINE
  5
364
  8
0
 66
     1
 10
0.0
 20
0.0
 30
0.0
 70
     1
  0
VERTEX
  5
365
  8
0
 10
13.81423351738681
 20
-1.1408247151473021
 30
0.0
  0
VERTEX
  5
366
  8
0
 10
14.05428898697912
 20
-1.3130261891313391
 30
0.0
 42
-0.2416788341384108
  0
VERTEX
  5
368
  8
0
 10
14.0625
 20
-1.329021422619455
 30
0.0
  0
VERTEX
  5
369
  8
0
 10
14.0625
 20
-1.3468949223505271
 30
0.0
 42
-0.3253336793411141
  0
VERTEX
  5
36A
  8
0
 10
14.04886992764882
 20
-1.365625596374749
 30
0.0
  0
VERTEX
  5
36B
  8
0
 10
13.835697178352961
 20
-1.4345368360153661
 30
0.0
 42
-0.1379258227094877
  0
VERTEX
  5
36C
  8
0
 10
13.82504753555509
 20
-1.43494747149409
 30
0.0
  0
VERTEX
  5
36D
  8
0
 10
13.60528790051886
 20
-1.3821964163929079
 30
0.0
 42
-0.5749392446119322
  0
VERTEX
  5
36E
  8
0
 10
13.59550532032838
 20
-1.3496090931390381
 30
0.0
  0
VERTEX
  5
36F
  8
0
 10
13.78838223506814
 20
-1.1433739348844949
 30
0.0
 42
-0.3767239279000997
  0
SEQEND
  5
367
  8
0
  0
POLYLINE
  5
370
  8
0
 66
     1
 10
0.0
 20
0.0
 30
0.0
 70
     1
  0
VERTEX
  5
371
  8
0
 10
7.2981600331131427
 20
-1.0765647923417181
 30
0.0
  0
VERTEX
  5
372
  8
0
 10
6.8766431992260921
 20
-0.5317305042211494
 30
0.0
 42
-0.6232185778013945
  0
VERTEX
  5
374
  8
0
 10
6.8922126421038348
 20
-0.5000000000000052
 30
0.0
  0
VERTEX
  5
375
  8
0
 10
8.1207143667024813
 20
-0.5000000000000048
 30
0.0
 42
-0.1930111346259371
  0
VERTEX
  5
376
  8
0
 10
8.1343138069605718
 20
-0.5054528224075675
 30
0.0
  0
VERTEX
  5
377
  8
0
 10
8.1530603204763725
 20
-0.5233658496806271
 30
0.0
 42
-0.4864337566132673
  0
VERTEX
  5
378
  8
0
 10
8.1500501110727601
 20
-0.5541923115766156
 30
0.0
  0
VERTEX
  5
379
  8
0
 10
7.3243187068453661
 20
-1.0811135724241261
 30
0.0
 42
-0.3879513718577992
  0
SEQEND
  5
373
  8
0
  0
POLYLINE
  5
37A
  8
0
 66
     1
 10
0.0
 20
0.0
 30
0.0
 70
     1
  0
VERTEX
  5
37B
  8
0
 10
1.4819337629136331
 20
-0.5466275198090072
 30
0.0
  0
VERTEX
  5
37C
  8
0
 10
1.4605746422361621
 20
-0.5379107592022124
 30
0.0
 42
-0.8228673143469452
  0
VERTEX
  5
37E
  8
0
 10
1.468012646780551
 20
-0.5000000000000063
 30
0.0
  0
VERTEX
  5
37F
  8
0
 10
1.494515656971626
 20
-0.5000000000000064
 30
0.0
 42
-0.5805281398653863
  0
VERTEX
  5
380
  8
0
 10
1.5114689243176
 20
-0.5296894134783189
 30
0.0
  0
VERTEX
  5
381
  8
0
 10
1.5063250348039949
 20
-0.5384061740851136
 30
0.0
 42
-0.3721704862862684
  0
SEQEND
  5
37D
  8
0
  0
CIRCLE
  5
382
  8
0
 10
14.5625
 20
-1.1969349966800029
 30
0.0
 40
0.07475
  0
CIRCLE
  5
383
  8
0
 10
0.4375000000000147
 20
-1.196934996679994
 30
0.0
 40
0.07475
  0
ENDSEC
  0
EOF
