  0
SECTION
  2
HEADER
  9
$ACADVER
  1
AC1009
  9
$INSBASE
 10
0.0
 20
0.0
 30
0.0
  9
$EXTMIN
 10
0.0
 20
0.0
 30
0.0
  9
$EXTMAX
 10
5.0025608646434137
 20
10.49789386229676
 30
0.0
  9
$LIMMIN
 10
0.0
 20
0.0
  9
$LIMMAX
 10
5.0025608646434137
 20
10.49789386229676
  9
$ORTHOMODE
 70
     0
  9
$REGENMODE
 70
     1
  9
$FILLMODE
 70
     1
  9
$QTEXTMODE
 70
     0
  9
$MIRRTEXT
 70
     0
  9
$DRAGMODE
 70
     2
  9
$LTSCALE
 40
1.0
  9
$OSMODE
 70
     0
  9
$ATTMODE
 70
     1
  9
$TEXTSIZE
 40
0.2
  9
$TRACEWID
 40
0.05
  9
$TEXTSTYLE
  7
STANDARD
  9
$CLAYER
  8
0
  9
$CELTYPE
  6
BYLAYER
  9
$CECOLOR
 62
   256
  9
$DIMSCALE
 40
1.0
  9
$DIMASZ
 40
0.0708661417322835
  9
$DIMEXO
 40
0.0625
  9
$DIMDLI
 40
0.38
  9
$DIMRND
 40
0.0
  9
$DIMDLE
 40
0.0
  9
$DIMEXE
 40
0.18
  9
$DIMTP
 40
0.0
  9
$DIMTM
 40
0.0
  9
$DIMTXT
 40
0.0708661417322835
  9
$DIMCEN
 40
0.09
  9
$DIMTSZ
 40
0.0
  9
$DIMTOL
 70
     0
  9
$DIMLIM
 70
     0
  9
$DIMTIH
 70
     1
  9
$DIMTOH
 70
     1
  9
$DIMSE1
 70
     0
  9
$DIMSE2
 70
     0
  9
$DIMTAD
 70
     0
  9
$DIMZIN
 70
     0
  9
$DIMBLK
  1

  9
$DIMASO
 70
     1
  9
$DIMSHO
 70
     1
  9
$DIMPOST
  1

  9
$DIMAPOST
  1

  9
$DIMALT
 70
     0
  9
$DIMALTD
 70
     2
  9
$DIMALTF
 40
25.399999999999999
  9
$DIMLFAC
 40
1.0
  9
$DIMTOFL
 70
     0
  9
$DIMTVP
 40
0.0
  9
$DIMTIX
 70
     0
  9
$DIMSOXD
 70
     0
  9
$DIMSAH
 70
     0
  9
$DIMBLK1
  1

  9
$DIMBLK2
  1

  9
$DIMSTYLE
  2
STANDARD
  9
$DIMCLRD
 70
     0
  9
$DIMCLRE
 70
     0
  9
$DIMCLRT
 70
     0
  9
$DIMTFAC
 40
1.0
  9
$DIMGAP
 40
0.09
  9
$LUNITS
 70
     2
  9
$LUPREC
 70
     4
  9
$SKETCHINC
 40
0.1
  9
$FILLETRAD
 40
0.0
  9
$AUNITS
 70
     0
  9
$AUPREC
 70
     0
  9
$MENU
  1
.
  9
$ELEVATION
 40
0.0
  9
$PELEVATION
 40
0.0
  9
$THICKNESS
 40
0.0
  9
$LIMCHECK
 70
     0
  9
$BLIPMODE
 70
     0
  9
$CHAMFERA
 40
0.0
  9
$CHAMFERB
 40
0.0
  9
$SKPOLY
 70
     0
  9
$TDCREATE
 40
2456337.7682235069
  9
$TDUPDATE
 40
2456337.7682235069
  9
$TDINDWG
 40
0.0000025231
  9
$TDUSRTIMER
 40
0.0000025231
  9
$USRTIMER
 70
     1
  9
$ANGBASE
 50
0.0
  9
$ANGDIR
 70
     0
  9
$PDMODE
 70
     0
  9
$PDSIZE
 40
0.0
  9
$PLINEWID
 40
0.0
  9
$COORDS
 70
     0
  9
$SPLFRAME
 70
     0
  9
$SPLINETYPE
 70
     6
  9
$SPLINESEGS
 70
     8
  9
$ATTDIA
 70
     0
  9
$ATTREQ
 70
     1
  9
$HANDLING
 70
     1
  9
$HANDSEED
  5
3C0
  9
$SURFTAB1
 70
     6
  9
$SURFTAB2
 70
     6
  9
$SURFTYPE
 70
     6
  9
$SURFU
 70
     6
  9
$SURFV
 70
     6
  9
$UCSNAME
  2

  9
$UCSORG
 10
0.0
 20
0.0
 30
0.0
  9
$UCSXDIR
 10
1.0
 20
0.0
 30
0.0
  9
$UCSYDIR
 10
0.0
 20
1.0
 30
0.0
  9
$PUCSNAME
  2

  9
$PUCSORG
 10
0.0
 20
0.0
 30
0.0
  9
$PUCSXDIR
 10
1.0
 20
0.0
 30
0.0
  9
$PUCSYDIR
 10
0.0
 20
1.0
 30
0.0
  9
$USERI1
 70
     0
  9
$USERI2
 70
     0
  9
$USERI3
 70
     0
  9
$USERI4
 70
     0
  9
$USERI5
 70
     0
  9
$USERR1
 40
0.0
  9
$USERR2
 40
0.0
  9
$USERR3
 40
0.0
  9
$USERR4
 40
0.0
  9
$USERR5
 40
0.0
  9
$WORLDVIEW
 70
     1
  9
$SHADEDGE
 70
     3
  9
$SHADEDIF
 70
    70
  9
$TILEMODE
 70
     1
  9
$MAXACTVP
 70
    64
  9
$PLIMCHECK
 70
     0
  9
$PEXTMIN
 10
0.0
 20
0.0
 30
0.0
  9
$PEXTMAX
 10
5.0025608646434137
 20
10.49789386229676
 30
0.0
  9
$PLIMMIN
 10
0.0
 20
0.0
  9
$PLIMMAX
 10
5.0025608646434137
 20
10.49789386229676
  9
$UNITMODE
 70
     0
  9
$VISRETAIN
 70
     1
  9
$PLINEGEN
 70
     0
  9
$PSLTSCALE
 70
     1
  0
ENDSEC
  0
SECTION
  2
TABLES
  0
TABLE
  2
VPORT
 70
     1
  0
VPORT
  2
*ACTIVE
 70
     0
 10
0.0
 20
0.0
 11
1.0
 21
1.0
 12
-0.6133957984101182
 22
-5.1969320546584417
 13
0.0
 23
0.0
 14
1.0
 24
1.0
 15
0.0
 25
0.0
 16
0.0
 26
0.0
 36
1.0
 17
0.0
 27
0.0
 37
0.0
 40
10.49789386229676
 41
0.4765299526041252
 42
50.0
 43
0.0
 44
0.0
 50
0.0
 51
0.0
 71
     0
 72
   100
 73
     1
 74
     1
 75
     0
 76
     0
 77
     0
 78
     0
  0
ENDTAB
  0
TABLE
  2
LTYPE
 70
    59
  0
LTYPE
  2
CONTINUOUS
 70
     0
  3
Solid line
 72
    65
 73
     0
 40
0.0
  0
LTYPE
  2
PHANTOM2
 70
     0
  3
Phantom (.5x) ___ _ _ ___ _ _ ___ _ _ ___ _ _
 72
    65
 73
     6
 40
1.25
 49
0.625
 49
-0.125
 49
0.125
 49
-0.125
 49
0.125
 49
-0.125
  0
LTYPE
  2
BY_STANDARD
 70
     0
  3
By Standard ____________    ____    ____   _
 72
    65
 73
     6
 40
1.2402999999999991
 49
0.6614
 49
-0.0827
 49
0.1654
 49
-0.0827
 49
0.1654
 49
-0.0827
  0
LTYPE
  2
CHAIN
 70
     0
  3
Chain ____ _ ____ _ ____ _ ____ _ ____ _ ____
 72
    65
 73
     4
 40
0.7087
 49
0.4724000000000001
 49
-0.0591
 49
0.1181
 49
-0.0591
  0
LTYPE
  2
DASH_DOT
 70
     0
  3
Dash dot __ . __ . __ . __ . __ . __ . __ . __
 72
    65
 73
     4
 40
0.37
 49
0.24
 49
-0.06
 49
0.01
 49
-0.06
  0
LTYPE
  2
DOUBLE_DASH_DOT
 70
     0
  3
Double-Dash Dot __ __ . __ __ . __ __ . __ _
 72
    65
 73
     6
 40
0.4398
 49
0.24
 49
-0.06
 49
0.0098
 49
-0.06
 49
0.01
 49
-0.06
  0
LTYPE
  2
DASH_TRIPLE_DOT
 70
     0
  3
Dash Triple-Dot _ . . . _ . . . _ . . . _
 72
    65
 73
     8
 40
0.51
 49
0.24
 49
-0.06
 49
0.01
 49
-0.06
 49
0.01
 49
-0.06
 49
0.01
 49
-0.06
  0
LTYPE
  2
DASHED
 70
     0
  3
Dashed __ __ __ __ __ __ __ __ __ __ __ __ __ _
 72
    65
 73
     2
 40
0.2067
 49
0.1654
 49
-0.0413
  0
LTYPE
  2
DASH_DOUBLE_DOT
 70
     0
  3
Dash Double-Dot __ . . __ . . __ . . __ . .
 72
    65
 73
     6
 40
0.4398
 49
0.24
 49
-0.06
 49
0.0098
 49
-0.06
 49
0.01
 49
-0.06
  0
LTYPE
  2
DASHED_SPACE
 70
     0
  3
Dashed Space __ __ __ __ __ __ __ __ __ __ __ _
 72
    65
 73
     2
 40
0.2067
 49
0.1654
 49
-0.0413
  0
LTYPE
  2
DOTTED
 70
     0
  3
Dotted . . . . . . . . . . . . . . . . . . . . 
 72
    65
 73
     2
 40
0.0482
 49
0.0069
 49
-0.0413
  0
LTYPE
  2
DOUBLE_DASH_CHAIN
 70
     0
  3
Double-Dash Chain ______  __  __  ______  __  _
 72
    65
 73
     6
 40
1.2402999999999991
 49
0.6614
 49
-0.0827
 49
0.1654
 49
-0.0827
 49
0.1654
 49
-0.0827
  0
LTYPE
  2
DOUBLE_DASH_DOUBLE_DOT
 70
     0
  3
Double-Dash Double-dot _ _ . . _ _ . . _
 72
    65
 73
     8
 40
0.7400000000000001
 49
0.24
 49
-0.06
 49
0.24
 49
-0.06
 49
0.01
 49
-0.06
 49
0.01
 49
-0.06
  0
LTYPE
  2
DOUBLE_DASH_TRIPLE_DOT
 70
     0
  3
Double Dash Triple Dot __ __ . . . __ __ . .
 72
    65
 73
    10
 40
0.8100000000000001
 49
0.24
 49
-0.06
 49
0.24
 49
-0.06
 49
0.01
 49
-0.06
 49
0.01
 49
-0.06
 49
0.01
 49
-0.06
  0
LTYPE
  2
LONG_DASH_DOTTED
 70
     0
  3
Long Dash Dotted ____ . ____ . ____ . ____ . _
 72
    65
 73
     4
 40
0.3543
 49
0.2362
 49
-0.0295
 49
0.0591
 49
-0.0295
  0
LTYPE
  2
LONG_DASH_DOUBLE_DOT
 70
     0
  3
Long Dash Double Dot ________  .  .  ________  
 72
    65
 73
     6
 40
0.6799999999999999
 49
0.48
 49
-0.06
 49
0.01
 49
-0.06
 49
0.01
 49
-0.06
  0
LTYPE
  2
LONG_DASH_TRIPLE_DOT
 70
     0
  3
Long Dash Triple Dot ____ ... ____ ... ____
 72
    65
 73
     8
 40
0.3689
 49
0.2362
 49
-0.0295
 49
0.0049
 49
-0.0295
 49
0.0049
 49
-0.0295
 49
0.0049
 49
-0.0295
  0
LTYPE
  2
BORDER
 70
     0
  3
Border __ __ . __ __ . __ __ . __ __ . __ __ .
 72
    65
 73
     6
 40
1.75
 49
0.5
 49
-0.25
 49
0.5
 49
-0.25
 49
0.0
 49
-0.25
  0
LTYPE
  2
BORDER2
 70
     0
  3
Border (.5x) __.__.__.__.__.__.__.__.__.__.__.
 72
    65
 73
     6
 40
0.875
 49
0.25
 49
-0.125
 49
0.25
 49
-0.125
 49
0.0
 49
-0.125
  0
LTYPE
  2
BORDERX2
 70
     0
  3
Border (2x) ____  ____  .  ____  ____  .  ___
 72
    65
 73
     6
 40
3.5
 49
1.0
 49
-0.5
 49
1.0
 49
-0.5
 49
0.0
 49
-0.5
  0
LTYPE
  2
CENTER
 70
     0
  3
Center ____ _ ____ _ ____ _ ____ _ ____ _ ____
 72
    65
 73
     4
 40
2.0
 49
1.25
 49
-0.25
 49
0.25
 49
-0.25
  0
LTYPE
  2
CENTER2
 70
     0
  3
Center (.5x) ___ _ ___ _ ___ _ ___ _ ___ _ ___
 72
    65
 73
     4
 40
1.125
 49
0.75
 49
-0.125
 49
0.125
 49
-0.125
  0
LTYPE
  2
CENTERX2
 70
     0
  3
Center (2x) ________  __  ________  __  _____
 72
    65
 73
     4
 40
4.0
 49
2.5
 49
-0.5
 49
0.5
 49
-0.5
  0
LTYPE
  2
DASHDOT2
 70
     0
  3
Dash dot (.5x) _._._._._._._._._._._._._._._.
 72
    65
 73
     4
 40
0.5
 49
0.25
 49
-0.125
 49
0.0
 49
-0.125
  0
LTYPE
  2
DASHDOTX2
 70
     0
  3
Dash dot (2x) ____  .  ____  .  ____  .  ___
 72
    65
 73
     4
 40
2.0
 49
1.0
 49
-0.5
 49
0.0
 49
-0.5
  0
LTYPE
  2
DASHED2
 70
     0
  3
Dashed (.5x) _ _ _ _ _ _ _ _ _ _ _ _ _ _ _ _ _
 72
    65
 73
     2
 40
0.375
 49
0.25
 49
-0.125
  0
LTYPE
  2
DASHEDX2
 70
     0
  3
Dashed (2x) ____  ____  ____  ____  ____  ___
 72
    65
 73
     2
 40
1.5
 49
1.0
 49
-0.5
  0
LTYPE
  2
DIVIDE
 70
     0
  3
Divide ____ . . ____ . . ____ . . ____ . . ____
 72
    65
 73
     6
 40
1.25
 49
0.5
 49
-0.25
 49
0.0
 49
-0.25
 49
0.0
 49
-0.25
  0
LTYPE
  2
DIVIDE2
 70
     0
  3
Divide (.5x) __..__..__..__..__..__..__..__.._
 72
    65
 73
     6
 40
0.625
 49
0.25
 49
-0.125
 49
0.0
 49
-0.125
 49
0.0
 49
-0.125
  0
LTYPE
  2
DIVIDEX2
 70
     0
  3
Divide (2x) ________  .  .  ________  .  .  _
 72
    65
 73
     6
 40
2.5
 49
1.0
 49
-0.5
 49
0.0
 49
-0.5
 49
0.0
 49
-0.5
  0
LTYPE
  2
DOT
 70
     0
  3
Dot . . . . . . . . . . . . . . . . . . . . . .
 72
    65
 73
     2
 40
0.25
 49
0.0
 49
-0.25
  0
LTYPE
  2
DOT2
 70
     0
  3
Dot (.5x) .....................................
 72
    65
 73
     2
 40
0.125
 49
0.0
 49
-0.125
  0
LTYPE
  2
DOTX2
 70
     0
  3
Dot (2x) .  .  .  .  .  .  .  .  .  .  .  .  . 
 72
    65
 73
     2
 40
0.5
 49
0.0
 49
-0.5
  0
LTYPE
  2
HIDDEN
 70
     0
  3
Hidden __ __ __ __ __ __ __ __ __ __ __ __ __ _
 72
    65
 73
     2
 40
0.375
 49
0.25
 49
-0.125
  0
LTYPE
  2
HIDDEN2
 70
     0
  3
Hidden (.5x) _ _ _ _ _ _ _ _ _ _ _ _ _ _ _ _ _
 72
    65
 73
     2
 40
0.1875
 49
0.125
 49
-0.0625
  0
LTYPE
  2
HIDDENX2
 70
     0
  3
Hidden (2x) ____ ____ ____ ____ ____ ____ ____
 72
    65
 73
     2
 40
0.75
 49
0.5
 49
-0.25
  0
LTYPE
  2
PHANTOM
 70
     0
  3
Phantom ______  __  __  ______  __  __  ______
 72
    65
 73
     6
 40
2.5
 49
1.25
 49
-0.25
 49
0.25
 49
-0.25
 49
0.25
 49
-0.25
  0
LTYPE
  2
PHANTOMX2
 70
     0
  3
Phantom (2x) ____________    ____    ____   _
 72
    65
 73
     6
 40
5.0
 49
2.5
 49
-0.5
 49
0.5
 49
-0.5
 49
0.5
 49
-0.5
  0
LTYPE
  2
ACAD_ISO02W100
 70
     0
  3
ISO dash __ __ __ __ __ __ __ __ __ __ __ __ __
 72
    65
 73
     2
 40
0.59
 49
0.47
 49
-0.12
  0
LTYPE
  2
ACAD_ISO03W100
 70
     0
  3
ISO dash space __    __    __    __    __    __
 72
    65
 73
     2
 40
1.179999999999999
 49
0.47
 49
-0.71
  0
LTYPE
  2
ACAD_ISO04W100
 70
     0
  3
ISO long-dash dot ____ . ____ . ____ . ____ . _
 72
    65
 73
     4
 40
1.179999999999999
 49
0.9399999999999998
 49
-0.12
 49
0.0
 49
-0.12
  0
LTYPE
  2
ACAD_ISO05W100
 70
     0
  3
ISO long-dash double-dot ____ .. ____ .. ____ .
 72
    65
 73
     6
 40
1.2999999999999989
 49
0.9399999999999998
 49
-0.12
 49
0.0
 49
-0.12
 49
0.0
 49
-0.12
  0
LTYPE
  2
ACAD_ISO06W100
 70
     0
  3
ISO long-dash triple-dot ____ ... ____ ... ____
 72
    65
 73
     8
 40
1.419999999999999
 49
0.9399999999999998
 49
-0.12
 49
0.0
 49
-0.12
 49
0.0
 49
-0.12
 49
0.0
 49
-0.12
  0
LTYPE
  2
ACAD_ISO07W100
 70
     0
  3
ISO dot . . . . . . . . . . . . . . . . . . . .
 72
    65
 73
     2
 40
0.12
 49
0.0
 49
-0.12
  0
LTYPE
  2
ACAD_ISO08W100
 70
     0
  3
ISO long-dash short-dash ____ __ ____ __ ____ _
 72
    65
 73
     4
 40
0.95
 49
0.47
 49
-0.12
 49
0.24
 49
-0.12
  0
LTYPE
  2
ACAD_ISO09W100
 70
     0
  3
ISO long-dash double-short-dash ____ __ __ ____
 72
    65
 73
     6
 40
1.3100000000000001
 49
0.47
 49
-0.12
 49
0.24
 49
-0.12
 49
0.24
 49
-0.12
  0
LTYPE
  2
ACAD_ISO10W100
 70
     0
  3
ISO dash dot __ . __ . __ . __ . __ . __ . __ .
 72
    65
 73
     4
 40
0.71
 49
0.47
 49
-0.12
 49
0.0
 49
-0.12
  0
LTYPE
  2
ACAD_ISO11W100
 70
     0
  3
ISO double-dash dot __ __ . __ __ . __ __ . __ 
 72
    65
 73
     6
 40
1.2999999999999989
 49
0.47
 49
-0.12
 49
0.47
 49
-0.12
 49
0.0
 49
-0.12
  0
LTYPE
  2
ACAD_ISO12W100
 70
     0
  3
ISO dash double-dot __ . . __ . . __ . . __ . .
 72
    65
 73
     6
 40
0.8299999999999999
 49
0.47
 49
-0.12
 49
0.0
 49
-0.12
 49
0.0
 49
-0.12
  0
LTYPE
  2
ACAD_ISO13W100
 70
     0
  3
ISO double-dash double-dot __ __ . . __ __ . . 
 72
    65
 73
     8
 40
1.419999999999999
 49
0.47
 49
-0.12
 49
0.47
 49
-0.12
 49
0.0
 49
-0.12
 49
0.0
 49
-0.12
  0
LTYPE
  2
ACAD_ISO14W100
 70
     0
  3
ISO dash triple-dot __ . . . __ . . . __ . . . 
 72
    65
 73
     8
 40
0.95
 49
0.47
 49
-0.12
 49
0.0
 49
-0.12
 49
0.0
 49
-0.12
 49
0.0
 49
-0.12
  0
LTYPE
  2
ACAD_ISO15W100
 70
     0
  3
ISO double-dash triple-dot __ __ . . . __ __ . 
 72
    65
 73
    10
 40
1.5399999999999989
 49
0.47
 49
-0.12
 49
0.47
 49
-0.12
 49
0.0
 49
-0.12
 49
0.0
 49
-0.12
 49
0.0
 49
-0.12
  0
LTYPE
  2
FENCELINE1
 70
     0
  3
Fenceline circle ----0-----0----0-----0----0---
 72
    65
 73
     4
 40
1.45
 49
0.25
 49
-0.1
 49
-0.1
 49
1.0
  0
LTYPE
  2
FENCELINE2
 70
     0
  3
Fenceline square ----[]-----[]----[]-----[]----
 72
    65
 73
     4
 40
1.45
 49
0.25
 49
-0.1
 49
-0.1
 49
1.0
  0
LTYPE
  2
TRACKS
 70
     0
  3
Tracks -|-|-|-|-|-|-|-|-|-|-|-|-|-|-|-|-|-|-|-|
 72
    65
 73
     2
 40
0.3
 49
0.15
 49
0.15
  0
LTYPE
  2
BATTING
 70
     0
  3
Batting SSSSSSSSSSSSSSSSSSSSSSSSSSSSSSSSSSSSSSS
 72
    65
 73
     4
 40
0.4001000000000001
 49
0.0001
 49
-0.1
 49
-0.2
 49
-0.1
  0
LTYPE
  2
HOT_WATER_SUPPLY
 70
     0
  3
Hot water supply ---- HW ---- HW ---- HW ----
 72
    65
 73
     3
 40
0.9
 49
0.5
 49
-0.2
 49
-0.2
  0
LTYPE
  2
GAS_LINE
 70
     0
  3
Gas line ----GAS----GAS----GAS----GAS----GAS---
 72
    65
 73
     3
 40
0.95
 49
0.5
 49
-0.2
 49
-0.25
  0
LTYPE
  2
ZIGZAG
 70
     0
  3
Zig zag /\/\/\/\/\/\/\/\/\/\/\/\/\/\/\/\/\/\/\/
 72
    65
 73
     4
 40
0.8001000000000001
 49
0.0001
 49
-0.2
 49
-0.4
 49
-0.2
  0
ENDTAB
  0
TABLE
  2
LAYER
 70
     1
  0
LAYER
  2
0
 70
     0
 62
     7
  6
CONTINUOUS
  0
ENDTAB
  0
TABLE
  2
STYLE
 70
     3
  0
STYLE
  2
STANDARD
 70
     0
 40
0.0
 41
1.0
 50
0.0
 71
     0
 42
0.2
  3
txt
  4

  0
STYLE
  2
ANNOTATIVE
 70
     0
 40
0.0
 41
1.0
 50
0.0
 71
     0
 42
0.2
  3
txt
  4

  0
STYLE
  2

 70
     1
 40
0.0
 41
1.0
 50
0.0
 71
     0
 42
0.2
  3
ltypeshp.shx
  4

  0
ENDTAB
  0
TABLE
  2
VIEW
 70
     0
  0
ENDTAB
  0
TABLE
  2
UCS
 70
     0
  0
ENDTAB
  0
TABLE
  2
APPID
 70
     3
  0
APPID
  2
ACAD
 70
     0
  0
APPID
  2
ACADANNOTATIVE
 70
     0
  0
APPID
  2
ACAD_MLEADERVER
 70
     0
  0
ENDTAB
  0
TABLE
  2
DIMSTYLE
 70
     2
  0
DIMSTYLE
  2
STANDARD
 70
     0
  3

  4

  5

  6

  7

 40
1.0
 41
0.18
 42
0.0625
 43
0.38
 44
0.18
 45
0.0
 46
0.0
 47
0.0
 48
0.0
140
0.18
141
0.09
142
0.0
143
25.399999999999999
144
1.0
145
0.0
146
1.0
147
0.09
 71
     0
 72
     0
 73
     1
 74
     1
 75
     0
 76
     0
 77
     0
 78
     0
170
     0
171
     2
172
     0
173
     0
174
     0
175
     0
176
     0
177
     0
178
     0
  0
DIMSTYLE
  2
ANNOTATIVE
 70
     0
  3

  4

  5

  6

  7

 40
1.0
 41
0.18
 42
0.0625
 43
0.38
 44
0.18
 45
0.0
 46
0.0
 47
0.0
 48
0.0
140
0.18
141
0.09
142
0.0
143
25.399999999999999
144
1.0
145
0.0
146
1.0
147
0.09
 71
     0
 72
     0
 73
     1
 74
     1
 75
     0
 76
     0
 77
     0
 78
     0
170
     0
171
     2
172
     0
173
     0
174
     0
175
     0
176
     0
177
     0
178
     0
  0
ENDTAB
  0
ENDSEC
  0
SECTION
  2
BLOCKS
  0
BLOCK
  8
0
  2
$MODEL_SPACE
 70
     0
 10
0.0
 20
0.0
 30
0.0
  3
$MODEL_SPACE
  1

  0
ENDBLK
  5
73
  8
0
  0
BLOCK
 67
     1
  8
0
  2
$PAPER_SPACE
 70
     0
 10
0.0
 20
0.0
 30
0.0
  3
$PAPER_SPACE
  1

  0
ENDBLK
  5
6F
 67
     1
  8
0
  0
ENDSEC
  0
SECTION
  2
ENTITIES
  0
POLYLINE
  5
B7
  8
0
 66
     1
 10
0.0
 20
0.0
 30
0.0
 70
     1
  0
VERTEX
  5
B8
  8
0
 10
-1.792383662539115
 20
-3.422807352306811
 30
0.0
  0
VERTEX
  5
B9
  8
0
 10
-1.7923836625391161
 20
-3.3013993055211972
 30
0.0
 42
-0.1539147210597914
  0
VERTEX
  5
BB
  8
0
 10
-1.788823663410944
 20
-3.2901084307898798
 30
0.0
  0
VERTEX
  5
BC
  8
0
 10
-1.66769421452387
 20
-3.1171176498040372
 30
0.0
 42
-0.479495322798215
  0
VERTEX
  5
BD
  8
0
 10
-1.6370628062198289
 20
-3.115101907360152
 30
0.0
  0
VERTEX
  5
BE
  8
0
 10
-1.535615366446776
 20
-3.2256960486758892
 30
0.0
 42
-0.429530535274029
  0
VERTEX
  5
BF
  8
0
 10
-1.537587259165007
 20
-3.2541811935417071
 30
0.0
  0
VERTEX
  5
C0
  8
0
 10
-1.7601641478251351
 20
-3.437985879997425
 30
0.0
 42
-0.6343133091491612
  0
SEQEND
  5
BA
  8
0
  0
POLYLINE
  5
C2
  8
0
 66
     1
 10
0.0
 20
0.0
 30
0.0
 70
     1
  0
VERTEX
  5
C3
  8
0
 10
-0.1159098412544756
 20
-2.2220278661505262
 30
0.0
  0
VERTEX
  5
C4
  8
0
 10
-0.0969089742403487
 20
-2.3297871378047188
 30
0.0
 42
-0.824336385817466
  0
VERTEX
  5
C6
  8
0
 10
-0.1329888137909115
 20
-2.3436368905980292
 30
0.0
  0
VERTEX
  5
C7
  8
0
 10
-0.1838722611270842
 20
-2.262206352869311
 30
0.0
 42
-0.376124298461689
  0
VERTEX
  5
C8
  8
0
 10
-0.1797128763104256
 20
-2.236596343599305
 30
0.0
  0
VERTEX
  5
C9
  8
0
 10
-0.14783029598838
 20
-2.2102676096738278
 30
0.0
 42
-0.5747352364165356
  0
SEQEND
  5
C5
  8
0
  0
POLYLINE
  5
CA
  8
0
 66
     1
 10
0.0
 20
0.0
 30
0.0
 70
     1
  0
VERTEX
  5
CB
  8
0
 10
-0.8485801260844448
 20
-2.6594223629315579
 30
0.0
  0
VERTEX
  5
CC
  8
0
 10
-1.106653432764227
 20
-2.3407283703350972
 30
0.0
 42
-0.3345953195020543
  0
VERTEX
  5
CE
  8
0
 10
-1.107480324158558
 20
-2.317049298929569
 30
0.0
  0
VERTEX
  5
CF
  8
0
 10
-0.6682185534992343
 20
-1.68971847672444
 30
0.0
 42
-0.5373193821393932
  0
VERTEX
  5
D0
  8
0
 10
-0.6353996530967656
 20
-1.6905778698763669
 30
0.0
  0
VERTEX
  5
D1
  8
0
 10
-0.3071417645569406
 20
-2.2159003033367548
 30
0.0
 42
-0.3761242984617005
  0
VERTEX
  5
D2
  8
0
 10
-0.3113011493735989
 20
-2.2415103126067621
 30
0.0
  0
VERTEX
  5
D3
  8
0
 10
-0.8207475018929661
 20
-2.662212693947962
 30
0.0
 42
-0.4170279384454522
  0
SEQEND
  5
CD
  8
0
  0
POLYLINE
  5
D4
  8
0
 66
     1
 10
0.0
 20
0.0
 30
0.0
 70
     1
  0
VERTEX
  5
D5
  8
0
 10
-0.8746039598104363
 20
-2.828313467426899
 30
0.0
  0
VERTEX
  5
D6
  8
0
 10
-0.7509883315040042
 20
-2.908590395086978
 30
0.0
 42
-0.0787017068246403
  0
VERTEX
  5
D8
  8
0
 10
-0.7464114235031774
 20
-2.912711461561301
 30
0.0
  0
VERTEX
  5
D9
  8
0
 10
-0.2128185336832242
 20
-3.5716438039472829
 30
0.0
 42
-0.3221240856308121
  0
VERTEX
  5
DA
  8
0
 10
-0.2114997369553987
 20
-3.5945855732272789
 30
0.0
  0
VERTEX
  5
DB
  8
0
 10
-0.556597850007762
 20
-4.1379538502050961
 30
0.0
 42
-0.4934166777290376
  0
VERTEX
  5
DC
  8
0
 10
-0.5877211636452994
 20
-4.1407068947745138
 30
0.0
  0
VERTEX
  5
DD
  8
0
 10
-1.391660287097894
 20
-3.264283032060292
 30
0.0
 42
-0.4295305352740335
  0
VERTEX
  5
DE
  8
0
 10
-1.389688394379661
 20
-3.235797887194475
 30
0.0
  0
VERTEX
  5
DF
  8
0
 10
-0.8978596760010899
 20
-2.8296442028848179
 30
0.0
 42
-0.3275749560477097
  0
SEQEND
  5
D7
  8
0
  0
POLYLINE
  5
E0
  8
0
 66
     1
 10
0.0
 20
0.0
 30
0.0
 70
     1
  0
VERTEX
  5
E1
  8
0
 10
-0.3370569060985185
 20
-5.6273656468189968
 30
0.0
  0
VERTEX
  5
E2
  8
0
 10
-0.9055727275120986
 20
-4.8601813245737562
 30
0.0
 42
-0.3103169032481729
  0
VERTEX
  5
E4
  8
0
 10
-0.906373897494745
 20
-4.837907597643003
 30
0.0
  0
VERTEX
  5
E5
  8
0
 10
-0.7092421420738642
 20
-4.5275171949449682
 30
0.0
 42
-0.3668388665524136
  0
VERTEX
  5
E6
  8
0
 10
-0.684933638851033
 20
-4.5199505932701944
 30
0.0
  0
VERTEX
  5
E7
  8
0
 10
-0.1377426989900206
 20
-4.7522193668992561
 30
0.0
 42
-0.1071781016148687
  0
VERTEX
  5
E8
  8
0
 10
-0.130927888575314
 20
-4.7570329240046094
 30
0.0
  0
VERTEX
  5
E9
  8
0
 10
-0.0269402696882947
 20
-4.8703962720004341
 30
0.0
 42
-0.2841500181961431
  0
VERTEX
  5
EA
  8
0
 10
-0.023059238294611
 20
-4.8907317095783638
 30
0.0
  0
VERTEX
  5
EB
  8
0
 10
-0.3028537310499448
 20
-5.6226743128967556
 30
0.0
 42
-0.5922231660616357
  0
SEQEND
  5
E3
  8
0
  0
POLYLINE
  5
EC
  8
0
 66
     1
 10
0.0
 20
0.0
 30
0.0
 70
     1
  0
VERTEX
  5
ED
  8
0
 10
-0.2716795608020963
 20
-5.8499562799565883
 30
0.0
  0
VERTEX
  5
EE
  8
0
 10
-0.1203965135584128
 20
-6.0541053602376937
 30
0.0
 42
-0.341353138661664
  0
VERTEX
  5
F0
  8
0
 10
-0.1208817605434869
 20
-6.0781736183689361
 30
0.0
  0
VERTEX
  5
F1
  8
0
 10
-0.5395647734262514
 20
-6.5979807083683024
 30
0.0
 42
-0.3846151637195156
  0
VERTEX
  5
F2
  8
0
 10
-0.5656165428806862
 20
-6.6021418677105581
 30
0.0
  0
VERTEX
  5
F3
  8
0
 10
-0.5731003417300564
 20
-6.5972818319118138
 30
0.0
 42
-0.3537257823725735
  0
VERTEX
  5
F4
  8
0
 10
-0.5807665003391211
 20
-6.5737437483605552
 30
0.0
  0
VERTEX
  5
F5
  8
0
 10
-0.305882735850672
 20
-5.8546476138788268
 30
0.0
 42
-0.592223166061625
  0
SEQEND
  5
EF
  8
0
  0
POLYLINE
  5
F6
  8
0
 66
     1
 10
0.0
 20
0.0
 30
0.0
 70
     1
  0
VERTEX
  5
F7
  8
0
 10
0.2748185092680301
 20
-4.4379584568780208
 30
0.0
  0
VERTEX
  5
F8
  8
0
 10
0.3452311897015842
 20
-4.83728861129139
 30
0.0
 42
-0.5949374815389092
  0
VERTEX
  5
FA
  8
0
 10
0.3181536526641531
 20
-4.8588270567858673
 30
0.0
  0
VERTEX
  5
FB
  8
0
 10
0.1262330907830615
 20
-4.7773616115545456
 30
0.0
 42
-0.4036202366966565
  0
VERTEX
  5
FC
  8
0
 10
0.1155372489746728
 20
-4.7522126168712591
 30
0.0
  0
VERTEX
  5
FD
  8
0
 10
0.2370451304222092
 20
-4.4343479076892089
 30
0.0
 42
-0.7609687241957096
  0
SEQEND
  5
F9
  8
0
  0
POLYLINE
  5
FE
  8
0
 66
     1
 10
0.0
 20
0.0
 30
0.0
 70
     1
  0
VERTEX
  5
FF
  8
0
 10
-1.3832401824561309
 20
-8.3670408256800712
 30
0.0
  0
VERTEX
  5
100
  8
0
 10
-1.6169844001346469
 20
-8.0884753145135768
 30
0.0
 42
-0.3582979919288137
  0
VERTEX
  5
102
  8
0
 10
-1.6172353137202999
 20
-8.0634739113040226
 30
0.0
  0
VERTEX
  5
103
  8
0
 10
-1.310473636057742
 20
-7.6826204014107349
 30
0.0
 42
-0.4908150658840395
  0
VERTEX
  5
104
  8
0
 10
-1.279335517922116
 20
-7.6832373122547537
 30
0.0
  0
VERTEX
  5
105
  8
0
 10
-1.161155337217278
 20
-7.842483161584056
 30
0.0
 42
-0.2562913154281099
  0
VERTEX
  5
106
  8
0
 10
-1.1585755272894041
 20
-7.8612431749490383
 30
0.0
  0
VERTEX
  5
107
  8
0
 10
-1.3497731679782881
 20
-8.3614163466795208
 30
0.0
 42
-0.572010273614245
  0
SEQEND
  5
101
  8
0
  0
POLYLINE
  5
108
  8
0
 66
     1
 10
0.0
 20
0.0
 30
0.0
 70
     1
  0
VERTEX
  5
109
  8
0
 10
-1.314054514411489
 20
-8.5739510002771375
 30
0.0
  0
VERTEX
  5
10A
  8
0
 10
-0.9166656462520364
 20
-9.0475406115631127
 30
0.0
 42
-0.3181313807324856
  0
VERTEX
  5
10C
  8
0
 10
-0.9147997719358544
 20
-9.0702114538832053
 30
0.0
  0
VERTEX
  5
10D
  8
0
 10
-0.9601272046430951
 20
-9.1468864962610752
 30
0.0
 42
-0.2189953105881059
  0
VERTEX
  5
10E
  8
0
 10
-0.9736544227673875
 20
-9.1562549327342655
 30
0.0
  0
VERTEX
  5
10F
  8
0
 10
-1.576709491437198
 20
-9.2625898121937524
 30
0.0
 42
-0.5827150746934557
  0
VERTEX
  5
110
  8
0
 10
-1.59851516210693
 20
-9.2361750124010182
 30
0.0
  0
VERTEX
  5
111
  8
0
 10
-1.347521528889333
 20
-8.5795754792776897
 30
0.0
 42
-0.572010273614244
  0
SEQEND
  5
10B
  8
0
  0
POLYLINE
  5
112
  8
0
 66
     1
 10
0.0
 20
0.0
 30
0.0
 70
     1
  0
VERTEX
  5
113
  8
0
 10
-1.142233168362242
 20
-7.7337398073939001
 30
0.0
  0
VERTEX
  5
114
  8
0
 10
-1.233583753591547
 20
-7.6106463965968567
 30
0.0
 42
-0.3415480201188232
  0
VERTEX
  5
116
  8
0
 10
-1.2331066926712879
 20
-7.5865670998283283
 30
0.0
  0
VERTEX
  5
117
  8
0
 10
-0.9696843253008994
 20
-7.2595205992293499
 30
0.0
 42
-0.8546090549215001
  0
VERTEX
  5
118
  8
0
 10
-0.9359663972373983
 20
-7.2788975234383519
 30
0.0
  0
VERTEX
  5
119
  8
0
 10
-1.1080381793784839
 20
-7.729037434834372
 30
0.0
 42
-0.5919874438664922
  0
SEQEND
  5
115
  8
0
  0
POLYLINE
  5
11A
  8
0
 66
     1
 10
0.0
 20
0.0
 30
0.0
 70
     1
  0
VERTEX
  5
11B
  8
0
 10
-1.060465485229473
 20
-7.8286366533358676
 30
0.0
  0
VERTEX
  5
11C
  8
0
 10
-0.7295132381888411
 20
-6.9628653263611904
 30
0.0
 42
-0.0783943897462364
  0
VERTEX
  5
11E
  8
0
 10
-0.7264563673407081
 20
-6.9575460429576426
 30
0.0
  0
VERTEX
  5
11F
  8
0
 10
-0.6967918027499658
 20
-6.920716626617482
 30
0.0
 42
-0.5461803525679099
  0
VERTEX
  5
120
  8
0
 10
-0.6638567371389762
 20
-6.9242567197572811
 30
0.0
  0
VERTEX
  5
121
  8
0
 10
-0.2021696646501649
 20
-7.8470288937865753
 30
0.0
 42
-0.2547574038455242
  0
VERTEX
  5
122
  8
0
 10
-0.2028287123152634
 20
-7.8658544473698626
 30
0.0
  0
VERTEX
  5
123
  8
0
 10
-0.5607906319664494
 20
-8.4713761749336385
 30
0.0
 42
-0.536363841351905
  0
VERTEX
  5
124
  8
0
 10
-0.5935437108325991
 20
-8.4730898249790751
 30
0.0
  0
VERTEX
  5
125
  8
0
 10
-1.0578856753015971
 20
-7.8473966667008499
 30
0.0
 42
-0.256291315428109
  0
SEQEND
  5
11D
  8
0
  0
POLYLINE
  5
126
  8
0
 66
     1
 10
0.0
 20
0.0
 30
0.0
 70
     1
  0
VERTEX
  5
127
  8
0
 10
-0.3534135782244403
 20
-5.7549389111018439
 30
0.0
  0
VERTEX
  5
128
  8
0
 10
-0.6704268984472352
 20
-6.5842459950457117
 30
0.0
 42
-0.5574504315386643
  0
VERTEX
  5
12A
  8
0
 10
-0.7033206659651837
 20
-6.5905237918181898
 30
0.0
  0
VERTEX
  5
12B
  8
0
 10
-0.7851785501240667
 20
-6.5012854391428814
 30
0.0
 42
-0.0697075823481106
  0
VERTEX
  5
12C
  8
0
 10
-0.7882767190652396
 20
-6.4967868326341511
 30
0.0
  0
VERTEX
  5
12D
  8
0
 10
-1.2995847202691231
 20
-5.4748374994504356
 30
0.0
 42
-0.2632780284372869
  0
VERTEX
  5
12E
  8
0
 10
-1.298597128841223
 20
-5.4554759161781732
 30
0.0
  0
VERTEX
  5
12F
  8
0
 10
-0.9749422104476802
 20
-4.9458706512075974
 30
0.0
 42
-0.5263483169927276
  0
VERTEX
  5
130
  8
0
 10
-0.9425094892795167
 20
-4.9447040694884157
 30
0.0
  0
VERTEX
  5
131
  8
0
 10
-0.3559852020874961
 20
-5.7361899363741484
 30
0.0
 42
-0.2561053265837299
  0
SEQEND
  5
129
  8
0
  0
POLYLINE
  5
132
  8
0
 66
     1
 10
0.0
 20
0.0
 30
0.0
 70
     1
  0
VERTEX
  5
133
  8
0
 10
-1.6951901982083739
 20
-7.9952732736975154
 30
0.0
  0
VERTEX
  5
134
  8
0
 10
-1.7877782381910621
 20
-7.884931144416889
 30
0.0
 42
-0.1763269807084482
  0
VERTEX
  5
136
  8
0
 10
-1.792383662539113
 20
-7.8722778450136106
 30
0.0
  0
VERTEX
  5
137
  8
0
 10
-1.792383662539115
 20
-7.0514703040042557
 30
0.0
 42
-0.7226830087652507
  0
VERTEX
  5
138
  8
0
 10
-1.756891033641093
 20
-7.039739111042004
 30
0.0
  0
VERTEX
  5
139
  8
0
 10
-1.3528372114618989
 20
-7.5841949893789886
 30
0.0
 42
-0.3415480201188666
  0
VERTEX
  5
13A
  8
0
 10
-1.3533142723821601
 20
-7.6082742861475214
 30
0.0
  0
VERTEX
  5
13B
  8
0
 10
-1.664780054578662
 20
-7.9949680781005128
 30
0.0
 42
-0.4724309480572214
  0
SEQEND
  5
135
  8
0
  0
POLYLINE
  5
13C
  8
0
 66
     1
 10
0.0
 20
0.0
 30
0.0
 70
     1
  0
VERTEX
  5
13D
  8
0
 10
-1.398543876098534
 20
-8.4890005557741244
 30
0.0
  0
VERTEX
  5
13E
  8
0
 10
-1.698770964803707
 20
-9.2743948454527452
 30
0.0
 42
-0.2636513242204566
  0
VERTEX
  5
140
  8
0
 10
-1.713740093045607
 20
-9.2867520044400251
 30
0.0
  0
VERTEX
  5
141
  8
0
 10
-1.769280351955119
 20
-9.2965452506013051
 30
0.0
 42
-0.4663076581550186
  0
VERTEX
  5
142
  8
0
 10
-1.792383662539115
 20
-9.2771592712113033
 30
0.0
  0
VERTEX
  5
143
  8
0
 10
-1.7923836625391161
 20
-8.2878675130602915
 30
0.0
 42
-0.1711576792888644
  0
VERTEX
  5
144
  8
0
 10
-1.7880291517767211
 20
-8.2755194092540147
 30
0.0
  0
VERTEX
  5
145
  8
0
 10
-1.6935548002106651
 20
-8.1582267648044571
 30
0.0
 42
-0.4724309480572452
  0
VERTEX
  5
146
  8
0
 10
-1.6631446565809549
 20
-8.1579215692074527
 30
0.0
  0
VERTEX
  5
147
  8
0
 10
-1.4018516605323219
 20
-8.4693184359681162
 30
0.0
 42
-0.2722563163673771
  0
SEQEND
  5
13F
  8
0
  0
POLYLINE
  5
148
  8
0
 66
     1
 10
0.0
 20
0.0
 30
0.0
 70
     1
  0
VERTEX
  5
149
  8
0
 10
-0.2553228886761765
 20
-5.7223830156737421
 30
0.0
  0
VERTEX
  5
14A
  8
0
 10
0.0303697636516437
 20
-4.9750108224811518
 30
0.0
 42
-0.5574504315386526
  0
VERTEX
  5
14C
  8
0
 10
0.0632635311695938
 20
-4.9687330257086764
 30
0.0
  0
VERTEX
  5
14D
  8
0
 10
0.4295817774084859
 20
-5.3680792485577493
 30
0.0
 42
-0.3708043595597294
  0
VERTEX
  5
14E
  8
0
 10
0.4304059379540344
 20
-5.3937339695392286
 30
0.0
  0
VERTEX
  5
14F
  8
0
 10
-0.043500756790587
 20
-5.982102860434253
 30
0.0
 42
-0.4910316622477671
  0
VERTEX
  5
150
  8
0
 10
-0.0746470609910286
 20
-5.9814749109529437
 30
0.0
  0
VERTEX
  5
151
  8
0
 10
-0.2527512648131193
 20
-5.7411319904014366
 30
0.0
 42
-0.2561053265837387
  0
SEQEND
  5
14B
  8
0
  0
POLYLINE
  5
152
  8
0
 66
     1
 10
0.0
 20
0.0
 30
0.0
 70
     1
  0
VERTEX
  5
153
  8
0
 10
-1.792383662539115
 20
-3.0932839242486332
 30
0.0
  0
VERTEX
  5
154
  8
0
 10
-1.7923836625391161
 20
-2.9963578052891822
 30
0.0
 42
-0.6838814442586
  0
VERTEX
  5
156
  8
0
 10
-1.7581922551069009
 20
-2.983051188113977
 30
0.0
  0
VERTEX
  5
157
  8
0
 10
-1.7197036974405151
 20
-3.0250099501598
 30
0.0
 42
-0.3518123167955053
  0
VERTEX
  5
158
  8
0
 10
-1.7180850252607389
 20
-3.0496074420663239
 30
0.0
  0
VERTEX
  5
159
  8
0
 10
-1.7565735829271261
 20
-3.1045747989799559
 30
0.0
 42
-0.7332303362617796
  0
SEQEND
  5
155
  8
0
  0
POLYLINE
  5
15A
  8
0
 66
     1
 10
0.0
 20
0.0
 30
0.0
 70
     1
  0
VERTEX
  5
15B
  8
0
 10
-0.1465891250481616
 20
-2.1054906109707439
 30
0.0
  0
VERTEX
  5
15C
  8
0
 10
-0.2184536230970857
 20
-2.1648365368244828
 30
0.0
 42
-0.4533570857194566
  0
VERTEX
  5
15E
  8
0
 10
-0.2476819586015449
 20
-2.1600894907132671
 30
0.0
  0
VERTEX
  5
15F
  8
0
 10
-0.5944065984399699
 20
-1.605214077510513
 30
0.0
 42
-0.300965839132728
  0
VERTEX
  5
160
  8
0
 10
-0.5938377785213199
 20
-1.5834917211998001
 30
0.0
  0
VERTEX
  5
161
  8
0
 10
-0.3292520968280479
 20
-1.20562420727705
 30
0.0
 42
-0.6681786379193309
  0
VERTEX
  5
162
  8
0
 10
-0.2937410771961344
 20
-1.213496810794453
 30
0.0
  0
VERTEX
  5
163
  8
0
 10
-0.1397376210020571
 20
-2.0868938120662159
 30
0.0
 42
-0.2700547709538889
  0
SEQEND
  5
15D
  8
0
  0
POLYLINE
  5
164
  8
0
 66
     1
 10
0.0
 20
0.0
 30
0.0
 70
     1
  0
VERTEX
  5
165
  8
0
 10
-1.1848028326101021
 20
-2.244221898680506
 30
0.0
  0
VERTEX
  5
166
  8
0
 10
-1.4803646004418589
 20
-1.879233512004596
 30
0.0
 42
-0.2914734195860838
  0
VERTEX
  5
168
  8
0
 10
-1.482759247781271
 20
-1.8582159620471359
 30
0.0
  0
VERTEX
  5
169
  8
0
 10
-1.176939438245818
 20
-1.2311924317255509
 30
0.0
 42
-0.240078759080118
  0
VERTEX
  5
16A
  8
0
 10
-1.162664913272744
 20
-1.2204358056187961
 30
0.0
  0
VERTEX
  5
16B
  8
0
 10
-0.9654258245874205
 20
-1.1856572326332251
 30
0.0
 42
-0.3057306814586705
  0
VERTEX
  5
16C
  8
0
 10
-0.9453136932129446
 20
-1.1946117304438331
 30
0.0
  0
VERTEX
  5
16D
  8
0
 10
-0.7041190129786769
 20
-1.580603905443746
 30
0.0
 42
-0.3009658391327279
  0
VERTEX
  5
16E
  8
0
 10
-0.7046878328973278
 20
-1.6023262617544589
 30
0.0
  0
VERTEX
  5
16F
  8
0
 10
-1.1533796435206121
 20
-2.2431245767376189
 30
0.0
 42
-0.4985816080534007
  0
SEQEND
  5
167
  8
0
  0
POLYLINE
  5
170
  8
0
 66
     1
 10
0.0
 20
0.0
 30
0.0
 70
     1
  0
VERTEX
  5
171
  8
0
 10
-1.147284215748583
 20
-2.4176747902851838
 30
0.0
  0
VERTEX
  5
172
  8
0
 10
-0.989511401821057
 20
-2.61250798958282
 30
0.0
 42
-0.8540806854634414
  0
VERTEX
  5
174
  8
0
 10
-1.0155307915153871
 20
-2.6414054494055601
 30
0.0
  0
VERTEX
  5
175
  8
0
 10
-1.217766596438508
 20
-2.5100719820720738
 30
0.0
 42
-0.4244748162095983
  0
VERTEX
  5
176
  8
0
 10
-1.223170395833665
 20
-2.482271844192224
 30
0.0
  0
VERTEX
  5
177
  8
0
 10
-1.178707404838071
 20
-2.4187721122280719
 30
0.0
 42
-0.4985816080534389
  0
SEQEND
  5
173
  8
0
  0
POLYLINE
  5
178
  8
0
 66
     1
 10
0.0
 20
0.0
 30
0.0
 70
     1
  0
VERTEX
  5
179
  8
0
 10
-0.9777324184013047
 20
-2.7918513259316842
 30
0.0
  0
VERTEX
  5
17A
  8
0
 10
-1.44542003343696
 20
-3.1780692120668208
 30
0.0
 42
-0.3990607060496797
  0
VERTEX
  5
17C
  8
0
 10
-1.472460876842995
 20
-3.1761973015514142
 30
0.0
  0
VERTEX
  5
17D
  8
0
 10
-1.595953441574858
 20
-3.0415704032684028
 30
0.0
 42
-0.3518123167955013
  0
VERTEX
  5
17E
  8
0
 10
-1.597572113754633
 20
-3.016972911361878
 30
0.0
  0
VERTEX
  5
17F
  8
0
 10
-1.2916799944007671
 20
-2.5801136908285351
 30
0.0
 42
-0.4040262258351647
  0
VERTEX
  5
180
  8
0
 10
-1.264833713312105
 20
-2.5748953024113219
 30
0.0
  0
VERTEX
  5
181
  8
0
 10
-0.9795456528984528
 20
-2.7601635350925391
 30
0.0
 42
-0.5065062736300372
  0
SEQEND
  5
17B
  8
0
  0
POLYLINE
  5
182
  8
0
 66
     1
 10
0.0
 20
0.0
 30
0.0
 70
     1
  0
VERTEX
  5
183
  8
0
 10
0.8725343814426022
 20
-7.8277736160386171
 30
0.0
  0
VERTEX
  5
184
  8
0
 10
0.9657461734193304
 20
-8.3564039572502224
 30
0.0
 42
-0.749934616404707
  0
VERTEX
  5
186
  8
0
 10
0.9318538259671925
 20
-8.3731288456393411
 30
0.0
  0
VERTEX
  5
187
  8
0
 10
0.7588811793426038
 20
-8.184560643550137
 30
0.0
 42
-0.2480770366981088
  0
VERTEX
  5
188
  8
0
 10
0.7542226083718016
 20
-8.1667589305066102
 30
0.0
  0
VERTEX
  5
189
  8
0
 10
0.833983463019663
 20
-7.8266967913842134
 30
0.0
 42
-0.8155800988038791
  0
SEQEND
  5
185
  8
0
  0
POLYLINE
  5
18A
  8
0
 66
     1
 10
0.0
 20
0.0
 30
0.0
 70
     1
  0
VERTEX
  5
18B
  8
0
 10
0.7549093024109751
 20
-8.2985780245991432
 30
0.0
  0
VERTEX
  5
18C
  8
0
 10
0.999413727918267
 20
-8.5651274520402865
 30
0.0
 42
-0.1428998439433627
  0
VERTEX
  5
18E
  8
0
 10
1.0042933392461371
 20
-8.5750157980015782
 30
0.0
  0
VERTEX
  5
18F
  8
0
 10
1.040630391241395
 20
-8.7810934603607862
 30
0.0
 42
-0.4142135623730891
  0
VERTEX
  5
190
  8
0
 10
1.0246626830653061
 20
-8.8038977109647067
 30
0.0
  0
VERTEX
  5
191
  8
0
 10
0.6160692758881562
 20
-8.8759437527896363
 30
0.0
 42
-0.5384445234821919
  0
VERTEX
  5
192
  8
0
 10
0.5934860656413036
 20
-8.8520626775313112
 30
0.0
  0
VERTEX
  5
193
  8
0
 10
0.7212379953159066
 20
-8.3073895459060285
 30
0.0
 42
-0.6024651853952823
  0
SEQEND
  5
18D
  8
0
  0
POLYLINE
  5
194
  8
0
 66
     1
 10
0.0
 20
0.0
 30
0.0
 70
     1
  0
VERTEX
  5
195
  8
0
 10
-0.7706909666895245
 20
-2.7246278874771459
 30
0.0
  0
VERTEX
  5
196
  8
0
 10
-0.2725604025869398
 20
-2.3132701193815808
 30
0.0
 42
-0.4533570857194488
  0
VERTEX
  5
198
  8
0
 10
-0.243332067082479
 20
-2.3180171654928019
 30
0.0
  0
VERTEX
  5
199
  8
0
 10
-0.0442673193037505
 20
-2.636587354877947
 30
0.0
 42
-0.0962890481975512
  0
VERTEX
  5
19A
  8
0
 10
-0.0415752000743062
 20
-2.643600565243426
 30
0.0
  0
VERTEX
  5
19B
  8
0
 10
0.0514193620655657
 20
-3.1709989348305929
 30
0.0
 42
-0.1872352375055479
  0
VERTEX
  5
19C
  8
0
 10
0.0486503282509662
 20
-3.1849707786502961
 30
0.0
  0
VERTEX
  5
19D
  8
0
 10
-0.0070223228168668
 20
-3.2726291903928288
 30
0.0
 42
-0.4171816115960866
  0
VERTEX
  5
19E
  8
0
 10
-0.0343605092390245
 20
-3.2785848809355729
 30
0.0
  0
VERTEX
  5
19F
  8
0
 10
-0.6915609984132443
 20
-2.85179389301272
 30
0.0
 42
-0.0787017068246385
  0
VERTEX
  5
1A0
  8
0
 10
-0.6961379064140705
 20
-2.8476728265383948
 30
0.0
  0
VERTEX
  5
1A1
  8
0
 10
-0.7734546401932018
 20
-2.7521946118419689
 30
0.0
 42
-0.411404775966606
  0
SEQEND
  5
197
  8
0
  0
POLYLINE
  5
1A2
  8
0
 66
     1
 10
0.0
 20
0.0
 30
0.0
 70
     1
  0
VERTEX
  5
1A3
  8
0
 10
-1.224606724200124
 20
-2.3448473900361222
 30
0.0
  0
VERTEX
  5
1A4
  8
0
 10
-1.2910935098860661
 20
-2.439800360488189
 30
0.0
 42
-0.4040262258351869
  0
VERTEX
  5
1A6
  8
0
 10
-1.3179397909747299
 20
-2.4450187489054018
 30
0.0
  0
VERTEX
  5
1A7
  8
0
 10
-1.6458638489995701
 20
-2.2320623756319309
 30
0.0
 42
-0.3788661086953089
  0
VERTEX
  5
1A8
  8
0
 10
-1.6528354043398079
 20
-2.2069237592001492
 30
0.0
  0
VERTEX
  5
1A9
  8
0
 10
-1.5404972470107861
 20
-1.9765964036725141
 30
0.0
 42
-0.5486187866266783
  0
VERTEX
  5
1AA
  8
0
 10
-1.507506301976216
 20
-1.9728375602815551
 30
0.0
  0
VERTEX
  5
1AB
  8
0
 10
-1.225433615594457
 20
-2.321168318630594
 30
0.0
 42
-0.3345953195020721
  0
SEQEND
  5
1A5
  8
0
  0
POLYLINE
  5
1AC
  8
0
 66
     1
 10
0.0
 20
0.0
 30
0.0
 70
     1
  0
VERTEX
  5
1AD
  8
0
 10
-0.1650859622312567
 20
-7.7423557986844074
 30
0.0
  0
VERTEX
  5
1AE
  8
0
 10
-0.593909582073923
 20
-6.885267680916237
 30
0.0
 42
-0.8696698359469408
  0
VERTEX
  5
1B0
  8
0
 10
-0.5617986770084831
 20
-6.8631530530745612
 30
0.0
  0
VERTEX
  5
1B1
  8
0
 10
0.0070813247160512
 20
-7.483324399371388
 30
0.0
 42
-0.3303311799538354
  0
VERTEX
  5
1B2
  8
0
 10
0.0095204459921244
 20
-7.50664855946341
 30
0.0
  0
VERTEX
  5
1B3
  8
0
 10
-0.130535935889743
 20
-7.7435653309347439
 30
0.0
 42
-0.5939336112864165
  0
SEQEND
  5
1AF
  8
0
  0
POLYLINE
  5
1B4
  8
0
 66
     1
 10
0.0
 20
0.0
 30
0.0
 70
     1
  0
VERTEX
  5
1B5
  8
0
 10
-0.1386056199385237
 20
-7.9740741051945241
 30
0.0
  0
VERTEX
  5
1B6
  8
0
 10
0.1642650622207779
 20
-8.5794205714043734
 30
0.0
 42
-0.1529321943161149
  0
VERTEX
  5
1B8
  8
0
 10
0.1661443092904585
 20
-8.591036238246156
 30
0.0
  0
VERTEX
  5
1B9
  8
0
 10
0.1143202783138864
 20
-8.9506700987666807
 30
0.0
 42
-0.3239551751922467
  0
VERTEX
  5
1BA
  8
0
 10
0.0982547654548162
 20
-8.9672484219813828
 30
0.0
  0
VERTEX
  5
1BB
  8
0
 10
-0.1772235280969171
 20
-9.0158226777340769
 30
0.0
 42
-0.284008554760557
  0
VERTEX
  5
1BC
  8
0
 10
-0.1964493888387757
 20
-9.0081678913063286
 30
0.0
  0
VERTEX
  5
1BD
  8
0
 10
-0.5163591257745648
 20
-8.5770947835888052
 30
0.0
 42
-0.3017749742405347
  0
VERTEX
  5
1BE
  8
0
 10
-0.517497025584831
 20
-8.5553460477097332
 30
0.0
  0
VERTEX
  5
1BF
  8
0
 10
-0.1731556462800388
 20
-7.972864572944184
 30
0.0
 42
-0.5939336112865745
  0
SEQEND
  5
1B7
  8
0
  0
POLYLINE
  5
1C0
  8
0
 66
     1
 10
0.0
 20
0.0
 30
0.0
 70
     1
  0
VERTEX
  5
1C1
  8
0
 10
-0.5476161285434019
 20
-6.7355107053786378
 30
0.0
  0
VERTEX
  5
1C2
  8
0
 10
-0.0780969413689904
 20
-6.1525890322408356
 30
0.0
 42
-0.4910316622477408
  0
VERTEX
  5
1C4
  8
0
 10
-0.0469506371685501
 20
-6.153216981722144
 30
0.0
  0
VERTEX
  5
1C5
  8
0
 10
0.4207327459717241
 20
-6.7843328553801552
 30
0.0
 42
-0.1977332825804886
  0
VERTEX
  5
1C6
  8
0
 10
0.4244007544519535
 20
-6.7988606658804267
 30
0.0
  0
VERTEX
  5
1C7
  8
0
 10
0.42381615849375
 20
-6.8029174807852391
 30
0.0
 42
-0.0980068047509526
  0
VERTEX
  5
1C8
  8
0
 10
0.4212778637589711
 20
-6.81012736752675
 30
0.0
  0
VERTEX
  5
1C9
  8
0
 10
0.0730019257989718
 20
-7.3992644685567459
 30
0.0
 42
-0.5033850443687254
  0
VERTEX
  5
1CA
  8
0
 10
0.0415500683986309
 20
-7.4025535428151361
 30
0.0
  0
VERTEX
  5
1CB
  8
0
 10
-0.5467919679978519
 20
-6.7611654263601206
 30
0.0
 42
-0.3708043595597731
  0
SEQEND
  5
1C3
  8
0
  0
POLYLINE
  5
1CC
  8
0
 66
     1
 10
0.0
 20
0.0
 30
0.0
 70
     1
  0
VERTEX
  5
1CD
  8
0
 10
-1.2987508207690861
 20
-8.4519912701830862
 30
0.0
  0
VERTEX
  5
1CE
  8
0
 10
-1.1110028331403921
 20
-7.960842393450533
 30
0.0
 42
-0.5919874438664898
  0
VERTEX
  5
1D0
  8
0
 10
-1.0768078441566331
 20
-7.9561400208910049
 30
0.0
  0
VERTEX
  5
1D1
  8
0
 10
-0.6278382730812187
 20
-8.5611191319611049
 30
0.0
 42
-0.3017749742405359
  0
VERTEX
  5
1D2
  8
0
 10
-0.6267003732709524
 20
-8.5828678678401751
 30
0.0
  0
VERTEX
  5
1D3
  8
0
 10
-0.8503928002311504
 20
-8.9612618180901382
 30
0.0
 42
-0.5172994355756833
  0
VERTEX
  5
1D4
  8
0
 10
-0.8824179045913849
 20
-8.9638975745765972
 30
0.0
  0
VERTEX
  5
1D5
  8
0
 10
-1.295443036335298
 20
-8.4716733899890944
 30
0.0
 42
-0.2722563163673187
  0
SEQEND
  5
1CF
  8
0
  0
POLYLINE
  5
1D6
  8
0
 66
     1
 10
0.0
 20
0.0
 30
0.0
 70
     1
  0
VERTEX
  5
1D7
  8
0
 10
0.6612413158775724
 20
-6.629471094688367
 30
0.0
  0
VERTEX
  5
1D8
  8
0
 10
0.726585789297896
 20
-7.0000580188095407
 30
0.0
 42
-0.7915961042884075
  0
VERTEX
  5
1DA
  8
0
 10
0.691384034315133
 20
-7.0151964443484252
 30
0.0
  0
VERTEX
  5
1DB
  8
0
 10
0.5331738167968391
 20
-6.8016994862562967
 30
0.0
 42
-0.3015845569546039
  0
VERTEX
  5
1DC
  8
0
 10
0.5320441030513907
 20
-6.7799617890145152
 30
0.0
  0
VERTEX
  5
1DD
  8
0
 10
0.6249098471493595
 20
-6.6228718229854691
 30
0.0
 42
-0.6963778875631048
  0
SEQEND
  5
1D9
  8
0
  0
POLYLINE
  5
1DE
  8
0
 66
     1
 10
0.0
 20
0.0
 30
0.0
 70
     1
  0
VERTEX
  5
1DF
  8
0
 10
-0.1008628698545169
 20
-7.8505754565090617
 30
0.0
  0
VERTEX
  5
1E0
  8
0
 10
0.0599539125933363
 20
-7.5785407774461007
 30
0.0
 42
-0.5033850443687991
  0
VERTEX
  5
1E2
  8
0
 10
0.0914057699936787
 20
-7.5752517031877096
 30
0.0
  0
VERTEX
  5
1E3
  8
0
 10
0.2761925477211433
 20
-7.7766992217745701
 30
0.0
 42
-0.2250388104482856
  0
VERTEX
  5
1E4
  8
0
 10
0.2811699637319971
 20
-7.7928134951250776
 30
0.0
  0
VERTEX
  5
1E5
  8
0
 10
0.1959914765848281
 20
-8.3839112462799967
 30
0.0
 42
-0.734707392039145
  0
VERTEX
  5
1E6
  8
0
 10
0.1589031555085322
 20
-8.3899116007711676
 30
0.0
  0
VERTEX
  5
1E7
  8
0
 10
-0.1015219175196148
 20
-7.8694010100923526
 30
0.0
 42
-0.2547574038455672
  0
SEQEND
  5
1E1
  8
0
  0
POLYLINE
  5
1E8
  8
0
 66
     1
 10
0.0
 20
0.0
 30
0.0
 70
     1
  0
VERTEX
  5
1E9
  8
0
 10
0.2578998064623247
 20
-8.7665679741736913
 30
0.0
  0
VERTEX
  5
1EA
  8
0
 10
0.3254108821213072
 20
-8.9015021011378064
 30
0.0
 42
-0.501745431635844
  0
VERTEX
  5
1EC
  8
0
 10
0.3112246163319163
 20
-8.9296960911942875
 30
0.0
  0
VERTEX
  5
1ED
  8
0
 10
0.2220021734257267
 20
-8.9454284151633736
 30
0.0
 42
-0.510625161240533
  0
VERTEX
  5
1EE
  8
0
 10
0.1991001181388231
 20
-8.9232347795980651
 30
0.0
  0
VERTEX
  5
1EF
  8
0
 10
0.2208114853860299
 20
-8.7725683286648657
 30
0.0
 42
-0.7347073920390532
  0
SEQEND
  5
1EB
  8
0
  0
POLYLINE
  5
1F0
  8
0
 66
     1
 10
0.0
 20
0.0
 30
0.0
 70
     1
  0
VERTEX
  5
1F1
  8
0
 10
0.123435392400183
 20
-7.4711566865394383
 30
0.0
  0
VERTEX
  5
1F2
  8
0
 10
0.3426895249727478
 20
-7.1002704725527499
 30
0.0
 42
-0.8214823363081734
  0
VERTEX
  5
1F4
  8
0
 10
0.3791187983839434
 20
-7.1130956716448681
 30
0.0
  0
VERTEX
  5
1F5
  8
0
 10
0.303162018134813
 20
-7.640199210272594
 30
0.0
 42
-0.6326013371511811
  0
VERTEX
  5
1F6
  8
0
 10
0.2691718659996916
 20
-7.650698171272496
 30
0.0
  0
VERTEX
  5
1F7
  8
0
 10
0.1258745136762576
 20
-7.4944808466314567
 30
0.0
 42
-0.33033117995382
  0
SEQEND
  5
1F3
  8
0
  0
POLYLINE
  5
1F8
  8
0
 66
     1
 10
0.0
 20
0.0
 30
0.0
 70
     1
  0
VERTEX
  5
1F9
  8
0
 10
-0.0007159376160905
 20
-6.056518274306149
 30
0.0
  0
VERTEX
  5
1FA
  8
0
 10
0.4322824677348952
 20
-5.518938209831731
 30
0.0
 42
-0.6441472906134333
  0
VERTEX
  5
1FC
  8
0
 10
0.4669989757325825
 20
-5.5278680424240907
 30
0.0
  0
VERTEX
  5
1FD
  8
0
 10
0.5437963811291264
 20
-5.96340777144332
 30
0.0
 42
-0.0795798372322816
  0
VERTEX
  5
1FE
  8
0
 10
0.5438941858121105
 20
-5.9696336988325402
 30
0.0
  0
VERTEX
  5
1FF
  8
0
 10
0.4485886369216992
 20
-6.6310083898900798
 30
0.0
 42
-0.6698208433274998
  0
VERTEX
  5
200
  8
0
 10
0.4132890772559531
 20
-6.639920888039744
 30
0.0
  0
VERTEX
  5
201
  8
0
 10
-0.0012011846011653
 20
-6.080586532437394
 30
0.0
 42
-0.3413531386616995
  0
SEQEND
  5
1FB
  8
0
  0
POLYLINE
  5
202
  8
0
 66
     1
 10
0.0
 20
0.0
 30
0.0
 70
     1
  0
VERTEX
  5
203
  8
0
 10
-1.792383662539115
 20
-6.0160268333730116
 30
0.0
  0
VERTEX
  5
204
  8
0
 10
-1.792383662539115
 20
-5.5721968841069316
 30
0.0
 42
-0.6838814442585786
  0
VERTEX
  5
206
  8
0
 10
-1.7581922551069
 20
-5.5588902669317291
 30
0.0
  0
VERTEX
  5
207
  8
0
 10
-1.591632856387418
 20
-5.7404669900176479
 30
0.0
 42
-0.3392109716099445
  0
VERTEX
  5
208
  8
0
 10
-1.5895222788741461
 20
-5.7643271797986406
 30
0.0
  0
VERTEX
  5
209
  8
0
 10
-1.756081677593631
 20
-6.0265804059787991
 30
0.0
 42
-0.7506847855724778
  0
SEQEND
  5
205
  8
0
  0
POLYLINE
  5
20A
  8
0
 66
     1
 10
0.0
 20
0.0
 30
0.0
 70
     1
  0
VERTEX
  5
20B
  8
0
 10
-1.361896682750382
 20
-5.350294819975133
 30
0.0
  0
VERTEX
  5
20C
  8
0
 10
-1.790303160172344
 20
-4.494040443157
 30
0.0
 42
-0.1164999327783566
  0
VERTEX
  5
20E
  8
0
 10
-1.7923836625391161
 20
-4.4852324324905233
 30
0.0
  0
VERTEX
  5
20F
  8
0
 10
-1.792383662539115
 20
-4.0796067982718807
 30
0.0
 42
-0.5373193821394054
  0
VERTEX
  5
210
  8
0
 10
-1.7650070655216079
 20
-4.0614866239913221
 30
0.0
  0
VERTEX
  5
211
  8
0
 10
-1.524849967005478
 20
-4.1634272642453878
 30
0.0
 42
-0.1336949569930776
  0
VERTEX
  5
212
  8
0
 10
-1.5167257490601469
 20
-4.1698272842009816
 30
0.0
  0
VERTEX
  5
213
  8
0
 10
-1.0186572772968649
 20
-4.8419463502831563
 30
0.0
 42
-0.3103169032481699
  0
VERTEX
  5
214
  8
0
 10
-1.01785610731422
 20
-4.8642200772139068
 30
0.0
  0
VERTEX
  5
215
  8
0
 10
-1.3276752001716721
 20
-5.3520403819144429
 30
0.0
 42
-0.5831827633969511
  0
SEQEND
  5
20D
  8
0
  0
POLYLINE
  5
216
  8
0
 66
     1
 10
0.0
 20
0.0
 30
0.0
 70
     1
  0
VERTEX
  5
217
  8
0
 10
-1.339036525450346
 20
-5.5747774766800919
 30
0.0
  0
VERTEX
  5
218
  8
0
 10
-1.0467059229081159
 20
-6.1590575263445206
 30
0.0
 42
-0.8696698359469611
  0
VERTEX
  5
21A
  8
0
 10
-1.078816827973557
 20
-6.1811721541862008
 30
0.0
  0
VERTEX
  5
21B
  8
0
 10
-1.4708182638196181
 20
-5.7538270946271162
 30
0.0
 42
-0.3392109716098768
  0
VERTEX
  5
21C
  8
0
 10
-1.472928841332888
 20
-5.7299669048461279
 30
0.0
  0
VERTEX
  5
21D
  8
0
 10
-1.3732580080290571
 20
-5.5730319147407821
 30
0.0
 42
-0.5831827633969794
  0
SEQEND
  5
219
  8
0
  0
POLYLINE
  5
21E
  8
0
 66
     1
 10
0.0
 20
0.0
 30
0.0
 70
     1
  0
VERTEX
  5
21F
  8
0
 10
-0.1758990221970931
 20
-3.490114345376909
 30
0.0
  0
VERTEX
  5
220
  8
0
 10
-0.4530379280961934
 20
-3.147876298516874
 30
0.0
 42
-0.8540806854634457
  0
VERTEX
  5
222
  8
0
 10
-0.4270185384018619
 20
-3.1189788386941339
 30
0.0
  0
VERTEX
  5
223
  8
0
 10
-0.0769181709519486
 20
-3.3463366756973478
 30
0.0
 42
-0.4112517292314687
  0
VERTEX
  5
224
  8
0
 10
-0.0710224662232969
 20
-3.3733995114516651
 30
0.0
  0
VERTEX
  5
225
  8
0
 10
-0.1439839277741099
 20
-3.4882797213084862
 30
0.0
 42
-0.5127173173354298
  0
SEQEND
  5
221
  8
0
  0
POLYLINE
  5
226
  8
0
 66
     1
 10
0.0
 20
0.0
 30
0.0
 70
     1
  0
VERTEX
  5
227
  8
0
 10
0.2334798104018975
 20
-4.219625365394724
 30
0.0
  0
VERTEX
  5
228
  8
0
 10
0.0423588655319641
 20
-4.719597900805196
 30
0.0
 42
-0.4248868374160622
  0
VERTEX
  5
22A
  8
0
 10
0.0162799084287228
 20
-4.7306892546830257
 30
0.0
  0
VERTEX
  5
22B
  8
0
 10
-0.0826568832001373
 20
-4.68869307824
 30
0.0
 42
-0.1071781016148971
  0
VERTEX
  5
22C
  8
0
 10
-0.0894716936148445
 20
-4.6838795211346431
 30
0.0
  0
VERTEX
  5
22D
  8
0
 10
-0.5041637852845755
 20
-4.2317979714056388
 30
0.0
 42
-0.3392109716098815
  0
VERTEX
  5
22E
  8
0
 10
-0.5062743627978478
 20
-4.2079377816246497
 30
0.0
  0
VERTEX
  5
22F
  8
0
 10
-0.1654809281913309
 20
-3.6713473617883121
 30
0.0
 42
-0.5127173173354566
  0
VERTEX
  5
230
  8
0
 10
-0.1335658337683469
 20
-3.6695127377198902
 30
0.0
  0
VERTEX
  5
231
  8
0
 10
0.2120767972920643
 20
-4.0963458399936847
 30
0.0
 42
-0.1272160680010538
  0
VERTEX
  5
232
  8
0
 10
0.2161646278344902
 20
-4.1053157654539802
 30
0.0
  0
VERTEX
  5
233
  8
0
 10
0.2344783903360868
 20
-4.2091782737780834
 30
0.0
 42
-0.135738512853703
  0
SEQEND
  5
229
  8
0
  0
POLYLINE
  5
234
  8
0
 66
     1
 10
0.0
 20
0.0
 30
0.0
 70
     1
  0
VERTEX
  5
235
  8
0
 10
-0.9817205155294487
 20
-4.7574236053684951
 30
0.0
  0
VERTEX
  5
236
  8
0
 10
-1.3316029501408371
 20
-4.2852743557742929
 30
0.0
 42
-0.7641429801404703
  0
VERTEX
  5
238
  8
0
 10
-1.3080956169006519
 20
-4.255434027168767
 30
0.0
  0
VERTEX
  5
239
  8
0
 10
-0.7963163616827583
 20
-4.4726714324672709
 30
0.0
 42
-0.4632302672549949
  0
VERTEX
  5
23A
  8
0
 10
-0.787390973754781
 20
-4.501345179353617
 30
0.0
  0
VERTEX
  5
23B
  8
0
 10
-0.949287794361285
 20
-4.7562570236493151
 30
0.0
 42
-0.5263483169927276
  0
SEQEND
  5
237
  8
0
  0
POLYLINE
  5
23C
  8
0
 66
     1
 10
0.0
 20
0.0
 30
0.0
 70
     1
  0
VERTEX
  5
23D
  8
0
 10
-0.5414209994916499
 20
-4.3095289434272956
 30
0.0
  0
VERTEX
  5
23E
  8
0
 10
-0.3257324931882449
 20
-4.5446643514736929
 30
0.0
 42
-0.8063941086649593
  0
VERTEX
  5
240
  8
0
 10
-0.3479304188978041
 20
-4.5760911429294602
 30
0.0
  0
VERTEX
  5
241
  8
0
 10
-0.6354451014656019
 20
-4.4540484008889329
 30
0.0
 42
-0.4632302672550036
  0
VERTEX
  5
242
  8
0
 10
-0.6443704893935792
 20
-4.4253746540025851
 30
0.0
  0
VERTEX
  5
243
  8
0
 10
-0.5725443131291871
 20
-4.3122819879967134
 30
0.0
 42
-0.4934166777290461
  0
SEQEND
  5
23F
  8
0
  0
POLYLINE
  5
244
  8
0
 66
     1
 10
0.0
 20
0.0
 30
0.0
 70
     1
  0
VERTEX
  5
245
  8
0
 10
-1.359603108453169
 20
-2.5376422071245011
 30
0.0
  0
VERTEX
  5
246
  8
0
 10
-1.6479629244915011
 20
-2.949462703624167
 30
0.0
 42
-0.4794953227982147
  0
VERTEX
  5
248
  8
0
 10
-1.6785943327955439
 20
-2.9514784460680521
 30
0.0
  0
VERTEX
  5
249
  8
0
 10
-1.78720499123117
 20
-2.833075236146771
 30
0.0
 42
-0.1877320739053797
  0
VERTEX
  5
24A
  8
0
 10
-1.792383662539115
 20
-2.8197686189715672
 30
0.0
  0
VERTEX
  5
24B
  8
0
 10
-1.792383662539115
 20
-2.4975847385034928
 30
0.0
 42
-0.113935608301646
  0
VERTEX
  5
24C
  8
0
 10
-1.7903914193560271
 20
-2.4889553852202431
 30
0.0
  0
VERTEX
  5
24D
  8
0
 10
-1.7055567797872799
 20
-2.3150185978134452
 30
0.0
 42
-0.4504671536907973
  0
VERTEX
  5
24E
  8
0
 10
-1.677142742753537
 20
-2.307138687948163
 30
0.0
  0
VERTEX
  5
24F
  8
0
 10
-1.365006907848326
 20
-2.5098420692446481
 30
0.0
 42
-0.424474816209615
  0
SEQEND
  5
247
  8
0
  0
POLYLINE
  5
250
  8
0
 66
     1
 10
0.0
 20
0.0
 30
0.0
 70
     1
  0
VERTEX
  5
251
  8
0
 10
-1.2868617687440971
 20
-1.2740728456051329
 30
0.0
  0
VERTEX
  5
252
  8
0
 10
-1.5302616386144401
 20
-1.7731165338402
 30
0.0
 42
-0.5486187866266797
  0
VERTEX
  5
254
  8
0
 10
-1.563252583649011
 20
-1.776875377231159
 30
0.0
  0
VERTEX
  5
255
  8
0
 10
-1.7879967720166141
 20
-1.4993394180682269
 30
0.0
 42
-0.1718314268301138
  0
VERTEX
  5
256
  8
0
 10
-1.792383662539115
 20
-1.4869512213940179
 30
0.0
  0
VERTEX
  5
257
  8
0
 10
-1.792383662539115
 20
-1.347989920647586
 30
0.0
 42
-0.3639702342661794
  0
VERTEX
  5
258
  8
0
 10
-1.7761168943829519
 20
-1.328603941257583
 30
0.0
  0
VERTEX
  5
259
  8
0
 10
-1.3079728361450049
 20
-1.2460575129318801
 30
0.0
 42
-0.6128007881399431
  0
SEQEND
  5
253
  8
0
  0
POLYLINE
  5
25A
  8
0
 66
     1
 10
0.0
 20
0.0
 30
0.0
 70
     1
  0
VERTEX
  5
25B
  8
0
 10
-1.785233098512937
 20
-3.5624399332761412
 30
0.0
  0
VERTEX
  5
25C
  8
0
 10
-1.4818556201077111
 20
-3.3119098686693582
 30
0.0
 42
-0.3990607060496738
  0
VERTEX
  5
25E
  8
0
 10
-1.454814776701675
 20
-3.3137817791847679
 30
0.0
  0
VERTEX
  5
25F
  8
0
 10
-0.624978377852375
 20
-4.2184378667961679
 30
0.0
 42
-0.3392109716099203
  0
VERTEX
  5
260
  8
0
 10
-0.6228678003391024
 20
-4.2422980565771589
 30
0.0
  0
VERTEX
  5
261
  8
0
 10
-0.7225193210744959
 20
-4.3992026384112348
 30
0.0
 42
-0.3668388665524395
  0
VERTEX
  5
262
  8
0
 10
-0.7468278242973274
 20
-4.4067692400860103
 30
0.0
  0
VERTEX
  5
263
  8
0
 10
-1.463675752075277
 20
-4.1024853476922294
 30
0.0
 42
-0.1336949569930958
  0
VERTEX
  5
264
  8
0
 10
-1.471799970020611
 20
-4.0960853277366374
 30
0.0
  0
VERTEX
  5
265
  8
0
 10
-1.7885143987617931
 20
-3.6686946814131209
 30
0.0
 42
-0.1608006476026452
  0
VERTEX
  5
266
  8
0
 10
-1.792383662539113
 20
-3.6569745270881548
 30
0.0
  0
VERTEX
  5
267
  8
0
 10
-1.7923836625391161
 20
-3.577618460966753
 30
0.0
 42
-0.2237555607016231
  0
SEQEND
  5
25D
  8
0
  0
POLYLINE
  5
268
  8
0
 66
     1
 10
0.0
 20
0.0
 30
0.0
 70
     1
  0
VERTEX
  5
269
  8
0
 10
0.8196954394697621
 20
-7.537276034300886
 30
0.0
  0
VERTEX
  5
26A
  8
0
 10
0.6949097149674621
 20
-8.0693026856392862
 30
0.0
 42
-0.6024651853952522
  0
VERTEX
  5
26C
  8
0
 10
0.6612384078723935
 20
-8.0781142069461733
 30
0.0
  0
VERTEX
  5
26D
  8
0
 10
0.3734010986986484
 20
-7.7643249174587634
 30
0.0
 42
-0.2250388104483457
  0
VERTEX
  5
26E
  8
0
 10
0.3684236826877929
 20
-7.7482106441082532
 30
0.0
  0
VERTEX
  5
26F
  8
0
 10
0.486402000733111
 20
-6.9294978350730441
 30
0.0
 42
-0.6698208433274968
  0
VERTEX
  5
270
  8
0
 10
0.5217015603988574
 20
-6.9205853369233798
 30
0.0
  0
VERTEX
  5
271
  8
0
 10
0.7694062602617264
 20
-7.2548507260707646
 30
0.0
 42
-0.1163230346464534
  0
VERTEX
  5
272
  8
0
 10
0.7729764640589703
 20
-7.2631526091818159
 30
0.0
  0
VERTEX
  5
273
  8
0
 10
0.8199164798268303
 20
-7.5293626672186518
 30
0.0
 42
-0.1015762958173084
  0
SEQEND
  5
26B
  8
0
  0
POLYLINE
  5
274
  8
0
 66
     1
 10
0.0
 20
0.0
 30
0.0
 70
     1
  0
VERTEX
  5
275
  8
0
 10
-1.7410995410690251
 20
-8.0897209316009491
 30
0.0
  0
VERTEX
  5
276
  8
0
 10
-1.7573680945613539
 20
-8.1099188120717116
 30
0.0
 42
-0.7077119805203803
  0
VERTEX
  5
278
  8
0
 10
-1.792383662539115
 20
-8.0975707082654385
 30
0.0
  0
VERTEX
  5
279
  8
0
 10
-1.7923836625391161
 20
-8.0579847207238782
 30
0.0
 42
-0.700207538209734
  0
VERTEX
  5
27A
  8
0
 10
-1.757619008147008
 20
-8.0453314213206006
 30
0.0
  0
VERTEX
  5
27B
  8
0
 10
-1.7413504546546821
 20
-8.0647195283913931
 30
0.0
 42
-0.3582979919288014
  0
SEQEND
  5
277
  8
0
  0
POLYLINE
  5
27C
  8
0
 66
     1
 10
0.0
 20
0.0
 30
0.0
 70
     1
  0
VERTEX
  5
27D
  8
0
 10
-0.8029304267526963
 20
-9.0381798819566548
 30
0.0
  0
VERTEX
  5
27E
  8
0
 10
-0.5834067668893339
 20
-8.6668377406162698
 30
0.0
 42
-0.5363638413520153
  0
VERTEX
  5
280
  8
0
 10
-0.5506536880231819
 20
-8.6651240905708296
 30
0.0
  0
VERTEX
  5
281
  8
0
 10
-0.2962836131841397
 20
-9.0078835817994918
 30
0.0
 42
-0.5576220209630725
  0
VERTEX
  5
282
  8
0
 10
-0.3086729314981651
 20
-9.0390007541517488
 30
0.0
  0
VERTEX
  5
283
  8
0
 10
-0.7423807280490712
 20
-9.1154751404272911
 30
0.0
 42
-0.2679491924311732
  0
VERTEX
  5
284
  8
0
 10
-0.7608786142850164
 20
-9.1087424604405651
 30
0.0
  0
VERTEX
  5
285
  8
0
 10
-0.8010645524365152
 20
-9.0608507242767473
 30
0.0
 42
-0.3181313807324855
  0
SEQEND
  5
27F
  8
0
  0
POLYLINE
  5
286
  8
0
 66
     1
 10
0.0
 20
0.0
 30
0.0
 70
     1
  0
VERTEX
  5
287
  8
0
 10
-0.3623694856122372
 20
-1.113444996408004
 30
0.0
  0
VERTEX
  5
288
  8
0
 10
-0.6303070579194133
 20
-1.4960995062298179
 30
0.0
 42
-0.5373193821393915
  0
VERTEX
  5
28A
  8
0
 10
-0.6631259583218823
 20
-1.4952401130778921
 30
0.0
  0
VERTEX
  5
28B
  8
0
 10
-0.8519125588296073
 20
-1.193118397665101
 30
0.0
 42
-0.5317094316614806
  0
VERTEX
  5
28C
  8
0
 10
-0.8386369698829639
 20
-1.1633009366957019
 30
0.0
  0
VERTEX
  5
28D
  8
0
 10
-0.3819127970680634
 20
-1.0827681422866799
 30
0.0
 42
-0.6681786379193033
  0
SEQEND
  5
289
  8
0
  0
POLYLINE
  5
28E
  8
0
 66
     1
 10
0.0
 20
0.0
 30
0.0
 70
     1
  0
VERTEX
  5
28F
  8
0
 10
0.1275308367076504
 20
-4.8648213022097977
 30
0.0
  0
VERTEX
  5
290
  8
0
 10
0.3582525472333002
 20
-4.9627568578807386
 30
0.0
 42
-0.253967646474964
  0
VERTEX
  5
292
  8
0
 10
0.3699469689758785
 20
-4.9774587609473819
 30
0.0
  0
VERTEX
  5
293
  8
0
 10
0.4034733741338089
 20
-5.1675964529966887
 30
0.0
 42
-0.7499346164047245
  0
VERTEX
  5
294
  8
0
 10
0.3695810266816711
 20
-5.18432134138581
 30
0.0
  0
VERTEX
  5
295
  8
0
 10
0.1053329109980906
 20
-4.8962480936655606
 30
0.0
 42
-0.8063941086649942
  0
SEQEND
  5
291
  8
0
  0
POLYLINE
  5
296
  8
0
 66
     1
 10
0.0
 20
0.0
 30
0.0
 70
     1
  0
VERTEX
  5
297
  8
0
 10
0.6269424359080915
 20
-6.4622290012766417
 30
0.0
  0
VERTEX
  5
298
  8
0
 10
0.5807552695419657
 20
-6.5403583531265381
 30
0.0
 42
-0.8214823363081441
  0
VERTEX
  5
29A
  8
0
 10
0.54432599613077
 20
-6.5275331540344208
 30
0.0
  0
VERTEX
  5
29B
  8
0
 10
0.5712925454334278
 20
-6.3403982660706433
 30
0.0
 42
-0.8525725759452855
  0
VERTEX
  5
29C
  8
0
 10
0.6101623088964199
 20
-6.3397876510320312
 30
0.0
  0
VERTEX
  5
29D
  8
0
 10
0.6293829259598877
 20
-6.4487931871459114
 30
0.0
 42
-0.1789825926539828
  0
SEQEND
  5
299
  8
0
  0
POLYLINE
  5
29E
  8
0
 66
     1
 10
0.0
 20
0.0
 30
0.0
 70
     1
  0
VERTEX
  5
29F
  8
0
 10
-0.7443539846297879
 20
-6.7776393080567656
 30
0.0
  0
VERTEX
  5
2A0
  8
0
 10
-0.7975155338298937
 20
-6.9167099607160756
 30
0.0
 42
-0.0783943897462415
  0
VERTEX
  5
2A2
  8
0
 10
-0.8005724046780265
 20
-6.9220292441196216
 30
0.0
  0
VERTEX
  5
2A3
  8
0
 10
-1.2759473289957051
 20
-7.512220984565114
 30
0.0
 42
-0.4908150658840327
  0
VERTEX
  5
2A4
  8
0
 10
-1.3070854471313309
 20
-7.5116040737210934
 30
0.0
  0
VERTEX
  5
2A5
  8
0
 10
-1.788506212696978
 20
-6.8628975119267981
 30
0.0
 42
-0.1609796984260926
  0
VERTEX
  5
2A6
  8
0
 10
-1.792383662539115
 20
-6.8511663189645429
 30
0.0
  0
VERTEX
  5
2A7
  8
0
 10
-1.7923836625391161
 20
-6.238681737772044
 30
0.0
 42
-0.1424101108789587
  0
VERTEX
  5
2A8
  8
0
 10
-1.7893155687444411
 20
-6.2281281651662583
 30
0.0
  0
VERTEX
  5
2A9
  8
0
 10
-1.53919879166423
 20
-5.8343111112181933
 30
0.0
 42
-0.493416677729052
  0
VERTEX
  5
2AA
  8
0
 10
-1.5080754780266921
 20
-5.831558066648773
 30
0.0
  0
VERTEX
  5
2AB
  8
0
 10
-0.8554369548579744
 20
-6.5430397681178798
 30
0.0
 42
-0.0697075823481091
  0
VERTEX
  5
2AC
  8
0
 10
-0.8523387859168004
 20
-6.54753837462661
 30
0.0
  0
VERTEX
  5
2AD
  8
0
 10
-0.7451368470822954
 20
-6.7618024769875626
 30
0.0
 42
-0.2102773852970733
  0
SEQEND
  5
2A1
  8
0
  0
POLYLINE
  5
2AE
  8
0
 66
     1
 10
0.0
 20
0.0
 30
0.0
 70
     1
  0
VERTEX
  5
2AF
  8
0
 10
-1.5879996378439549
 20
-1.891496975465575
 30
0.0
  0
VERTEX
  5
2B0
  8
0
 10
-1.7183138086345411
 20
-2.1586806204497369
 30
0.0
 42
-0.4504671536907999
  0
VERTEX
  5
2B2
  8
0
 10
-1.746727845668286
 20
-2.1665605303150191
 30
0.0
  0
VERTEX
  5
2B3
  8
0
 10
-1.7834198640157879
 20
-2.142732454990405
 30
0.0
 42
-0.2539676464749358
  0
VERTEX
  5
2B4
  8
0
 10
-1.792383662539115
 20
-2.1262231918418761
 30
0.0
  0
VERTEX
  5
2B5
  8
0
 10
-1.792383662539115
 20
-1.6766321540919431
 30
0.0
 42
-0.706730127054289
  0
VERTEX
  5
2B6
  8
0
 10
-1.7574004743214571
 20
-1.6642439574177359
 30
0.0
  0
VERTEX
  5
2B7
  8
0
 10
-1.590394285183369
 20
-1.870479425508117
 30
0.0
 42
-0.2914734195860827
  0
SEQEND
  5
2B1
  8
0
  0
POLYLINE
  5
2B8
  8
0
 66
     1
 10
0.0
 20
0.0
 30
0.0
 70
     1
  0
VERTEX
  5
2B9
  8
0
 10
-1.4023360793595081
 20
-5.4695963804770518
 30
0.0
  0
VERTEX
  5
2BA
  8
0
 10
-1.5232523285428039
 20
-5.6599829734265734
 30
0.0
 42
-0.4934166777290824
  0
VERTEX
  5
2BC
  8
0
 10
-1.554375642180343
 20
-5.6627360179959911
 30
0.0
  0
VERTEX
  5
2BD
  8
0
 10
-1.7872049912311709
 20
-5.4089143149645231
 30
0.0
 42
-0.1877320739053831
  0
VERTEX
  5
2BE
  8
0
 10
-1.7923836625391161
 20
-5.3956076977893188
 30
0.0
  0
VERTEX
  5
2BF
  8
0
 10
-1.7923836625391161
 20
-4.7520128427996147
 30
0.0
 42
-0.7913122439900927
  0
VERTEX
  5
2C0
  8
0
 10
-1.7550940861657309
 20
-4.7432048321331406
 30
0.0
  0
VERTEX
  5
2C1
  8
0
 10
-1.4013484879316049
 20
-5.4502347972047911
 30
0.0
 42
-0.2632780284372457
  0
SEQEND
  5
2BB
  8
0
  0
POLYLINE
  5
2C2
  8
0
 66
     1
 10
0.0
 20
0.0
 30
0.0
 70
     1
  0
VERTEX
  5
2C3
  8
0
 10
-0.0979651190100422
 20
-3.5650415098695181
 30
0.0
  0
VERTEX
  5
2C4
  8
0
 10
-0.0041390560100827
 20
-3.4173093019563319
 30
0.0
 42
-0.4171816115960649
  0
VERTEX
  5
2C6
  8
0
 10
0.0231991304120738
 20
-3.411353611413587
 30
0.0
  0
VERTEX
  5
2C7
  8
0
 10
0.0957517999215017
 20
-3.458469865899759
 30
0.0
 42
-0.2080002991315525
  0
VERTEX
  5
2C8
  8
0
 10
0.1044165384647535
 20
-3.4715608578343748
 30
0.0
  0
VERTEX
  5
2C9
  8
0
 10
0.1734088825366681
 20
-3.8628358844622319
 30
0.0
 42
-0.7742827278418223
  0
VERTEX
  5
2CA
  8
0
 10
0.1387247542990858
 20
-3.8786423523503579
 30
0.0
  0
VERTEX
  5
2CB
  8
0
 10
-0.0966463222822173
 20
-3.5879832791495141
 30
0.0
 42
-0.3221240856307999
  0
SEQEND
  5
2C5
  8
0
  0
POLYLINE
  5
2CC
  8
0
 66
     1
 10
0.0
 20
0.0
 30
0.0
 70
     1
  0
VERTEX
  5
2CD
  8
0
 10
-1.5149385053443489
 20
-0.6678982248959127
 30
0.0
 42
0.4142135623730992
  0
VERTEX
  5
2CE
  8
0
 10
-1.5377427559482699
 20
-0.6519305167198251
 30
0.0
  0
VERTEX
  5
2D0
  8
0
 10
-1.868273704547839
 20
-0.7102120409170927
 30
0.0
 42
0.4142135623730966
  0
VERTEX
  5
2D1
  8
0
 10
-1.884241412723928
 20
-0.733016291521012
 30
0.0
  0
VERTEX
  5
2D2
  8
0
 10
-1.869371932943394
 20
-0.8173453018675309
 30
0.0
 42
-0.4142135623731054
  0
VERTEX
  5
2D3
  8
0
 10
-1.885339641119482
 20
-0.840149552471451
 30
0.0
  0
VERTEX
  5
2D4
  8
0
 10
-2.25985012622679
 20
-0.9061858555540852
 30
0.0
 42
0.3639702342661942
  0
VERTEX
  5
2D5
  8
0
 10
-2.2923836625391161
 20
-0.9449578143340925
 30
0.0
  0
VERTEX
  5
2D6
  8
0
 10
-2.2923836625391161
 20
-1.8505227749640141
 30
0.0
 42
0.4142135623731159
  0
VERTEX
  5
2D7
  8
0
 10
-2.272698623169036
 20
-1.8702078143340941
 30
0.0
  0
VERTEX
  5
2D8
  8
0
 10
-2.0814437019091869
 20
-1.8702078143340919
 30
0.0
 42
0.4142135623730951
  0
VERTEX
  5
2D9
  8
0
 10
-2.0617586625391091
 20
-1.850522774964013
 30
0.0
  0
VERTEX
  5
2DA
  8
0
 10
-2.0617586625391078
 20
-1.8033928537041699
 30
0.0
 42
-0.4142135623730743
  0
VERTEX
  5
2DB
  8
0
 10
-2.0420736231690291
 20
-1.783707814334093
 30
0.0
  0
VERTEX
  5
2DC
  8
0
 10
-1.9620687019091869
 20
-1.783707814334091
 30
0.0
 42
-0.4142135623730951
  0
VERTEX
  5
2DD
  8
0
 10
-1.942383662539108
 20
-1.8033928537041699
 30
0.0
  0
VERTEX
  5
2DE
  8
0
 10
-1.942383662539108
 20
-2.0865227749640152
 30
0.0
 42
-0.4142135623730951
  0
VERTEX
  5
2DF
  8
0
 10
-1.9620687019091869
 20
-2.106207814334093
 30
0.0
  0
VERTEX
  5
2E0
  8
0
 10
-2.0420736231690308
 20
-2.1062078143340939
 30
0.0
 42
-0.4142135623731159
  0
VERTEX
  5
2E1
  8
0
 10
-2.0617586625391091
 20
-2.0865227749640129
 30
0.0
  0
VERTEX
  5
2E2
  8
0
 10
-2.0617586625391078
 20
-2.0393928537041699
 30
0.0
 42
0.4142135623730951
  0
VERTEX
  5
2E3
  8
0
 10
-2.0814437019091869
 20
-2.0197078143340921
 30
0.0
  0
VERTEX
  5
2E4
  8
0
 10
-2.2726986231690369
 20
-2.019707814334093
 30
0.0
 42
0.4142135623730951
  0
VERTEX
  5
2E5
  8
0
 10
-2.2923836625391161
 20
-2.0393928537041721
 30
0.0
  0
VERTEX
  5
2E6
  8
0
 10
-2.2923836625391161
 20
-4.8775820433563482
 30
0.0
 42
-0.4142135623730951
  0
VERTEX
  5
2E7
  8
0
 10
-2.3120687019091939
 20
-4.897267082726426
 30
0.0
  0
VERTEX
  5
2E8
  8
0
 10
-2.3976986231690369
 20
-4.8972670827264277
 30
0.0
 42
0.4142135623730951
  0
VERTEX
  5
2E9
  8
0
 10
-2.4173836625391161
 20
-4.9169521220965038
 30
0.0
  0
VERTEX
  5
2EA
  8
0
 10
-2.4173836625391161
 20
-5.8775820433563482
 30
0.0
 42
0.4142135623730951
  0
VERTEX
  5
2EB
  8
0
 10
-2.3976986231690369
 20
-5.897267082726426
 30
0.0
  0
VERTEX
  5
2EC
  8
0
 10
-2.3120687019091948
 20
-5.8972670827264269
 30
0.0
 42
-0.4142135623730951
  0
VERTEX
  5
2ED
  8
0
 10
-2.2923836625391161
 20
-5.9169521220965047
 30
0.0
  0
VERTEX
  5
2EE
  8
0
 10
-2.2923836625391161
 20
-8.7551413117486732
 30
0.0
 42
0.4142135623730951
  0
VERTEX
  5
2EF
  8
0
 10
-2.2726986231690369
 20
-8.7748263511187545
 30
0.0
  0
VERTEX
  5
2F0
  8
0
 10
-2.081443701909186
 20
-8.7748263511187581
 30
0.0
 42
0.4142135623730951
  0
VERTEX
  5
2F1
  8
0
 10
-2.0617586625391069
 20
-8.7551413117486767
 30
0.0
  0
VERTEX
  5
2F2
  8
0
 10
-2.061758662539106
 20
-8.7080113904888332
 30
0.0
 42
-0.4142135623730951
  0
VERTEX
  5
2F3
  8
0
 10
-2.042073623169026
 20
-8.6883263511187536
 30
0.0
  0
VERTEX
  5
2F4
  8
0
 10
-1.9620687019091829
 20
-8.6883263511187518
 30
0.0
 42
-0.4142135623730951
  0
VERTEX
  5
2F5
  8
0
 10
-1.942383662539104
 20
-8.7080113904888332
 30
0.0
  0
VERTEX
  5
2F6
  8
0
 10
-1.9423836625391051
 20
-8.9911413117486774
 30
0.0
 42
-0.4142135623730951
  0
VERTEX
  5
2F7
  8
0
 10
-1.962068701909184
 20
-9.0108263511187552
 30
0.0
  0
VERTEX
  5
2F8
  8
0
 10
-2.042073623169026
 20
-9.0108263511187552
 30
0.0
 42
-0.4142135623730951
  0
VERTEX
  5
2F9
  8
0
 10
-2.0617586625391051
 20
-8.9911413117486756
 30
0.0
  0
VERTEX
  5
2FA
  8
0
 10
-2.061758662539106
 20
-8.9440113904888339
 30
0.0
 42
0.4142135623730951
  0
VERTEX
  5
2FB
  8
0
 10
-2.0814437019091852
 20
-8.9243263511187543
 30
0.0
  0
VERTEX
  5
2FC
  8
0
 10
-2.2726986231690391
 20
-8.9243263511187525
 30
0.0
 42
0.4142135623730951
  0
VERTEX
  5
2FD
  8
0
 10
-2.292383662539117
 20
-8.9440113904888303
 30
0.0
  0
VERTEX
  5
2FE
  8
0
 10
-2.2923836625391161
 20
-9.8495763511187544
 30
0.0
 42
0.466307658155
  0
VERTEX
  5
2FF
  8
0
 10
-2.2461770413711259
 20
-9.8883483098987615
 30
0.0
  0
VERTEX
  5
300
  8
0
 10
-1.8252584458516601
 20
-9.8141290048267695
 30
0.0
 42
-0.4142135623731011
  0
VERTEX
  5
301
  8
0
 10
-1.80245419524774
 20
-9.8300967130028578
 30
0.0
  0
VERTEX
  5
302
  8
0
 10
-1.787584715467206
 20
-9.9144257233493693
 30
0.0
 42
0.4142135623730959
  0
VERTEX
  5
303
  8
0
 10
-1.764780464863287
 20
-9.9303934315254576
 30
0.0
  0
VERTEX
  5
304
  8
0
 10
-0.818744670631086
 20
-9.7635817962863616
 30
0.0
 42
0.414213562373163
  0
VERTEX
  5
305
  8
0
 10
-0.8027769624549987
 20
-9.7407775456824393
 30
0.0
  0
VERTEX
  5
306
  8
0
 10
-0.8176464422355319
 20
-9.6564485353359295
 30
0.0
 42
-0.4142135623730864
  0
VERTEX
  5
307
  8
0
 10
-0.8016787340594447
 20
-9.6336442847320107
 30
0.0
  0
VERTEX
  5
308
  8
0
 10
-0.4275538762997528
 20
-9.5676759781552558
 30
0.0
 42
0.4142135623730442
  0
VERTEX
  5
309
  8
0
 10
-0.4115861681236643
 20
-9.5448717275513371
 30
0.0
  0
VERTEX
  5
30A
  8
0
 10
-0.4447972366702656
 20
-9.3565223982929275
 30
0.0
 42
0.4142135623731101
  0
VERTEX
  5
30B
  8
0
 10
-0.4676014872741851
 20
-9.3405546901168393
 30
0.0
  0
VERTEX
  5
30C
  8
0
 10
-0.5140153991297333
 20
-9.3487387150571983
 30
0.0
 42
-0.4142135623730513
  0
VERTEX
  5
30D
  8
0
 10
-0.5368196497336524
 20
-9.3327710068811101
 30
0.0
  0
VERTEX
  5
30E
  8
0
 10
-0.5507123585148122
 20
-9.2539815401452845
 30
0.0
 42
-0.4142135623730966
  0
VERTEX
  5
30F
  8
0
 10
-0.5347446503387229
 20
-9.2311772895413657
 30
0.0
  0
VERTEX
  5
310
  8
0
 10
-0.2559161087722941
 20
-9.1820122946716136
 30
0.0
 42
-0.4142135623730655
  0
VERTEX
  5
311
  8
0
 10
-0.233111858168375
 20
-9.1979800028476948
 30
0.0
  0
VERTEX
  5
312
  8
0
 10
-0.2192191493872167
 20
-9.2767694695835203
 30
0.0
 42
-0.4142135623731285
  0
VERTEX
  5
313
  8
0
 10
-0.2351868575633053
 20
-9.2995737201874427
 30
0.0
  0
VERTEX
  5
314
  8
0
 10
-0.2816007694188521
 20
-9.3077577451278017
 30
0.0
 42
0.4142135623730863
  0
VERTEX
  5
315
  8
0
 10
-0.2975684775949401
 20
-9.3305619957317223
 30
0.0
  0
VERTEX
  5
316
  8
0
 10
-0.26435740904834
 20
-9.5189113249901336
 30
0.0
 42
0.4142135623730686
  0
VERTEX
  5
317
  8
0
 10
-0.2415531584444205
 20
-9.5348790331662183
 30
0.0
  0
VERTEX
  5
318
  8
0
 10
1.584504669014871
 20
-9.2128957698512632
 30
0.0
 42
0.4142135623730694
  0
VERTEX
  5
319
  8
0
 10
1.616440085367048
 20
-9.1672872686434221
 30
0.0
  0
VERTEX
  5
31A
  8
0
 10
1.459190380194636
 20
-8.2754798745588793
 30
0.0
 42
0.4142135623730694
  0
VERTEX
  5
31B
  8
0
 10
1.436386129590715
 20
-8.2595121663827928
 30
0.0
  0
VERTEX
  5
31C
  8
0
 10
1.2480368003322939
 20
-8.2927232349293956
 30
0.0
 42
0.4142135623730864
  0
VERTEX
  5
31D
  8
0
 10
1.2320690921562061
 20
-8.3155274855333161
 30
0.0
  0
VERTEX
  5
31E
  8
0
 10
1.2402531170965641
 20
-8.3619413973888612
 30
0.0
 42
-0.4142135623730864
  0
VERTEX
  5
31F
  8
0
 10
1.224285408920476
 20
-8.3847456479927818
 30
0.0
  0
VERTEX
  5
320
  8
0
 10
1.1454959421846509
 20
-8.3986383567739402
 30
0.0
 42
-0.4142135623730935
  0
VERTEX
  5
321
  8
0
 10
1.1226916915807319
 20
-8.3826706485978502
 30
0.0
  0
VERTEX
  5
322
  8
0
 10
1.0735266967109789
 20
-8.1038421070314222
 30
0.0
 42
-0.4142135623730762
  0
VERTEX
  5
323
  8
0
 10
1.0894944048870661
 20
-8.0810378564275052
 30
0.0
  0
VERTEX
  5
324
  8
0
 10
1.1682838716228909
 20
-8.0671451476463467
 30
0.0
 42
-0.414213562373164
  0
VERTEX
  5
325
  8
0
 10
1.1910881222268119
 20
-8.0831128558224332
 30
0.0
  0
VERTEX
  5
326
  8
0
 10
1.199272147167169
 20
-8.1295267676779801
 30
0.0
 42
0.4142135623731037
  0
VERTEX
  5
327
  8
0
 10
1.222076397771088
 20
-8.1454944758540684
 30
0.0
  0
VERTEX
  5
328
  8
0
 10
1.4104257270295111
 20
-8.1122834073074692
 30
0.0
 42
0.4142135623730762
  0
VERTEX
  5
329
  8
0
 10
1.426393435205598
 20
-8.0894791567035487
 30
0.0
  0
VERTEX
  5
32A
  8
0
 10
0.9452927183615418
 20
-5.3610214078608092
 30
0.0
 42
-0.4142135623730864
  0
VERTEX
  5
32B
  8
0
 10
0.9612604265376296
 20
-5.3382171572568886
 30
0.0
  0
VERTEX
  5
32C
  8
0
 10
1.0455894368841481
 20
-5.3233476774763533
 30
0.0
 42
0.4142135623731049
  0
VERTEX
  5
32D
  8
0
 10
1.0615571450602359
 20
-5.3005434268724319
 30
0.0
  0
VERTEX
  5
32E
  8
0
 10
0.8947455098211381
 20
-4.3545076326402361
 30
0.0
 42
0.4142135623731276
  0
VERTEX
  5
32F
  8
0
 10
0.8719412592172174
 20
-4.338539924464146
 30
0.0
  0
VERTEX
  5
330
  8
0
 10
0.7876122488706993
 20
-4.3534094042446823
 30
0.0
 42
-0.4142135623730996
  0
VERTEX
  5
331
  8
0
 10
0.7648079982667789
 20
-4.3374416960685913
 30
0.0
  0
VERTEX
  5
332
  8
0
 10
0.2837072814227462
 20
-1.6089839472259859
 30
0.0
 42
0.4142135623731061
  0
VERTEX
  5
333
  8
0
 10
0.2609030308188263
 20
-1.593016239049897
 30
0.0
  0
VERTEX
  5
334
  8
0
 10
0.0725537015604041
 20
-1.6262273075965019
 30
0.0
 42
0.414213562373094
  0
VERTEX
  5
335
  8
0
 10
0.0565859933843153
 20
-1.6490315582004209
 30
0.0
  0
VERTEX
  5
336
  8
0
 10
0.0647700183246735
 20
-1.695445470055968
 30
0.0
 42
-0.4142135623730839
  0
VERTEX
  5
337
  8
0
 10
0.0488023101485859
 20
-1.718249720659887
 30
0.0
  0
VERTEX
  5
338
  8
0
 10
-0.029987156587238
 20
-1.732142429441045
 30
0.0
 42
-0.414213562373085
  0
VERTEX
  5
339
  8
0
 10
-0.0527914071911581
 20
-1.7161747212649581
 30
0.0
  0
VERTEX
  5
33A
  8
0
 10
-0.1019564020609118
 20
-1.4373461796985281
 30
0.0
 42
-0.4142135623730875
  0
VERTEX
  5
33B
  8
0
 10
-0.0859886938848241
 20
-1.414541929094608
 30
0.0
  0
VERTEX
  5
33C
  8
0
 10
-0.0071992271490004
 20
-1.4006492203134491
 30
0.0
 42
-0.4142135623730841
  0
VERTEX
  5
33D
  8
0
 10
0.0156050234549197
 20
-1.416616928489538
 30
0.0
  0
VERTEX
  5
33E
  8
0
 10
0.0237890483952787
 20
-1.463030840345086
 30
0.0
 42
0.4142135623731285
  0
VERTEX
  5
33F
  8
0
 10
0.0465932989991982
 20
-1.4789985485211761
 30
0.0
  0
VERTEX
  5
340
  8
0
 10
0.2349426282576208
 20
-1.445787479974572
 30
0.0
 42
0.4142135623731008
  0
VERTEX
  5
341
  8
0
 10
0.2509103364337086
 20
-1.422983229370653
 30
0.0
  0
VERTEX
  5
342
  8
0
 10
0.0936606312612964
 20
-0.5311758352861107
 30
0.0
 42
0.4142135623730782
  0
VERTEX
  5
343
  8
0
 10
0.0480521300534567
 20
-0.499240418933937
 30
0.0
  0
VERTEX
  5
344
  8
0
 10
-0.9989264168209663
 20
-0.6838509849708387
 30
0.0
 42
0.4142135623731055
  0
VERTEX
  5
345
  8
0
 10
-1.014894124997054
 20
-0.7066552355747593
 30
0.0
  0
VERTEX
  5
346
  8
0
 10
-0.9816830564504471
 20
-0.8950045648332073
 30
0.0
 42
0.4142135623731079
  0
VERTEX
  5
347
  8
0
 10
-0.958878805846527
 20
-0.910972273009296
 30
0.0
  0
VERTEX
  5
348
  8
0
 10
-0.9124648939909794
 20
-0.9027882480689372
 30
0.0
 42
-0.4142135623731054
  0
VERTEX
  5
349
  8
0
 10
-0.8896606433870591
 20
-0.9187559562450262
 30
0.0
  0
VERTEX
  5
34A
  8
0
 10
-0.8757679346059006
 20
-0.9975454229808503
 30
0.0
 42
-0.4142135623730848
  0
VERTEX
  5
34B
  8
0
 10
-0.8917356427819889
 20
-1.020349673584769
 30
0.0
  0
VERTEX
  5
34C
  8
0
 10
-1.170564184348418
 20
-1.0695146684545229
 30
0.0
 42
-0.414213562373087
  0
VERTEX
  5
34D
  8
0
 10
-1.1933684349523379
 20
-1.053546960278436
 30
0.0
  0
VERTEX
  5
34E
  8
0
 10
-1.207261143733497
 20
-0.9747574935426127
 30
0.0
 42
-0.4142135623731031
  0
VERTEX
  5
34F
  8
0
 10
-1.191293435557409
 20
-0.9519532429386916
 30
0.0
  0
VERTEX
  5
350
  8
0
 10
-1.1448795237018601
 20
-0.9437692179983327
 30
0.0
 42
0.4142135623731031
  0
VERTEX
  5
351
  8
0
 10
-1.128911815525772
 20
-0.9209649673944127
 30
0.0
  0
VERTEX
  5
352
  8
0
 10
-1.162122884072379
 20
-0.7326156381359655
 30
0.0
 42
0.4142135623731043
  0
VERTEX
  5
353
  8
0
 10
-1.1849271346762991
 20
-0.7166479299598768
 30
0.0
  0
VERTEX
  5
354
  8
0
 10
-1.4772647749598951
 20
-0.7681949434185209
 30
0.0
 42
-0.4142135623730935
  0
VERTEX
  5
355
  8
0
 10
-1.5000690255638149
 20
-0.7522272352424326
 30
0.0
  0
SEQEND
  5
2CF
  8
0
  0
POLYLINE
  5
356
  8
0
 66
     1
 10
0.0
 20
0.0
 30
0.0
 70
     1
  0
VERTEX
  5
357
  8
0
 10
-1.756882847576277
 20
-3.8457470142810211
 30
0.0
  0
VERTEX
  5
358
  8
0
 10
-1.6569227689399191
 20
-3.980638256163322
 30
0.0
 42
-0.7641429801405252
  0
VERTEX
  5
35A
  8
0
 10
-1.6804301021801049
 20
-4.0104785847688511
 30
0.0
  0
VERTEX
  5
35B
  8
0
 10
-1.7803901808164611
 20
-3.9680480487613838
 30
0.0
 42
-0.300965839132729
  0
VERTEX
  5
35C
  8
0
 10
-1.792383662539113
 20
-3.9499278744808248
 30
0.0
  0
VERTEX
  5
35D
  8
0
 10
-1.7923836625391161
 20
-3.8574671686059889
 30
0.0
 42
-0.7229487286473515
  0
SEQEND
  5
359
  8
0
  0
POLYLINE
  5
35E
  8
0
 66
     1
 10
0.0
 20
0.0
 30
0.0
 70
     1
  0
VERTEX
  5
35F
  8
0
 10
0.661925101911567
 20
-8.2099333010387046
 30
0.0
  0
VERTEX
  5
360
  8
0
 10
0.503916847676074
 20
-8.8836049307064613
 30
0.0
 42
-0.3000143778165567
  0
VERTEX
  5
362
  8
0
 10
0.4881701798570541
 20
-8.8984958142281432
 30
0.0
  0
VERTEX
  5
363
  8
0
 10
0.4338809718489106
 20
-8.908068466361275
 30
0.0
 42
-0.3317836417997106
  0
VERTEX
  5
364
  8
0
 10
0.4128581636316876
 20
-8.8974904976377456
 30
0.0
  0
VERTEX
  5
365
  8
0
 10
0.252537899750083
 20
-8.5770590035404872
 30
0.0
 42
-0.1529321943160945
  0
VERTEX
  5
366
  8
0
 10
0.2506586526804002
 20
-8.5654433366987082
 30
0.0
  0
VERTEX
  5
367
  8
0
 10
0.3464316282849759
 20
-7.9008249289607351
 30
0.0
 42
-0.6326013371512111
  0
VERTEX
  5
368
  8
0
 10
0.3804217804200989
 20
-7.8903259679608349
 30
0.0
  0
VERTEX
  5
369
  8
0
 10
0.6572665309407656
 20
-8.1921315879951777
 30
0.0
 42
-0.2480770366980913
  0
SEQEND
  5
361
  8
0
  0
ENDSEC
  0
EOF
